<?xml version="1.0" encoding="utf-8"?>
<!-- Generator: Adobe Illustrator 22.1.0, SVG Export Plug-In . SVG Version: 6.00 Build 0)  -->
<svg version="1.1" id="Capa_1" xmlns="http://www.w3.org/2000/svg" xmlns:xlink="http://www.w3.org/1999/xlink" x="0px" y="0px"
	 viewBox="0 0 497.3 497.3" style="enable-background:new 0 0 497.3 497.3;" xml:space="preserve">
<style type="text/css">
	.st0{fill:#FFFFFF;}
	.st1{fill:#C8D2DF;}
</style>
    <rect class="st0" width="497.3" height="497.3"/>
    <g>
            <path class="st1" d="M402.6,385.7l0.1,0c0,0-82.9-84.1-91-92.3c-5-1.5-34.5-14.5-35-38.8c12.6-14.4,30.9-28.3,57.9-28.5
                    c0,0,0.2,0,0.3,0c12.2,0.3,24.6-3.7,34.4-12.3c0.7-0.6,2.3-2.2,2.3-2.2l67.5-85.1l-8.1-8.1l-82.6,87.4l-9.7-9.8l85-85l-7.1-7.1
                    l-85.5,85.5l-8.1-8.1l85.5-85.5l-7.9-7.8l-85.5,85.5l-9.6-9.6l88.3-82.8l-7.4-7.4l-81.4,63.4c0,0-2.9,2.5-4,3.5
                    c-11.2,11.2-16,26.3-14.4,40.9c-1.1,18.5-7.1,32.2-14.9,42.7C120,75.6,62.8,91.5,62.8,91.5l-4.5,4.6c0,0,102,102.3,165,165.4
                    C201.2,283.6,94.6,390.2,94.6,390.2l0,0c-0.1,0.1-0.2,0.1-0.3,0.2c-7.6,7.6-7.6,20,0,27.6c7.6,7.6,20,7.6,27.6,0
                    c0.1-0.1,0.2-0.2,0.2-0.3l0,0c0,0,106.7-106.7,128.7-128.7c11.5,11.5,19.2,19.2,20.7,20.8c9.3,9.4,103.4,103.4,103.4,103.4h0.1
                    c0,0.1,0.1,0.2,0.2,0.3c7.6,7.7,20.1,7.7,27.7,0c7.7-7.6,7.7-20,0-27.7C402.8,385.8,402.7,385.7,402.6,385.7z"/>
             <animateTransform
                attributeName="transform"
                type="rotate"
                from="0 260 250"
                to="360 250 270"
                dur="10s"
                repeatCount="indefinite" />
    </g>
</svg>
