<?xml version="1.0" standalone="no"?>
<!DOCTYPE svg PUBLIC "-//W3C//DTD SVG 1.1//EN" "http://www.w3.org/Graphics/SVG/1.1/DTD/svg11.dtd" >
<svg>
<metadata>
Created by FontForge 20120731 at Mon Jun  4 19:54:36 2018
 By www
Copyright (c) 2013 Textaxis. v 1.0 by In~igo Jerez. Barcelona. All rights reserved.
</metadata>
<defs>
<font id="Eina04W03-Regular" horiz-adv-x="582" >
  <font-face 
    font-family="Eina04W03-Regular"
    font-weight="400"
    font-stretch="normal"
    units-per-em="1000"
    panose-1="2 0 0 0 0 0 0 0 0 0"
    ascent="800"
    descent="-200"
    x-height="509"
    cap-height="710"
    bbox="-62 -252 1216 1104"
    underline-thickness="50"
    underline-position="-75"
    unicode-range="U+0020-FB02"
  />
<missing-glyph horiz-adv-x="260" 
 />
    <glyph glyph-name="uniFB01" unicode="fi" horiz-adv-x="576" 
d="M111 509v84q0 77 41 117t110 40l34 -2v-65l-28 2q-86 0 -86 -89v-87h115v-60h-115v-449h-71v449h-99v60h99zM337 449v60h155v-509h-71v449h-84zM457 635q-22 0 -36.5 13.5t-14.5 34.5v4q0 11 4 19q6 12 19 20.5t28 8.5q22 0 36.5 -14.5t14.5 -36.5q0 -21 -14.5 -35
t-36.5 -14z" />
    <glyph glyph-name="uniFB02" unicode="fl" horiz-adv-x="561" 
d="M111 509v84q0 77 41 117t110 40l34 -2v-65l-28 2q-86 0 -86 -89v-87h115v-60h-115v-449h-71v449h-99v60h99zM402 112v638h71v-630q0 -31 11 -43t38 -12l20 2v-65q-17 -3 -37 -3q-49 0 -76 28t-27 85z" />
    <glyph glyph-name=".notdef" horiz-adv-x="260" 
 />
    <glyph glyph-name=".null" horiz-adv-x="0" 
 />
    <glyph glyph-name="nonmarkingreturn" horiz-adv-x="333" 
 />
    <glyph glyph-name="space" unicode=" " horiz-adv-x="260" 
 />
    <glyph glyph-name="exclam" unicode="!" horiz-adv-x="247" 
d="M94 164l-12 546h83l-12 -546h-59zM124 -8q-23 0 -38.5 15t-15.5 37q0 23 15.5 38t38.5 15q22 0 37.5 -15t15.5 -38q0 -22 -15.5 -37t-37.5 -15z" />
    <glyph glyph-name="quotedbl" unicode="&#x22;" horiz-adv-x="403" 
d="M151 710v-296h-70v296h70zM321 710v-296h-69v296h69z" />
    <glyph glyph-name="numbersign" unicode="#" horiz-adv-x="616" 
d="M573 494l-12 -59h-109l-33 -162h108l-12 -59h-109l-45 -214h-61l44 214h-132l-44 -214h-62l45 214h-108l12 59h109l34 162h-110l13 59h110l45 216h62l-46 -216h132l46 216h61l-46 -216h108zM259 435l-34 -162h132l34 162h-132z" />
    <glyph glyph-name="dollar" unicode="$" 
d="M328 -124h-50v110q-74 3 -124.5 29.5t-79.5 73t-35 112.5h73q8 -68 50 -106t116 -42v278l-23 7q-95 29 -141 77.5t-46 119.5q0 55 28 96.5t74 65t108 27.5v110h50v-110q38 -3 75 -15.5t66.5 -39t48.5 -66.5t23 -94h-73q-6 60 -42.5 99.5t-97.5 47.5v-264l14 -3
q106 -23 153.5 -74t47.5 -130q0 -80 -56.5 -134.5t-158.5 -63.5v-111zM141 537q0 -49 29 -78t108 -53v251q-34 -2 -66 -14t-51.5 -40.5t-19.5 -65.5zM469 181q0 49 -30 81t-111 55v-263q31 3 64.5 16.5t55 43t21.5 67.5z" />
    <glyph glyph-name="percent" unicode="%" horiz-adv-x="940" 
d="M243 0l392 710h62l-392 -710h-62zM138 490q0 -168 93 -168q44 0 68 41.5t24 126.5q0 169 -92 169q-93 0 -93 -169zM76 490q0 107 39.5 166.5t115.5 59.5q75 0 114.5 -59.5t39.5 -166.5q0 -106 -39.5 -165.5t-114.5 -59.5q-76 0 -115.5 59.5t-39.5 165.5zM617 219
q0 -168 93 -168q44 0 68 41.5t24 126.5t-24 127t-68 42q-45 0 -69 -42t-24 -127zM555 219q0 106 39.5 166t115.5 60q75 0 114.5 -60t39.5 -166t-39.5 -165.5t-114.5 -59.5q-76 0 -115.5 59.5t-39.5 165.5z" />
    <glyph glyph-name="ampersand" unicode="&#x26;" horiz-adv-x="673" 
d="M118 548q0 35 11.5 63.5t30.5 51.5t56 42.5t90 19.5q42 0 77.5 -13t60.5 -36.5t38 -54t13 -63.5q0 -67 -43 -114.5t-138 -82.5l188 -191q45 69 45 163q0 35 -5 65h70q4 -30 4 -63q0 -59 -17 -115t-49 -100l118 -120h-94l-69 70q-43 -40 -100.5 -62.5t-124.5 -22.5
q-41 0 -82.5 10t-79 36.5t-55 67t-17.5 81.5q0 66 40.5 117.5t115.5 83.5q-84 87 -84 167zM281 50q48 0 95 17.5t82 50.5l-210 215q-65 -27 -97.5 -62.5t-32.5 -88.5q0 -61 43.5 -96.5t119.5 -35.5zM189 550q0 -32 16 -63t55 -71l7 -8l30 13q70 30 98.5 60t28.5 77
q0 48 -34 76.5t-84 28.5q-38 0 -66.5 -17.5t-39.5 -44.5t-11 -51z" />
    <glyph glyph-name="quotesingle" unicode="'" horiz-adv-x="232" 
d="M151 710v-296h-70v296h70z" />
    <glyph glyph-name="parenleft" unicode="(" horiz-adv-x="315" 
d="M163 292q0 -255 116 -458h-72q-55 89 -86 209.5t-31 248.5t31 248.5t86 209.5h72q-116 -204 -116 -458z" />
    <glyph glyph-name="parenright" unicode=")" horiz-adv-x="315" 
d="M152 292q0 252 -117 458h72q26 -42 54.5 -110t46 -161t17.5 -187q0 -60 -10 -140.5t-38.5 -166t-69.5 -151.5h-72q117 205 117 458z" />
    <glyph glyph-name="asterisk" unicode="*" horiz-adv-x="389" 
d="M361 583l-123 -39l76 -104l-45 -33l-75 105l-75 -105l-45 34l76 104l-123 39l18 53l122 -41l-1 129h56l-1 -130l123 41z" />
    <glyph glyph-name="plus" unicode="+" 
d="M257 509h69v-221h223v-68h-223v-220h-69v220h-224v68h224v221z" />
    <glyph glyph-name="comma" unicode="," horiz-adv-x="216" 
d="M79 94h84l-73 -203h-63z" />
    <glyph glyph-name="hyphen" unicode="-" horiz-adv-x="396" 
d="M352 288v-67h-308v67h308z" />
    <glyph glyph-name="period" unicode="." horiz-adv-x="216" 
d="M108 -8q-24 0 -39.5 15t-15.5 39q0 23 15.5 38.5t39.5 15.5q23 0 39 -15.5t16 -38.5t-16 -38.5t-39 -15.5z" />
    <glyph glyph-name="slash" unicode="/" horiz-adv-x="408" 
d="M22 0l289 710h75l-289 -710h-75z" />
    <glyph glyph-name="zero" unicode="0" 
d="M291 -15q-58 0 -105 26t-78.5 74.5t-48 117.5t-16.5 152t16.5 152t48 117.5t78.5 74.5t105 26t104.5 -26t78.5 -74.5t48.5 -117.5t16.5 -152t-16.5 -152t-48.5 -117.5t-78.5 -74.5t-104.5 -26zM291 657q-81 0 -127 -77.5t-46 -224.5q0 -148 46 -225t127 -77t127 77
t46 225q0 147 -46 224.5t-127 77.5z" />
    <glyph glyph-name="one" unicode="1" 
d="M513 64v-64h-408v64h168v575h-160v50l176 21h57v-646h167z" />
    <glyph glyph-name="two" unicode="2" 
d="M526 0h-471v62l284 261q46 42 70.5 85.5t24.5 94.5q0 71 -40.5 113t-111.5 42q-75 0 -113 -45t-38 -120l2 -20h-74l-2 22q0 50 15.5 93t44.5 73.5t71 47t94 16.5q54 0 97 -16t72 -45.5t43.5 -70t14.5 -87.5q0 -67 -31 -124t-97 -115l-223 -198h368v-69z" />
    <glyph glyph-name="three" unicode="3" 
d="M219 331v65h60q50 0 86 15t57.5 43.5t21.5 68.5q0 62 -39.5 98.5t-115.5 36.5q-35 0 -68 -13.5t-54.5 -47t-25.5 -72.5h-73q2 30 14 63.5t41.5 67.5t74.5 51.5t92 17.5q39 0 79 -9.5t76.5 -36.5t54 -68.5t17.5 -84.5q0 -39 -16.5 -74t-44.5 -55.5t-56 -30.5
q64 -18 96 -63t32 -104q0 -46 -16 -85.5t-46.5 -68t-75 -44.5t-98.5 -16q-39 0 -79.5 10.5t-78 39.5t-57.5 74t-24 92h74q3 -29 14.5 -57t32.5 -49t51 -32.5t67 -11.5q73 0 117 38t44 110q0 64 -45 98t-124 34h-65z" />
    <glyph glyph-name="four" unicode="4" 
d="M545 240v-66h-92v-174h-71v174h-356v64l349 472h78v-470h92zM382 608h-1l-272 -368h273v368z" />
    <glyph glyph-name="five" unicode="5" 
d="M73 303l57 407h366v-69h-309l-32 -236q25 25 64 41.5t84 16.5q52 0 94.5 -18.5t72 -50.5t44.5 -74.5t15 -88.5q0 -50 -17.5 -95.5t-49 -79t-75.5 -52.5t-95 -19q-102 0 -165 56.5t-73 149.5h75q4 -26 19.5 -59t52 -56.5t91.5 -23.5q72 0 117.5 49.5t45.5 129.5
q0 74 -44 120.5t-120 46.5q-31 0 -62.5 -12t-56 -36t-33.5 -47h-66z" />
    <glyph glyph-name="six" unicode="6" 
d="M297 -15q-54 0 -99.5 19t-77.5 53.5t-48.5 80t-16.5 96.5q0 236 268 476h97q-81 -66 -149.5 -144.5t-105.5 -159.5q23 22 59 38.5t84 16.5q51 0 94.5 -18.5t74 -51.5t47 -76.5t16.5 -90.5t-17.5 -91t-50.5 -77t-78 -52t-97 -19zM464 224q0 77 -47 125.5t-120 48.5
q-74 0 -120.5 -48.5t-46.5 -125.5t46.5 -125t120.5 -48q73 0 120 48t47 125z" />
    <glyph glyph-name="seven" unicode="7" 
d="M103 547h-71v163h512v-65q-115 -146 -179 -295.5t-95 -349.5h-78q62 378 262 641h-351v-94z" />
    <glyph glyph-name="eight" unicode="8" 
d="M291 -15q-43 0 -86 10.5t-77 35.5t-55 65t-21 94q0 56 31.5 105t86.5 72q-47 23 -72.5 68.5t-25.5 96.5q0 39 14.5 74t42.5 62t69.5 42t92.5 15q38 0 77 -10t74.5 -37.5t52 -67.5t16.5 -79q0 -37 -14.5 -72.5t-38.5 -58t-47 -33.5q55 -23 86.5 -72t31.5 -105
q0 -43 -15 -80.5t-45 -65.5t-75 -43.5t-103 -15.5zM291 332q-75 0 -119.5 -38t-44.5 -101q0 -64 42 -103.5t122 -39.5t122 39.5t42 103.5q0 63 -44.5 101t-119.5 38zM291 397q70 0 109.5 37t39.5 96q0 34 -16.5 65.5t-52 48t-80.5 16.5t-80.5 -16.5t-52 -47.5t-16.5 -65
q0 -59 39.5 -96.5t109.5 -37.5z" />
    <glyph glyph-name="nine" unicode="9" 
d="M286 725q54 0 99.5 -19t77 -53.5t48.5 -80t17 -96.5q0 -237 -269 -476h-96q79 64 147.5 142.5t106.5 160.5q-60 -55 -143 -55q-38 0 -78 12.5t-78 46.5t-56.5 83t-18.5 96t17.5 91t50 77t78 52t97.5 19zM119 486q0 -77 47 -126t120 -49t120 49t47 126q0 47 -21 88.5
t-61 63t-85 21.5q-73 0 -120 -48t-47 -125z" />
    <glyph glyph-name="colon" unicode=":" horiz-adv-x="216" 
d="M108 -8q-24 0 -39.5 15t-15.5 39q0 23 15.5 38.5t39.5 15.5q23 0 39 -15.5t16 -38.5t-16 -38.5t-39 -15.5zM108 408q-24 0 -39.5 15.5t-15.5 38.5q0 24 15.5 39.5t39.5 15.5q23 0 39 -16t16 -39t-16 -38.5t-39 -15.5z" />
    <glyph glyph-name="semicolon" unicode=";" horiz-adv-x="217" 
d="M108 408q-24 0 -39.5 15.5t-15.5 38.5q0 24 15.5 39.5t39.5 15.5q23 0 39 -16t16 -39t-16 -38.5t-39 -15.5zM79 94h84l-73 -203h-63z" />
    <glyph glyph-name="less" unicode="&#x3c;" 
d="M528 101v-74l-474 194v61l474 194v-73l-385 -151z" />
    <glyph glyph-name="equal" unicode="=" 
d="M549 187v-69h-516v69h516zM549 390v-69h-516v69h516z" />
    <glyph glyph-name="greater" unicode="&#x3e;" 
d="M54 27v74l385 151l-385 151v73l474 -194v-61z" />
    <glyph glyph-name="question" unicode="?" horiz-adv-x="522" 
d="M38 514q0 32 10 67t38.5 71t74.5 54.5t95 18.5q64 0 111.5 -23t76.5 -67.5t29 -107.5q0 -46 -19.5 -89t-71.5 -92t-62.5 -59.5t-20 -25t-14 -28t-4.5 -28.5q0 -18 4 -41h-70q-5 24 -5 42q0 20 6 43t24 49t59 63.5t54.5 53t22.5 30t16 34t7 44.5q0 63 -38.5 99.5
t-104.5 36.5q-65 0 -104.5 -41t-39.5 -108q0 -22 3 -39h-74q-3 21 -3 43zM254 -8q-23 0 -38.5 15t-15.5 37q0 23 15 38t39 15q22 0 37.5 -15t15.5 -38q0 -22 -15.5 -37t-37.5 -15z" />
    <glyph glyph-name="at" unicode="@" horiz-adv-x="825" 
d="M502 278q0 48 -21 77.5t-64 29.5q-41 0 -69.5 -25t-39 -62.5t-10.5 -70.5q0 -108 93 -108q25 0 50.5 16.5t43 57.5t17.5 85zM653 28h67q-48 -69 -128.5 -109.5t-173.5 -40.5q-84 0 -153 27t-116.5 76.5t-72.5 117.5t-25 148q0 77 26.5 146.5t76.5 122t121 82t154 29.5
q77 0 141.5 -23t110 -64.5t69.5 -100t24 -125.5q0 -42 -11 -85t-39 -83.5t-67.5 -60t-74.5 -19.5q-36 0 -57 18t-28 44q-22 -33 -54 -47.5t-64 -14.5q-66 0 -105 43t-39 117q0 41 11.5 80t34.5 69t55.5 47t72.5 17q38 0 69 -16.5t46 -49.5l11 52h58l-44 -221q-3 -13 -3 -27
q0 -26 13 -41t34 -15q36 0 65.5 25t44 70.5t14.5 92.5q0 61 -21 110.5t-59 84t-92 52.5t-117 18q-72 0 -131.5 -25t-100.5 -70t-62.5 -104.5t-21.5 -126.5q0 -72 21.5 -131.5t61.5 -101t97.5 -63t126.5 -21.5q37 0 82 10t86 34t66 53z" />
    <glyph glyph-name="A" unicode="A" horiz-adv-x="672" 
d="M82 0h-78l292 710h79l293 -710h-81l-67 166h-370zM336 621h-2l-158 -387h317z" />
    <glyph glyph-name="B" unicode="B" horiz-adv-x="674" 
d="M371 0h-270v710h263q59 0 103.5 -14t73 -39t42.5 -60t14 -76q0 -56 -30 -99.5t-81 -61.5q42 -12 73 -40.5t42.5 -62.5t11.5 -63q0 -94 -63 -144t-179 -50zM374 326h-200v-258h199q38 0 65 6.5t48 18.5t37.5 37.5t16.5 66.5q0 64 -44.5 96.5t-121.5 32.5zM367 642h-193
v-248h193q157 0 157 124q0 61 -40 92.5t-117 31.5z" />
    <glyph glyph-name="C" unicode="C" horiz-adv-x="781" 
d="M52 355q0 77 25 145.5t71 118.5t111.5 78t143.5 28q129 0 219.5 -72.5t115.5 -192.5h-77q-21 90 -91 143t-167 53q-61 0 -112 -21.5t-87.5 -62t-56 -96.5t-19.5 -121t19.5 -121t56 -96.5t87.5 -62t112 -21.5q97 0 167 53t91 143h77q-25 -120 -115.5 -192.5t-219.5 -72.5
q-78 0 -143.5 28t-111.5 78t-71 118.5t-25 145.5z" />
    <glyph glyph-name="D" unicode="D" horiz-adv-x="763" 
d="M316 0h-215v710h215q91 0 165.5 -25t125.5 -72t77.5 -113t26.5 -145t-26.5 -145t-77.5 -113t-125.5 -72t-165.5 -25zM635 355q0 65 -20.5 118t-61 90.5t-102 57t-139.5 19.5h-138v-570h138q78 0 139.5 19.5t102 57t61 90.5t20.5 118z" />
    <glyph glyph-name="E" unicode="E" horiz-adv-x="636" 
d="M578 69v-69h-477v710h477v-69h-404v-246h383v-69h-383v-257h404z" />
    <glyph glyph-name="F" unicode="F" horiz-adv-x="583" 
d="M174 0h-73v710h452v-69h-379v-246h358v-69h-358v-326z" />
    <glyph glyph-name="G" unicode="G" horiz-adv-x="822" 
d="M737 379v-379h-67v135q-38 -69 -109 -109t-161 -40q-77 0 -142 27.5t-111 77.5t-70.5 118.5t-24.5 145.5t25 145.5t71 118.5t111.5 78t143.5 28q62 0 117.5 -17.5t99 -50t73 -79.5t42.5 -104h-77q-24 86 -92.5 134t-162.5 48q-61 0 -112 -21.5t-87.5 -62t-56 -96.5
t-19.5 -121t19.5 -121.5t56 -97t88 -62.5t111.5 -22q26 0 58.5 6t66.5 22t65 46t52 78.5t23 106.5h-239v68h308z" />
    <glyph glyph-name="H" unicode="H" horiz-adv-x="764" 
d="M662 710v-710h-73v326h-415v-326h-73v710h73v-315h415v315h73z" />
    <glyph glyph-name="I" unicode="I" horiz-adv-x="297" 
d="M261 0h-225v61h76v588h-76v61h225v-61h-76v-588h76v-61z" />
    <glyph glyph-name="J" unicode="J" horiz-adv-x="593" 
d="M429 221v489h73v-487q0 -53 -15.5 -96.5t-45 -75t-72.5 -48t-95 -16.5q-104 0 -165.5 61.5t-61.5 164.5l2 44h74l-2 -44q0 -70 40.5 -115t112.5 -45q73 0 114 44t41 124z" />
    <glyph glyph-name="K" unicode="K" horiz-adv-x="703" 
d="M700 0h-93l-278 362l-155 -152v-210h-73v710h73v-409l408 409h98l-300 -296z" />
    <glyph glyph-name="L" unicode="L" horiz-adv-x="541" 
d="M530 69v-69h-429v710h73v-641h356z" />
    <glyph glyph-name="M" unicode="M" horiz-adv-x="849" 
d="M167 710l257 -331l258 331h66v-710h-73v586l-249 -316h-4l-248 316v-586h-73v710h66z" />
    <glyph glyph-name="N" unicode="N" horiz-adv-x="766" 
d="M174 593v-593h-73v710h77l414 -594v594h73v-710h-77z" />
    <glyph glyph-name="O" unicode="O" horiz-adv-x="828" 
d="M128 355q0 -65 21.5 -121t60 -96t91.5 -62t113 -22t113 22t91.5 62t60 96t21.5 121t-21.5 121t-60 96t-91.5 62t-113 22t-113 -22t-91.5 -62t-60 -96t-21.5 -121zM776 355q0 -76 -26 -144t-74 -118.5t-115.5 -79t-146.5 -28.5t-146.5 28.5t-115.5 79t-74 118.5t-26 144
t26 144t74 118.5t115.5 79t146.5 28.5t146.5 -28.5t115.5 -79t74 -118.5t26 -144z" />
    <glyph glyph-name="P" unicode="P" horiz-adv-x="644" 
d="M174 369h206q75 0 112.5 35.5t37.5 100.5q0 64 -37.5 99.5t-112.5 35.5h-206v-271zM174 299v-299h-73v710h276q74 0 124 -24t77.5 -69t27.5 -112q0 -44 -13.5 -81.5t-41 -65.5t-71.5 -43.5t-103 -15.5h-203z" />
    <glyph glyph-name="Q" unicode="Q" horiz-adv-x="828" 
d="M776 355q0 -42 -11.5 -96t-44 -107.5t-79.5 -90.5l137 -191h-86l-109 153q-37 -18 -80 -28t-89 -10q-79 0 -146.5 28.5t-115.5 79t-74 118.5t-26 144t26 144t74 118.5t115.5 79t146.5 28.5t146.5 -28.5t115.5 -79t74 -118.5t26 -144zM700 355q0 65 -21.5 121t-60 96
t-91.5 62t-113 22t-113 -22t-91.5 -62t-60 -96t-21.5 -121t21.5 -121t60 -96t91.5 -62t113 -22t113 22t91.5 62t60 96t21.5 121z" />
    <glyph glyph-name="R" unicode="R" horiz-adv-x="672" 
d="M637 0h-88l-167 309h-208v-309h-73v710h292q72 0 122 -23.5t78 -67.5t28 -109q0 -55 -20.5 -95t-56 -65t-86.5 -34zM545 510q0 60 -38 95t-111 35h-222v-261h222q74 0 111.5 34.5t37.5 96.5z" />
    <glyph glyph-name="S" unicode="S" horiz-adv-x="633" 
d="M307 52q88 0 139 34.5t51 98.5q0 19 -6 40.5t-21.5 38.5t-44 31.5t-128 35t-132.5 39t-51 38.5t-28 49.5t-10 67.5t16 74.5t47 64.5t77 44.5t103 16.5t103 -17.5t77 -48.5t47.5 -73.5t17.5 -90.5h-71q-2 74 -48.5 119t-124.5 45q-79 0 -125 -35.5t-46 -95.5
q0 -27 11.5 -51t43 -43t123.5 -38.5t124.5 -32.5t54.5 -29.5t37.5 -40t21.5 -51t6 -52.5q0 -33 -12.5 -68.5t-48.5 -69t-91.5 -50t-113.5 -16.5q-82 0 -139 27.5t-90 78.5t-36 123h72q6 -79 58 -121t137 -42z" />
    <glyph glyph-name="T" unicode="T" horiz-adv-x="545" 
d="M536 710v-70h-227v-640h-73v640h-227v70h527z" />
    <glyph glyph-name="U" unicode="U" horiz-adv-x="736" 
d="M368 -15q-62 0 -114 19.5t-89.5 58t-58 97t-20.5 133.5v417h73v-424q0 -107 55 -170.5t154 -63.5t154 63.5t55 170.5v424h73v-417q0 -75 -20.5 -133.5t-58 -97t-90 -58t-113.5 -19.5z" />
    <glyph glyph-name="V" unicode="V" horiz-adv-x="669" 
d="M579 710h80l-286 -710h-78l-285 710h82l243 -617h2z" />
    <glyph glyph-name="W" unicode="W" horiz-adv-x="1033" 
d="M516 613l-191 -613h-80l-228 710h82l185 -613h2l190 613h83l190 -614h2l186 614h79l-228 -711h-81l-189 614h-2z" />
    <glyph glyph-name="X" unicode="X" horiz-adv-x="675" 
d="M337 417l230 293h91l-277 -350l288 -360h-95l-237 303l-238 -303h-93l287 360l-279 350h94z" />
    <glyph glyph-name="Y" unicode="Y" horiz-adv-x="615" 
d="M530 710h85l-271 -458v-252h-73v252l-271 458h82l225 -381h2z" />
    <glyph glyph-name="Z" unicode="Z" horiz-adv-x="642" 
d="M594 710v-63l-455 -578h459v-69h-554v63l456 578h-452v69h546z" />
    <glyph glyph-name="bracketleft" unicode="[" horiz-adv-x="301" 
d="M279 -100v-66h-204v916h204v-66h-135v-784h135z" />
    <glyph glyph-name="backslash" unicode="\" horiz-adv-x="408" 
d="M97 710l289 -710h-75l-289 710h75z" />
    <glyph glyph-name="bracketright" unicode="]" horiz-adv-x="301" 
d="M22 -166v66h135v784h-135v66h204v-916h-204z" />
    <glyph glyph-name="asciicircum" unicode="^" 
d="M515 241h-73l-151 378l-151 -378h-73l193 469h61z" />
    <glyph glyph-name="underscore" unicode="_" horiz-adv-x="500" 
d="M500 -96v-67h-500v67h500z" />
    <glyph glyph-name="grave" unicode="`" horiz-adv-x="349" 
d="M103 759h78l66 -170h-66z" />
    <glyph glyph-name="a" unicode="a" horiz-adv-x="576" 
d="M422 242q-105 0 -168 -4t-91 -19q-19 -11 -30 -30t-11 -44q0 -49 30 -73.5t86 -24.5q88 0 136 40t48 107v48zM230 -12q-55 0 -93.5 17.5t-61.5 52t-23 85.5q0 45 24.5 81.5t67.5 53.5q27 11 75.5 17t202.5 6v33q0 126 -144 126q-58 0 -96 -25t-48 -76h-69q8 54 35.5 89.5
t72.5 54t108 18.5q106 0 159 -50t53 -138v-333h-68v74q-26 -42 -77.5 -64t-117.5 -22z" />
    <glyph glyph-name="b" unicode="b" horiz-adv-x="638" 
d="M158 417q26 47 75.5 75.5t114.5 28.5q56 0 102 -21.5t76.5 -58.5t46.5 -85.5t16 -101.5q0 -52 -16 -100.5t-46.5 -85.5t-76.5 -58.5t-102 -21.5q-66 0 -116 28.5t-77 77.5v-94h-68v750h71v-333zM156 254q0 -41 12 -78t35 -65t57 -43.5t75 -15.5q51 0 95 26.5t65.5 75
t21.5 100.5q0 42 -12.5 79t-36 65t-58 43.5t-75.5 15.5q-51 0 -90.5 -24t-64 -69.5t-24.5 -109.5z" />
    <glyph glyph-name="c" unicode="c" horiz-adv-x="577" 
d="M49 254q0 52 17.5 100.5t50.5 86t80 59t103 21.5q49 0 85.5 -13.5t65 -35t53 -58.5t34.5 -86h-72q-16 59 -59.5 94t-106.5 35q-79 0 -129 -57t-50 -146q0 -88 50 -145t129 -57q63 0 106.5 35t59.5 94h72q-8 -38 -27 -73t-49 -62t-71.5 -42.5t-90.5 -15.5q-56 0 -103 21.5
t-80 59t-50.5 86t-17.5 99.5z" />
    <glyph glyph-name="d" unicode="d" horiz-adv-x="638" 
d="M479 417v333h71v-750h-68v94q-27 -49 -76.5 -77.5t-116.5 -28.5q-56 0 -101.5 21.5t-76 58.5t-46.5 85.5t-16 100.5q0 53 16 101.5t46.5 85.5t76 58.5t101.5 21.5q66 0 115 -28.5t75 -75.5zM482 254q0 64 -24.5 109.5t-64 69.5t-90.5 24q-41 0 -71 -13.5t-53 -35.5
t-40.5 -61.5t-17.5 -92.5q0 -52 21.5 -100.5t65.5 -75t95 -26.5q31 0 62.5 10.5t57 35.5t42.5 64.5t17 91.5z" />
    <glyph glyph-name="e" unicode="e" horiz-adv-x="593" 
d="M543 234h-423q4 -58 30 -99t64.5 -62t86.5 -21q27 0 59.5 10t60.5 36.5t40 60.5h74q-23 -76 -85.5 -123.5t-149.5 -47.5q-58 0 -105.5 21t-79.5 58t-49 86t-17 102q0 52 17.5 100.5t50.5 85.5t80 58.5t102 21.5t101 -20t78 -55.5t49 -83.5t17 -101zM299 457
q-72 0 -120 -46.5t-57 -118.5h351q-7 74 -53.5 119.5t-120.5 45.5z" />
    <glyph glyph-name="f" unicode="f" horiz-adv-x="311" 
d="M110 509v84q0 77 41 117t110 40l34 -2v-65l-28 2q-86 0 -86 -89v-87h115v-60h-115v-449h-71v449h-99v60h99z" />
    <glyph glyph-name="g" unicode="g" horiz-adv-x="632" 
d="M481 416v93h68v-484q0 -51 -15 -96t-45 -78t-75 -51.5t-103 -18.5q-63 0 -115 23t-80.5 62t-36.5 77h73q15 -44 58 -71t103 -27q76 0 120.5 46t44.5 118v95q-27 -47 -75.5 -75t-113.5 -28q-55 0 -100 21t-76.5 57t-47.5 83.5t-16 98.5t16 98.5t47.5 83.5t76.5 57t100 21
q32 0 69 -9.5t70 -34.5t53 -61zM481 261q0 41 -12.5 77t-35.5 62.5t-57 41.5t-74 15q-30 0 -61.5 -10t-58 -34t-44 -62.5t-17.5 -89.5t22 -98.5t65.5 -73t93.5 -25.5q30 0 61.5 10t57.5 34.5t43 63t17 89.5z" />
    <glyph glyph-name="h" unicode="h" horiz-adv-x="598" 
d="M158 750v-312q12 21 37.5 41.5t59 31t68.5 10.5q46 0 82.5 -14.5t61 -41t37 -62.5t12.5 -78v-325h-71v311q0 70 -33.5 109t-100.5 39t-110 -41.5t-43 -116.5v-301h-71v750h71z" />
    <glyph glyph-name="i" unicode="i" horiz-adv-x="265" 
d="M22 449v60h155v-509h-71v449h-84zM142 635q-22 0 -36.5 13.5t-14.5 34.5v4q0 11 4 19q6 12 19 20.5t28 8.5q22 0 36.5 -14.5t14.5 -36.5q0 -21 -14.5 -35t-36.5 -14z" />
    <glyph glyph-name="j" unicode="j" horiz-adv-x="265" 
d="M142 635q-22 0 -36.5 14t-14.5 35q0 22 14.5 36.5t36.5 14.5t36.5 -14.5t14.5 -36.5q0 -21 -14.5 -35t-36.5 -14zM177 509v-556q0 -70 -35 -105t-98 -35q-21 0 -41 3v64q17 -3 35 -3q35 0 51.5 20t16.5 60v492h-84v60h155z" />
    <glyph glyph-name="k" unicode="k" horiz-adv-x="553" 
d="M439 509h95l-211 -210l227 -299h-88l-189 251l-115 -112v-139h-71v750h71v-524z" />
    <glyph glyph-name="l" unicode="l" horiz-adv-x="257" 
d="M87 112v638h71v-630q0 -31 11 -43t38 -12l20 2v-65q-17 -3 -37 -3q-49 0 -76 28t-27 85z" />
    <glyph glyph-name="m" unicode="m" horiz-adv-x="930" 
d="M503 297v-297h-71v311q0 69 -32 108.5t-96 39.5q-39 0 -74 -18.5t-53.5 -56t-18.5 -81.5v-303h-71v509h68v-78q25 45 67 67.5t94 22.5q60 0 102.5 -26.5t63.5 -71.5q17 29 47 53.5t65.5 34.5t66.5 10q56 0 96.5 -23t65 -67t24.5 -106v-325h-71v311q0 50 -17.5 85.5
t-47.5 49t-62 13.5q-63 0 -104.5 -42.5t-41.5 -119.5z" />
    <glyph glyph-name="n" unicode="n" horiz-adv-x="598" 
d="M155 509v-78q12 23 36 43.5t56.5 33.5t75.5 13q46 0 82.5 -14.5t61 -41t37 -62.5t12.5 -78v-325h-71v311q0 70 -33.5 109t-100.5 39q-49 0 -83.5 -21t-52 -55t-17.5 -80v-303h-71v509h68z" />
    <glyph glyph-name="o" unicode="o" horiz-adv-x="617" 
d="M308 -12q-57 0 -106 21.5t-83 58.5t-52 85.5t-18 100.5t18 100.5t52 86t83 59t106 21.5q58 0 106.5 -21.5t83 -59t52.5 -86t18 -100.5t-18 -100.5t-52.5 -85.5t-83 -58.5t-106.5 -21.5zM121 254q0 -53 23 -101.5t68 -74.5t96 -26q52 0 97 26t68 74.5t23 101.5t-23 102
t-68 75t-97 26q-51 0 -96 -26t-68 -75t-23 -102z" />
    <glyph glyph-name="p" unicode="p" horiz-adv-x="638" 
d="M158 92v-300h-71v717h68v-94q28 49 77.5 77.5t115.5 28.5q56 0 102 -21.5t76.5 -58.5t46.5 -85.5t16 -101.5q0 -52 -16 -100.5t-46.5 -85.5t-76.5 -58.5t-102 -21.5q-32 0 -69 9.5t-69.5 34.5t-51.5 60zM156 254q0 -41 12 -78t35 -65t57 -43.5t75 -15.5q51 0 95 26.5
t65.5 75t21.5 100.5q0 42 -12.5 79t-36 65t-58 43.5t-75.5 15.5q-51 0 -90.5 -24t-64 -69.5t-24.5 -109.5z" />
    <glyph glyph-name="q" unicode="q" horiz-adv-x="638" 
d="M479 92q-26 -48 -75 -76t-115 -28q-56 0 -101.5 21.5t-76 58.5t-46.5 85.5t-16 100.5q0 53 16 101.5t46.5 85.5t76 58.5t101.5 21.5q67 0 116.5 -28.5t76.5 -77.5v94h68v-717h-71v300zM482 254q0 64 -24.5 109.5t-64 69.5t-90.5 24q-41 0 -71 -13.5t-53 -35.5
t-40.5 -61.5t-17.5 -92.5q0 -52 21.5 -101t65.5 -75.5t95 -26.5q31 0 62.5 10.5t57 35.5t42.5 65t17 92z" />
    <glyph glyph-name="r" unicode="r" horiz-adv-x="351" 
d="M335 513v-67l-25 1q-68 0 -110 -41t-42 -117v-289h-71v509h68v-79q12 22 37 43t58.5 31t67.5 10z" />
    <glyph glyph-name="s" unicode="s" horiz-adv-x="504" 
d="M250 -12q-52 0 -87 12t-59.5 31t-42 51.5t-20.5 76.5h72q4 -50 39 -79.5t98 -29.5q62 0 98 24t36 62q0 19 -8.5 35.5t-32 29t-95.5 25.5t-106 27.5t-53.5 43t-19.5 74.5q0 37 22 73t67.5 56.5t99.5 20.5q37 0 72.5 -10t64.5 -35t42 -58t15 -58h-71q-5 43 -36.5 71
t-88.5 28q-27 0 -55.5 -8.5t-45.5 -29.5t-17 -47q0 -25 13 -41t38 -25.5t80.5 -19.5t85 -19.5t51 -25t34.5 -41.5t13 -64q0 -29 -12.5 -56t-38 -48.5t-64.5 -33.5t-88 -12z" />
    <glyph glyph-name="t" unicode="t" horiz-adv-x="323" 
d="M294 67v-64q-19 -5 -54 -5q-65 0 -98.5 35.5t-33.5 103.5v312h-97v60h97v145h71v-145h117v-60h-117v-307q0 -80 70 -80q22 0 45 5z" />
    <glyph glyph-name="u" unicode="u" horiz-adv-x="593" 
d="M434 208v301h71v-509h-68v74q-11 -22 -36.5 -43.5t-59.5 -32t-69 -10.5q-91 0 -140.5 54t-49.5 141v326h71v-311q0 -71 32.5 -109.5t98.5 -38.5q39 0 75 17t55.5 55t19.5 86z" />
    <glyph glyph-name="v" unicode="v" horiz-adv-x="532" 
d="M266 82l176 427h74l-215 -509h-72l-213 509h77z" />
    <glyph glyph-name="w" unicode="w" horiz-adv-x="827" 
d="M551 0l-137 419h-1l-139 -419h-74l-176 509h76l137 -425l140 425h74l138 -425l139 425h75l-178 -509h-74z" />
    <glyph glyph-name="x" unicode="x" horiz-adv-x="540" 
d="M513 509l-202 -251l209 -258h-89l-162 204l-162 -204h-87l207 257l-202 252h88l157 -197l156 197h87z" />
    <glyph glyph-name="y" unicode="y" horiz-adv-x="532" 
d="M142 -208l87 208l-213 509h77l173 -427l175 427h75l-302 -717h-72z" />
    <glyph glyph-name="z" unicode="z" horiz-adv-x="526" 
d="M472 452l-330 -389h334v-63h-426v57l330 389h-326v63h418v-57z" />
    <glyph glyph-name="braceleft" unicode="{" horiz-adv-x="314" 
d="M243 -166q-64 0 -96.5 36t-32.5 101v235q0 54 -51 54h-23v64h23q51 0 51 54v235q0 65 32.5 101t96.5 36q30 0 49 -4v-66q-21 4 -45 4q-34 0 -49 -17t-15 -51v-233q0 -68 -40 -91q40 -25 40 -92v-232q0 -34 15 -51t49 -17q24 0 45 4v-66q-19 -4 -49 -4z" />
    <glyph glyph-name="bar" unicode="|" horiz-adv-x="274" 
d="M172 0h-70v750h70v-750z" />
    <glyph glyph-name="braceright" unicode="}" horiz-adv-x="314" 
d="M71 -166q-30 0 -49 4v66q21 -4 44 -4q35 0 50 17t15 51v232q0 68 40 92q-40 23 -40 91v233q0 34 -15 51t-50 17q-23 0 -44 -4v66q19 4 49 4q64 0 96 -36t32 -101v-235q0 -54 51 -54h24v-64h-24q-51 0 -51 -54v-235q0 -65 -32 -101t-96 -36z" />
    <glyph glyph-name="asciitilde" unicode="~" 
d="M393 195q-43 0 -107 23t-98 23q-31 0 -54.5 -14.5t-33.5 -32.5l-54 38q15 31 53 55t90 24q44 0 99 -20t75.5 -23t30.5 -3q31 0 54.5 14.5t33.5 32.5l53 -37q-15 -31 -52.5 -55.5t-89.5 -24.5z" />
    <glyph glyph-name="exclamdown" unicode="&#xa1;" horiz-adv-x="247" 
d="M94 346h59l12 -546h-83zM124 518q22 0 37.5 -15t15.5 -37q0 -23 -15.5 -38.5t-37.5 -15.5q-23 0 -38.5 15.5t-15.5 38.5q0 22 15.5 37t38.5 15z" />
    <glyph glyph-name="cent" unicode="&#xa2;" 
d="M271 -17v109q-37 3 -76.5 19.5t-72 50t-54 83t-21.5 110.5q0 48 15.5 93.5t44.5 82t71.5 59.5t92.5 28v108h49v-108q54 -4 100.5 -31t74 -71t37.5 -89h-73q-14 53 -50 86t-89 39v-395q53 6 89.5 39.5t49.5 86.5h73q-10 -46 -37.5 -90t-74 -70.5t-100.5 -30.5v-109h-49z
M118 355q0 -80 42 -134.5t111 -63.5v395q-42 -5 -75.5 -29.5t-55.5 -67t-22 -100.5z" />
    <glyph glyph-name="sterling" unicode="&#xa3;" 
d="M512 116l46 -40q-67 -91 -176 -91q-46 0 -103.5 21t-79.5 24.5t-36 3.5q-28 0 -56 -14.5t-44 -32.5l-40 46q11 13 32.5 28t45.5 24q67 49 67 135q0 34 -13 66h-115v59h88q-1 2 -13.5 27.5t-20 47.5t-12.5 45.5t-5 49.5q0 44 14.5 82.5t43.5 67t71.5 44.5t96.5 16
q105 0 165.5 -61.5t60.5 -164.5l-1 -25h-73l2 23q0 73 -39 117.5t-115 44.5q-28 0 -56 -7.5t-49.5 -25.5t-34.5 -47t-13 -70q0 -24 6.5 -53t25.5 -66.5t22 -44.5h195v-59h-173q9 -27 9 -60q0 -77 -43 -129q37 -1 99 -23.5t105 -22.5q71 0 116 65z" />
    <glyph glyph-name="currency" unicode="&#xa4;" horiz-adv-x="600" 
d="M113 252q0 29 9 56.5t25 49.5l-73 75l48 48l75 -75q21 15 49 24.5t55 9.5q26 0 54 -9.5t49 -24.5l74 74l49 -48l-73 -73q15 -23 25 -51.5t10 -55.5t-9.5 -55t-23.5 -49l71 -71l-49 -49l-71 70q-22 -15 -50.5 -24.5t-55.5 -9.5q-28 0 -57 9.5t-51 25.5l-71 -71l-48 49
l72 72q-15 21 -24 48.5t-9 54.5zM172 252q0 -52 38.5 -90.5t90.5 -38.5q24 0 54 13t52 45.5t22 70.5q0 24 -13 54t-45 52t-70 22q-25 0 -55 -13t-52 -45t-22 -70z" />
    <glyph glyph-name="yen" unicode="&#xa5;" 
d="M35 710h78l177 -305h2l173 305h82l-213 -359h136v-58h-143v-85h143v-58h-143v-150h-73v150h-143v58h143v85h-143v58h135z" />
    <glyph glyph-name="brokenbar" unicode="&#xa6;" horiz-adv-x="272" 
d="M102 307h68v-307h-68v307zM102 749h68v-307h-68v307z" />
    <glyph glyph-name="section" unicode="&#xa7;" horiz-adv-x="564" 
d="M54 295q0 25 10 54.5t35.5 55t58.5 39.5q-58 48 -58 125q0 68 51.5 112t136.5 44q87 0 136.5 -45.5t57.5 -122.5h-69q-3 28 -16 51t-40 39t-71 16q-57 0 -86.5 -26.5t-29.5 -64.5q0 -73 101 -114l59 -25q93 -39 136.5 -83t43.5 -109q0 -25 -10 -55t-36 -56t-59 -40
q59 -45 59 -123q0 -68 -51.5 -112t-136.5 -44q-87 0 -136.5 46t-56.5 122h68q4 -28 18.5 -53.5t43 -39t65.5 -13.5q27 0 55.5 9t45 31.5t16.5 49.5q0 72 -101 115l-60 25q-93 39 -136.5 83t-43.5 109zM302 371l-89 38q-40 -12 -66 -41t-26 -69q0 -34 25.5 -64t116.5 -70
l88 -39q39 11 66 41t27 70q0 25 -13 48t-44.5 43.5t-84.5 42.5z" />
    <glyph glyph-name="dieresis" unicode="&#xa8;" horiz-adv-x="390" 
d="M121 630q-21 0 -34.5 13.5t-13.5 33.5q0 21 13.5 34.5t34.5 13.5t34.5 -13.5t13.5 -34.5q0 -20 -13.5 -33.5t-34.5 -13.5zM269 630q-21 0 -34.5 13.5t-13.5 33.5q0 21 13.5 34.5t34.5 13.5q20 0 34 -13.5t14 -34.5q0 -20 -14 -33.5t-34 -13.5z" />
    <glyph glyph-name="copyright" unicode="&#xa9;" horiz-adv-x="796" 
d="M30 356q0 76 27 144t76.5 118.5t118 78.5t147.5 28t147.5 -28t118 -78.5t76.5 -118.5t27 -144t-27 -144t-76.5 -118.5t-118 -78.5t-147.5 -28t-147.5 28t-118 78.5t-76.5 118.5t-27 144zM92 356q0 -67 22 -125t63 -100.5t98 -65.5t124 -23t124.5 23t98.5 65.5t63 100.5
t22 125t-22 125t-63 100t-98.5 65.5t-124.5 23.5t-124 -23.5t-98 -65.5t-63 -100t-22 -125zM213 356q0 83 53 139.5t133 56.5q31 0 62 -9t58.5 -31t42 -52t17.5 -54h-62q-4 25 -21 47.5t-42.5 33t-53.5 10.5q-36 0 -63.5 -16t-44 -48.5t-16.5 -76.5t18 -79.5t47.5 -49
t58.5 -13.5q28 0 53.5 10.5t42.5 33.5t21 48h62q-3 -24 -16 -50.5t-34.5 -48t-55 -34.5t-74.5 -13q-80 0 -133 56.5t-53 139.5z" />
    <glyph glyph-name="ordfeminine" unicode="&#xaa;" horiz-adv-x="412" 
d="M170 321q-65 0 -97.5 32.5t-32.5 81.5q0 56 40 85.5t115 29.5h101v23q0 38 -21.5 59.5t-67.5 21.5q-83 0 -96 -74h-62q4 35 22.5 64.5t53 47t84.5 17.5q149 0 149 -143v-236h-59v47q-17 -27 -51.5 -41.5t-77.5 -14.5zM103 435q0 -19 9.5 -34t29 -21.5t39.5 -6.5
q58 0 86.5 33t28.5 85v7h-95q-98 0 -98 -63z" />
    <glyph glyph-name="guillemotleft" unicode="&#xab;" horiz-adv-x="500" 
d="M63 254l110 212h75l-110 -212l110 -211h-75zM252 254l109 212h76l-110 -212l110 -211h-76z" />
    <glyph glyph-name="logicalnot" unicode="&#xac;" 
d="M33 288h516v-246h-69v178h-447v68z" />
    <glyph glyph-name="registered" unicode="&#xae;" horiz-adv-x="586" 
d="M294 197q-57 0 -106 20.5t-84.5 57t-54.5 85t-19 101.5t19 101.5t54.5 85t84.5 57t106 20.5t106.5 -20.5t84.5 -57t54 -85t19 -101.5q0 -54 -19 -102t-54 -84.5t-84.5 -57t-106.5 -20.5zM294 246q95 0 153 60t58 155t-58 155t-153 60q-47 0 -86 -15.5t-66.5 -44.5
t-42.5 -68.5t-15 -86.5t15 -86.5t42.5 -68.5t66.5 -44.5t86 -15.5zM409 331h-58l-40 82l-17 -1h-44v-81h-50v259h97q52 0 80 -24.5t28 -64.5q0 -55 -46 -77zM304 543h-54v-83h54q24 0 37 11t13 30t-13.5 30.5t-36.5 11.5z" />
    <glyph glyph-name="macron" unicode="&#xaf;" horiz-adv-x="397" 
d="M359 697v-60h-321v60h321z" />
    <glyph glyph-name="degree" unicode="&#xb0;" horiz-adv-x="384" 
d="M27 562q0 24 8.5 51.5t28.5 52t52.5 42t74.5 17.5t81.5 -21.5t60.5 -61t21 -80.5q0 -68 -47 -116t-116 -48t-116.5 48t-47.5 116zM88 562q0 -33 16 -60t40.5 -37.5t46.5 -10.5q34 0 59 18t34 43.5t9 46.5q0 32 -16 59t-40 37.5t-46 10.5q-46 0 -74.5 -31t-28.5 -76z" />
    <glyph glyph-name="plusminus" unicode="&#xb1;" 
d="M257 509h69v-162h223v-69h-223v-161h-69v161h-224v69h224v162zM549 69v-69h-516v69h516z" />
    <glyph glyph-name="uni00B2" unicode="&#xb2;" horiz-adv-x="385" 
d="M341 438h-292v47l170 151q28 26 41 49t13 54q0 37 -21.5 60.5t-58.5 23.5q-40 0 -61.5 -25t-21.5 -67l1 -15h-61l-1 16q0 66 39.5 106.5t104.5 40.5q33 0 60 -10.5t45.5 -30t27.5 -45.5t9 -52q0 -32 -15 -68t-65 -79l-114 -99h200v-57z" />
    <glyph glyph-name="uni00B3" unicode="&#xb3;" horiz-adv-x="387" 
d="M139 630v52h49q41 0 62 20t21 51q0 32 -21 51t-60 19q-27 0 -46 -12.5t-26.5 -30.5t-8.5 -33h-60q5 57 43 94.5t98 37.5q34 0 60.5 -9t45 -25.5t27 -40.5t8.5 -49q0 -22 -8.5 -42.5t-23.5 -33.5t-29 -20q32 -11 50 -39t18 -60q0 -58 -40 -95t-108 -37q-65 0 -103 37.5
t-43 100.5h59q3 -37 26 -59.5t61 -22.5q37 0 61 20t24 57q0 69 -88 69h-48z" />
    <glyph glyph-name="acute" unicode="&#xb4;" horiz-adv-x="349" 
d="M168 759h77l-77 -170h-66z" />
    <glyph glyph-name="uni00B5" unicode="&#xb5;" horiz-adv-x="593" 
d="M434 208v301h71v-509h-68v74q-11 -22 -36.5 -43.5t-59.5 -32t-69 -10.5q-81 0 -123 45l2 -136v-85h-69v697h71v-311q0 -71 32.5 -109.5t98.5 -38.5q39 0 75 17t55.5 55t19.5 86z" />
    <glyph glyph-name="paragraph" unicode="&#xb6;" horiz-adv-x="613" 
d="M284 -198v471q-58 0 -103 16.5t-74 46.5t-43.5 69.5t-14.5 85.5q0 33 10.5 70t41 74t80 56t103.5 19h227v-908h-69v841h-88v-841h-70z" />
    <glyph glyph-name="periodcentered" unicode="&#xb7;" horiz-adv-x="216" 
d="M108 203q-24 0 -39.5 15t-15.5 39q0 23 15.5 38.5t39.5 15.5q23 0 39 -15.5t16 -38.5t-16 -38.5t-39 -15.5z" />
    <glyph glyph-name="cedilla" unicode="&#xb8;" horiz-adv-x="271" 
d="M48 -212l25 40q9 -8 23.5 -14t30.5 -6q24 0 39 13t15 35t-13 35t-38 13q-14 0 -26.5 -6t-18.5 -13l-31 17l42 112h45l-27 -72q10 5 29 5q41 0 66 -26t25 -64q0 -20 -10 -43t-36 -38t-60 -15q-17 0 -40.5 6t-39.5 21z" />
    <glyph glyph-name="uni00B9" unicode="&#xb9;" horiz-adv-x="275" 
d="M179 869v-432h-61v373h-91v47l106 12h46z" />
    <glyph glyph-name="ordmasculine" unicode="&#xba;" horiz-adv-x="437" 
d="M219 321q-83 0 -137 55t-54 139t54 139t137 55q51 0 96.5 -24.5t69.5 -71.5t24 -98t-24 -98t-69.5 -71.5t-96.5 -24.5zM219 651q-29 0 -58.5 -12.5t-49 -46.5t-19.5 -77t19.5 -77t49 -46.5t58.5 -12.5q28 0 57 12.5t49 46.5t20 77t-20 77t-49 46.5t-57 12.5z" />
    <glyph glyph-name="guillemotright" unicode="&#xbb;" horiz-adv-x="500" 
d="M327 466l109 -212l-109 -211h-75l110 211l-110 212h75zM139 466l109 -212l-109 -211h-76l110 211l-110 212h76z" />
    <glyph glyph-name="onequarter" unicode="&#xbc;" horiz-adv-x="786" 
d="M123 277v373h-91v47l106 12h46v-432h-61zM146 0l392 710h63l-392 -710h-63zM404 101v50l203 281h63v-276h56v-55h-56v-101h-59v101h-207zM471 156h140v194z" />
    <glyph glyph-name="onehalf" unicode="&#xbd;" horiz-adv-x="838" 
d="M123 277v373h-91v47l106 12h46v-432h-61zM146 0l392 710h63l-392 -710h-63zM485 0v47l170 151q29 25 42 48t13 54q0 37 -21 60.5t-60 23.5q-40 0 -61 -24.5t-21 -66.5l1 -16h-62l-1 17q0 66 39.5 106.5t104.5 40.5q34 0 61 -10.5t45.5 -30t27.5 -45.5t9 -52
q0 -43 -20 -78t-60 -69l-114 -99h200v-57h-293z" />
    <glyph glyph-name="threequarters" unicode="&#xbe;" horiz-adv-x="863" 
d="M60 401h60q3 -37 26 -59.5t61 -22.5q37 0 61 20.5t24 57.5q0 69 -89 69h-47v51h49q41 0 62 20t21 51q0 32 -21 51t-61 19q-36 0 -56.5 -21t-23.5 -55h-61q5 57 43 94.5t99 37.5q34 0 60.5 -9t45 -25.5t27 -40.5t8.5 -49q0 -29 -16 -55.5t-45 -39.5q32 -12 50 -40t18 -60
q0 -58 -40 -95t-108 -37q-65 0 -103.5 37.5t-43.5 100.5zM224 0l392 710h62l-392 -710h-62zM482 101v50l203 281h62v-276h56v-55h-56v-101h-58v101h-207zM548 156h141v194z" />
    <glyph glyph-name="questiondown" unicode="&#xbf;" horiz-adv-x="522" 
d="M484 -4q0 -32 -10 -67t-38.5 -71t-74.5 -54.5t-95 -18.5q-64 0 -111.5 23t-76.5 67.5t-29 107.5q0 46 19.5 89t71.5 92t62.5 59.5t20 25t14 28t4.5 28.5q0 18 -4 41h70q5 -24 5 -42q0 -20 -6 -43t-24 -49t-59 -63.5t-54.5 -53t-22.5 -30t-16 -34t-7 -44.5
q0 -63 38.5 -99.5t104.5 -36.5q65 0 104.5 41t39.5 108q0 22 -3 39h74q3 -20 3 -43zM268 518q23 0 38.5 -15t15.5 -37q0 -23 -15 -38t-39 -15q-22 0 -37.5 15t-15.5 38q0 22 15.5 37t37.5 15z" />
    <glyph glyph-name="Agrave" unicode="&#xc0;" horiz-adv-x="673" 
d="M82 0h-78l292 710h79l293 -710h-81l-67 166h-370zM336 621h-2l-158 -387h317zM230 939h78l66 -170h-66z" />
    <glyph glyph-name="Aacute" unicode="&#xc1;" horiz-adv-x="673" 
d="M82 0h-78l292 710h79l293 -710h-81l-67 166h-370zM336 621h-2l-158 -387h317zM373 940h77l-77 -170h-66z" />
    <glyph glyph-name="Acircumflex" unicode="&#xc2;" horiz-adv-x="673" 
d="M82 0h-78l292 710h79l293 -710h-81l-67 166h-370zM336 621h-2l-158 -387h317zM202 830l134 70l135 -70v-65l-135 68l-134 -68v65z" />
    <glyph glyph-name="Atilde" unicode="&#xc3;" horiz-adv-x="673" 
d="M82 0h-78l292 710h79l293 -710h-81l-67 166h-370zM336 621h-2l-158 -387h317zM399 788q-29 0 -70 20t-62 20q-35 0 -42 -36h-55q2 20 12 42.5t34 37t55 14.5q29 0 69.5 -19.5t61.5 -19.5q14 0 25.5 6.5t16.5 29.5h55q-3 -32 -19 -55t-38.5 -31.5t-42.5 -8.5z" />
    <glyph glyph-name="Adieresis" unicode="&#xc4;" horiz-adv-x="673" 
d="M82 0h-78l292 710h79l293 -710h-81l-67 166h-370zM336 621h-2l-158 -387h317zM261 767q-21 0 -34.5 13.5t-13.5 33.5q0 21 13.5 34.5t34.5 13.5t34.5 -13.5t13.5 -34.5q0 -20 -13.5 -33.5t-34.5 -13.5zM409 767q-21 0 -34.5 13.5t-13.5 33.5q0 21 13.5 34.5t34.5 13.5
q20 0 34 -13.5t14 -34.5q0 -20 -14 -33.5t-34 -13.5z" />
    <glyph glyph-name="Aring" unicode="&#xc5;" horiz-adv-x="673" 
d="M82 0h-78l292 710h79l293 -710h-81l-67 166h-370zM336 621h-2l-158 -387h317zM278 860q0 -27 16 -45t44 -18q27 0 43.5 18t16.5 45q0 26 -16.5 44.5t-43.5 18.5q-28 0 -44 -18.5t-16 -44.5zM226 860q0 21 10.5 47t38 44.5t63.5 18.5q23 0 49 -11t43.5 -38.5t17.5 -60.5
q0 -34 -17.5 -61.5t-43.5 -38.5t-49 -11t-49.5 11t-44.5 38.5t-18 61.5z" />
    <glyph glyph-name="AE" unicode="&#xc6;" horiz-adv-x="986" 
d="M63 0h-85l429 710h522v-69h-404v-246h382v-69h-382v-257h404v-69h-477v166h-289zM446 638l-244 -404h250v404h-6z" />
    <glyph glyph-name="Ccedilla" unicode="&#xc7;" horiz-adv-x="781" 
d="M52 355q0 77 25 145.5t71 118.5t111.5 78t143.5 28q129 0 219.5 -72.5t115.5 -192.5h-77q-21 90 -91 143t-167 53q-61 0 -112 -21.5t-87.5 -62t-56 -96.5t-19.5 -121t19.5 -121t56 -96.5t87.5 -62t112 -21.5q97 0 167 53t91 143h77q-9 -42 -30 -87t-65 -88t-104.5 -65.5
t-121.5 -24.5l-16 -43q10 5 29 5q41 0 66 -26t25 -64q0 -20 -10 -43t-36 -38t-60 -15q-17 0 -40.5 6t-39.5 21l25 40q9 -8 23.5 -14t30.5 -6q24 0 39 13t15 35t-13 35t-38 13q-14 0 -26.5 -6t-18.5 -13l-31 17l31 84q-71 5 -131 35t-102 79.5t-64.5 115t-22.5 139.5z" />
    <glyph glyph-name="Egrave" unicode="&#xc8;" horiz-adv-x="636" 
d="M578 69v-69h-477v710h477v-69h-404v-246h383v-69h-383v-257h404zM236 940h78l66 -170h-66z" />
    <glyph glyph-name="Eacute" unicode="&#xc9;" horiz-adv-x="636" 
d="M578 69v-69h-477v710h477v-69h-404v-246h383v-69h-383v-257h404zM366 940h77l-77 -170h-66z" />
    <glyph glyph-name="Ecircumflex" unicode="&#xca;" horiz-adv-x="636" 
d="M578 69v-69h-477v710h477v-69h-404v-246h383v-69h-383v-257h404zM210 830l134 70l135 -70v-65l-135 68l-134 -68v65z" />
    <glyph glyph-name="Edieresis" unicode="&#xcb;" horiz-adv-x="636" 
d="M578 69v-69h-477v710h477v-69h-404v-246h383v-69h-383v-257h404zM261 767q-21 0 -34.5 13.5t-13.5 33.5q0 21 13.5 34.5t34.5 13.5t34.5 -13.5t13.5 -34.5q0 -20 -13.5 -33.5t-34.5 -13.5zM409 767q-21 0 -34.5 13.5t-13.5 33.5q0 21 13.5 34.5t34.5 13.5q20 0 34 -13.5
t14 -34.5q0 -20 -14 -33.5t-34 -13.5z" />
    <glyph glyph-name="Igrave" unicode="&#xcc;" horiz-adv-x="297" 
d="M261 0h-225v61h76v588h-76v61h225v-61h-76v-588h76v-61zM39 940h78l66 -170h-66z" />
    <glyph glyph-name="Iacute" unicode="&#xcd;" horiz-adv-x="297" 
d="M261 0h-225v61h76v588h-76v61h225v-61h-76v-588h76v-61zM181 940h77l-77 -170h-66z" />
    <glyph glyph-name="Icircumflex" unicode="&#xce;" horiz-adv-x="297" 
d="M261 0h-225v61h76v588h-76v61h225v-61h-76v-588h76v-61zM13 839l134 70l135 -70v-65l-135 68l-134 -68v65z" />
    <glyph glyph-name="Idieresis" unicode="&#xcf;" horiz-adv-x="297" 
d="M261 0h-225v61h76v588h-76v61h225v-61h-76v-588h76v-61zM75 767q-21 0 -34.5 13.5t-13.5 33.5q0 21 13.5 34.5t34.5 13.5t34.5 -13.5t13.5 -34.5q0 -20 -13.5 -33.5t-34.5 -13.5zM223 767q-21 0 -34.5 13.5t-13.5 33.5q0 21 13.5 34.5t34.5 13.5q20 0 34 -13.5t14 -34.5
q0 -20 -14 -33.5t-34 -13.5z" />
    <glyph glyph-name="Eth" unicode="&#xd0;" horiz-adv-x="763" 
d="M316 0h-215v322h-82v66h82v322h215q91 0 165.5 -25t125.5 -72t77.5 -113t26.5 -145t-26.5 -145t-77.5 -113t-125.5 -72t-165.5 -25zM635 355q0 65 -20.5 118t-61 90.5t-102 57t-139.5 19.5h-138v-252h183v-66h-183v-252h138q78 0 139.5 19.5t102 57t61 90.5t20.5 118z
" />
    <glyph glyph-name="Ntilde" unicode="&#xd1;" horiz-adv-x="766" 
d="M174 593v-593h-73v710h77l414 -594v594h73v-710h-77zM453 766q-29 0 -70 20t-62 20q-35 0 -42 -36h-55q2 20 12 42.5t34 37t55 14.5q29 0 69.5 -19.5t61.5 -19.5q14 0 25.5 6.5t16.5 29.5h55q-3 -32 -19 -55t-38.5 -31.5t-42.5 -8.5z" />
    <glyph glyph-name="Ograve" unicode="&#xd2;" horiz-adv-x="828" 
d="M128 355q0 -65 21.5 -121t60 -96t91.5 -62t113 -22t113 22t91.5 62t60 96t21.5 121t-21.5 121t-60 96t-91.5 62t-113 22t-113 -22t-91.5 -62t-60 -96t-21.5 -121zM776 355q0 -76 -26 -144t-74 -118.5t-115.5 -79t-146.5 -28.5t-146.5 28.5t-115.5 79t-74 118.5t-26 144
t26 144t74 118.5t115.5 79t146.5 28.5t146.5 -28.5t115.5 -79t74 -118.5t26 -144zM308 940h78l66 -170h-66z" />
    <glyph glyph-name="Oacute" unicode="&#xd3;" horiz-adv-x="828" 
d="M128 355q0 -65 21.5 -121t60 -96t91.5 -62t113 -22t113 22t91.5 62t60 96t21.5 121t-21.5 121t-60 96t-91.5 62t-113 22t-113 -22t-91.5 -62t-60 -96t-21.5 -121zM776 355q0 -76 -26 -144t-74 -118.5t-115.5 -79t-146.5 -28.5t-146.5 28.5t-115.5 79t-74 118.5t-26 144
t26 144t74 118.5t115.5 79t146.5 28.5t146.5 -28.5t115.5 -79t74 -118.5t26 -144zM444 940h77l-77 -170h-66z" />
    <glyph glyph-name="Ocircumflex" unicode="&#xd4;" horiz-adv-x="828" 
d="M128 355q0 -65 21.5 -121t60 -96t91.5 -62t113 -22t113 22t91.5 62t60 96t21.5 121t-21.5 121t-60 96t-91.5 62t-113 22t-113 -22t-91.5 -62t-60 -96t-21.5 -121zM776 355q0 -76 -26 -144t-74 -118.5t-115.5 -79t-146.5 -28.5t-146.5 28.5t-115.5 79t-74 118.5t-26 144
t26 144t74 118.5t115.5 79t146.5 28.5t146.5 -28.5t115.5 -79t74 -118.5t26 -144zM278 846l134 70l135 -70v-65l-135 68l-134 -68v65z" />
    <glyph glyph-name="Otilde" unicode="&#xd5;" horiz-adv-x="828" 
d="M128 355q0 -65 21.5 -121t60 -96t91.5 -62t113 -22t113 22t91.5 62t60 96t21.5 121t-21.5 121t-60 96t-91.5 62t-113 22t-113 -22t-91.5 -62t-60 -96t-21.5 -121zM776 355q0 -76 -26 -144t-74 -118.5t-115.5 -79t-146.5 -28.5t-146.5 28.5t-115.5 79t-74 118.5t-26 144
t26 144t74 118.5t115.5 79t146.5 28.5t146.5 -28.5t115.5 -79t74 -118.5t26 -144zM479 788q-29 0 -70 20t-62 20q-35 0 -42 -36h-55q2 20 12 42.5t34 37t55 14.5q29 0 69.5 -19.5t61.5 -19.5q14 0 25.5 6.5t16.5 29.5h55q-3 -32 -19 -55t-38.5 -31.5t-42.5 -8.5z" />
    <glyph glyph-name="Odieresis" unicode="&#xd6;" horiz-adv-x="828" 
d="M128 355q0 -65 21.5 -121t60 -96t91.5 -62t113 -22t113 22t91.5 62t60 96t21.5 121t-21.5 121t-60 96t-91.5 62t-113 22t-113 -22t-91.5 -62t-60 -96t-21.5 -121zM776 355q0 -76 -26 -144t-74 -118.5t-115.5 -79t-146.5 -28.5t-146.5 28.5t-115.5 79t-74 118.5t-26 144
t26 144t74 118.5t115.5 79t146.5 28.5t146.5 -28.5t115.5 -79t74 -118.5t26 -144zM343 787q-21 0 -34.5 13.5t-13.5 33.5q0 21 13.5 34.5t34.5 13.5t34.5 -13.5t13.5 -34.5q0 -20 -13.5 -33.5t-34.5 -13.5zM491 787q-21 0 -34.5 13.5t-13.5 33.5q0 21 13.5 34.5t34.5 13.5
q20 0 34 -13.5t14 -34.5q0 -20 -14 -33.5t-34 -13.5z" />
    <glyph glyph-name="multiply" unicode="&#xd7;" 
d="M64 433l49 48l178 -178l177 177l49 -48l-178 -178l178 -177l-49 -49l-177 178l-178 -178l-49 48l178 178z" />
    <glyph glyph-name="Oslash" unicode="&#xd8;" horiz-adv-x="828" 
d="M776 355q0 -76 -26 -144t-74 -118.5t-115.5 -79t-146.5 -28.5q-63 0 -120 18t-100 51l-77 -92l-39 33l77 93q-49 50 -76 119.5t-27 147.5q0 76 26 144t74 118.5t115.5 79t146.5 28.5q122 0 215 -67l75 90l39 -35l-74 -89q50 -50 78.5 -120.5t28.5 -148.5zM699 355
q0 63 -20.5 118.5t-57.5 94.5l-380 -459q73 -56 173 -56q75 0 137.5 34t96.5 88.5t42.5 101.5t8.5 78zM128 355q0 -62 20 -116.5t55 -93.5l379 458q-72 53 -168 53q-60 0 -113 -22t-91.5 -62t-60 -96t-21.5 -121z" />
    <glyph glyph-name="Ugrave" unicode="&#xd9;" horiz-adv-x="734" 
d="M367 -15q-62 0 -114 19.5t-89.5 58t-58 97t-20.5 133.5v417h73v-424q0 -107 55 -170.5t154 -63.5t154 63.5t55 170.5v424h73v-417q0 -75 -20.5 -133.5t-58 -97t-90 -58t-113.5 -19.5zM257 940h78l66 -170h-66z" />
    <glyph glyph-name="Uacute" unicode="&#xda;" horiz-adv-x="734" 
d="M367 -15q-62 0 -114 19.5t-89.5 58t-58 97t-20.5 133.5v417h73v-424q0 -107 55 -170.5t154 -63.5t154 63.5t55 170.5v424h73v-417q0 -75 -20.5 -133.5t-58 -97t-90 -58t-113.5 -19.5zM390 941h77l-77 -170h-66z" />
    <glyph glyph-name="Ucircumflex" unicode="&#xdb;" horiz-adv-x="734" 
d="M367 -15q-62 0 -114 19.5t-89.5 58t-58 97t-20.5 133.5v417h73v-424q0 -107 55 -170.5t154 -63.5t154 63.5t55 170.5v424h73v-417q0 -75 -20.5 -133.5t-58 -97t-90 -58t-113.5 -19.5zM231 839l134 70l135 -70v-65l-135 68l-134 -68v65z" />
    <glyph glyph-name="Udieresis" unicode="&#xdc;" horiz-adv-x="734" 
d="M367 -15q-62 0 -114 19.5t-89.5 58t-58 97t-20.5 133.5v417h73v-424q0 -107 55 -170.5t154 -63.5t154 63.5t55 170.5v424h73v-417q0 -75 -20.5 -133.5t-58 -97t-90 -58t-113.5 -19.5zM293 767q-21 0 -34.5 13.5t-13.5 33.5q0 21 13.5 34.5t34.5 13.5t34.5 -13.5
t13.5 -34.5q0 -20 -13.5 -33.5t-34.5 -13.5zM441 767q-21 0 -34.5 13.5t-13.5 33.5q0 21 13.5 34.5t34.5 13.5q20 0 34 -13.5t14 -34.5q0 -20 -14 -33.5t-34 -13.5z" />
    <glyph glyph-name="Yacute" unicode="&#xdd;" horiz-adv-x="615" 
d="M530 710h85l-271 -458v-252h-73v252l-271 458h82l225 -381h2zM337 940h77l-77 -170h-66z" />
    <glyph glyph-name="Thorn" unicode="&#xde;" horiz-adv-x="644" 
d="M174 195v-195h-73v710h73v-105h203q74 0 124 -24t77.5 -69t27.5 -112q0 -43 -13.5 -80.5t-41 -65.5t-72 -43.5t-102.5 -15.5h-203zM174 264h206q75 0 113 35.5t38 100.5t-38 100.5t-113 35.5h-206v-272z" />
    <glyph glyph-name="germandbls" unicode="&#xdf;" horiz-adv-x="612" 
d="M562 149q0 -73 -48 -116.5t-123 -43.5q-34 0 -66.5 9t-61 32.5t-41 55.5t-13.5 57h70q2 -28 19 -51t42.5 -32t49.5 -9q47 0 74 26t27 71q0 19 -10 41t-43 48l-26 21q-30 23 -46 47.5t-16 59.5q0 37 30 90l9 15q22 40 22 73q0 25 -11 51.5t-41 43t-72 16.5q-63 0 -96 -40
t-33 -111v-503h-71v496q0 104 54 163.5t147 59.5q32 0 65.5 -8.5t61.5 -29.5t46.5 -55t18.5 -81q0 -24 -6.5 -48t-27.5 -59l-8 -14q-19 -34 -19 -55q0 -13 5.5 -25t33.5 -35l25 -21q79 -66 79 -139z" />
    <glyph glyph-name="agrave" unicode="&#xe0;" horiz-adv-x="576" 
d="M422 242q-105 0 -168 -4t-91 -19q-19 -11 -30 -30t-11 -44q0 -49 30 -73.5t86 -24.5q88 0 136 40t48 107v48zM230 -12q-55 0 -93.5 17.5t-61.5 52t-23 85.5q0 45 24.5 81.5t67.5 53.5q27 11 75.5 17t202.5 6v33q0 126 -144 126q-58 0 -96 -25t-48 -76h-69q8 54 35.5 89.5
t72.5 54t108 18.5q106 0 159 -50t53 -138v-333h-68v74q-26 -42 -77.5 -64t-117.5 -22zM182 759h78l66 -170h-66z" />
    <glyph glyph-name="aacute" unicode="&#xe1;" horiz-adv-x="576" 
d="M422 242q-105 0 -168 -4t-91 -19q-19 -11 -30 -30t-11 -44q0 -49 30 -73.5t86 -24.5q88 0 136 40t48 107v48zM230 -12q-55 0 -93.5 17.5t-61.5 52t-23 85.5q0 45 24.5 81.5t67.5 53.5q27 11 75.5 17t202.5 6v33q0 126 -144 126q-58 0 -96 -25t-48 -76h-69q8 54 35.5 89.5
t72.5 54t108 18.5q106 0 159 -50t53 -138v-333h-68v74q-26 -42 -77.5 -64t-117.5 -22zM302 759h77l-77 -170h-66z" />
    <glyph glyph-name="acircumflex" unicode="&#xe2;" horiz-adv-x="576" 
d="M422 242q-105 0 -168 -4t-91 -19q-19 -11 -30 -30t-11 -44q0 -49 30 -73.5t86 -24.5q88 0 136 40t48 107v48zM230 -12q-55 0 -93.5 17.5t-61.5 52t-23 85.5q0 45 24.5 81.5t67.5 53.5q27 11 75.5 17t202.5 6v33q0 126 -144 126q-58 0 -96 -25t-48 -76h-69q8 54 35.5 89.5
t72.5 54t108 18.5q106 0 159 -50t53 -138v-333h-68v74q-26 -42 -77.5 -64t-117.5 -22zM142 664l134 70l135 -70v-65l-135 68l-134 -68v65z" />
    <glyph glyph-name="atilde" unicode="&#xe3;" horiz-adv-x="576" 
d="M422 242q-105 0 -168 -4t-91 -19q-19 -11 -30 -30t-11 -44q0 -49 30 -73.5t86 -24.5q88 0 136 40t48 107v48zM230 -12q-55 0 -93.5 17.5t-61.5 52t-23 85.5q0 45 24.5 81.5t67.5 53.5q27 11 75.5 17t202.5 6v33q0 126 -144 126q-58 0 -96 -25t-48 -76h-69q8 54 35.5 89.5
t72.5 54t108 18.5q106 0 159 -50t53 -138v-333h-68v74q-26 -42 -77.5 -64t-117.5 -22zM341 622q-29 0 -70 20t-62 20q-35 0 -42 -36h-55q2 20 12 42.5t34 37t55 14.5q29 0 69.5 -19.5t61.5 -19.5q14 0 25.5 6.5t16.5 29.5h55q-3 -32 -19 -55t-38.5 -31.5t-42.5 -8.5z" />
    <glyph glyph-name="adieresis" unicode="&#xe4;" horiz-adv-x="576" 
d="M422 242q-105 0 -168 -4t-91 -19q-19 -11 -30 -30t-11 -44q0 -49 30 -73.5t86 -24.5q88 0 136 40t48 107v48zM230 -12q-55 0 -93.5 17.5t-61.5 52t-23 85.5q0 45 24.5 81.5t67.5 53.5q27 11 75.5 17t202.5 6v33q0 126 -144 126q-58 0 -96 -25t-48 -76h-69q8 54 35.5 89.5
t72.5 54t108 18.5q106 0 159 -50t53 -138v-333h-68v74q-26 -42 -77.5 -64t-117.5 -22zM202 630q-21 0 -34.5 13.5t-13.5 33.5q0 21 13.5 34.5t34.5 13.5t34.5 -13.5t13.5 -34.5q0 -20 -13.5 -33.5t-34.5 -13.5zM350 630q-21 0 -34.5 13.5t-13.5 33.5q0 21 13.5 34.5
t34.5 13.5q20 0 34 -13.5t14 -34.5q0 -20 -14 -33.5t-34 -13.5z" />
    <glyph glyph-name="aring" unicode="&#xe5;" horiz-adv-x="576" 
d="M422 242q-105 0 -168 -4t-91 -19q-19 -11 -30 -30t-11 -44q0 -49 30 -73.5t86 -24.5q88 0 136 40t48 107v48zM230 -12q-55 0 -93.5 17.5t-61.5 52t-23 85.5q0 45 24.5 81.5t67.5 53.5q27 11 75.5 17t202.5 6v33q0 126 -144 126q-58 0 -96 -25t-48 -76h-69q8 54 35.5 89.5
t72.5 54t108 18.5q106 0 159 -50t53 -138v-333h-68v74q-26 -42 -77.5 -64t-117.5 -22zM216 695q0 -27 16 -45t44 -18q27 0 43.5 18t16.5 45q0 26 -16.5 44.5t-43.5 18.5q-28 0 -44 -18.5t-16 -44.5zM164 695q0 21 10.5 47t38 44.5t63.5 18.5q23 0 49 -11t43.5 -38.5
t17.5 -60.5q0 -34 -17.5 -61.5t-43.5 -38.5t-49 -11t-49.5 11t-44.5 38.5t-18 61.5z" />
    <glyph glyph-name="ae" unicode="&#xe6;" horiz-adv-x="965" 
d="M52 140q0 74 53.5 113t158.5 39h159v39q0 129 -145 129q-58 0 -96 -25t-48 -76h-69q8 54 35.5 89.5t72.5 54t108 18.5q75 0 123 -28.5t69 -77.5q32 48 84 77t115 29q54 0 100 -20t78.5 -56t49.5 -83.5t17 -100.5l-1 -27h-423q5 -79 53.5 -130.5t126.5 -51.5q27 0 60 10
t60.5 36.5t40.5 60.5h74q-24 -76 -86.5 -123.5t-149.5 -47.5q-73 0 -129 34.5t-86 90.5q-12 -27 -39.5 -57t-76.5 -49t-107 -19q-88 0 -135 41t-47 111zM672 457q-72 0 -120 -46.5t-57 -118.5h351q-8 74 -54 119.5t-120 45.5zM122 140q0 -49 34.5 -71t83.5 -22q32 0 65 9
t58.5 29t42 50t16.5 67v31h-159q-72 0 -106.5 -22t-34.5 -71z" />
    <glyph glyph-name="ccedilla" unicode="&#xe7;" horiz-adv-x="577" 
d="M234 -211l25 39q8 -8 23 -14t31 -6q23 0 38 13t15 35t-12.5 35t-38.5 13q-14 0 -26 -6t-18 -13l-31 18l32 86q-37 4 -76 20.5t-75.5 54.5t-54 90t-17.5 100q0 52 17.5 100.5t50.5 86t80 59t103 21.5q49 0 85.5 -13.5t65 -35t53 -58.5t34.5 -86h-72q-16 59 -59.5 94
t-106.5 35q-79 0 -129 -57t-50 -146q0 -88 50 -145t129 -57q63 0 106.5 35t59.5 94h72q-12 -57 -43.5 -99t-76 -66t-102.5 -27l-17 -48q10 5 30 5q40 0 64.5 -25.5t24.5 -63.5q0 -41 -29.5 -68t-75.5 -27q-25 0 -46.5 8t-32.5 19z" />
    <glyph glyph-name="egrave" unicode="&#xe8;" horiz-adv-x="593" 
d="M543 234h-423q4 -58 30 -99t64.5 -62t86.5 -21q27 0 59.5 10t60.5 36.5t40 60.5h74q-23 -76 -85.5 -123.5t-149.5 -47.5q-58 0 -105.5 21t-79.5 58t-49 86t-17 102q0 52 17.5 100.5t50.5 85.5t80 58.5t102 21.5t101 -20t78 -55.5t49 -83.5t17 -101zM299 457
q-72 0 -120 -46.5t-57 -118.5h351q-7 74 -53.5 119.5t-120.5 45.5zM199 759h78l66 -170h-66z" />
    <glyph glyph-name="eacute" unicode="&#xe9;" horiz-adv-x="593" 
d="M543 234h-423q4 -58 30 -99t64.5 -62t86.5 -21q27 0 59.5 10t60.5 36.5t40 60.5h74q-23 -76 -85.5 -123.5t-149.5 -47.5q-58 0 -105.5 21t-79.5 58t-49 86t-17 102q0 52 17.5 100.5t50.5 85.5t80 58.5t102 21.5t101 -20t78 -55.5t49 -83.5t17 -101zM299 457
q-72 0 -120 -46.5t-57 -118.5h351q-7 74 -53.5 119.5t-120.5 45.5zM331 759h77l-77 -170h-66z" />
    <glyph glyph-name="ecircumflex" unicode="&#xea;" horiz-adv-x="593" 
d="M543 234h-423q4 -58 30 -99t64.5 -62t86.5 -21q27 0 59.5 10t60.5 36.5t40 60.5h74q-23 -76 -85.5 -123.5t-149.5 -47.5q-58 0 -105.5 21t-79.5 58t-49 86t-17 102q0 52 17.5 100.5t50.5 85.5t80 58.5t102 21.5t101 -20t78 -55.5t49 -83.5t17 -101zM299 457
q-72 0 -120 -46.5t-57 -118.5h351q-7 74 -53.5 119.5t-120.5 45.5zM171 664l134 70l135 -70v-65l-135 68l-134 -68v65z" />
    <glyph glyph-name="edieresis" unicode="&#xeb;" horiz-adv-x="593" 
d="M543 234h-423q4 -58 30 -99t64.5 -62t86.5 -21q27 0 59.5 10t60.5 36.5t40 60.5h74q-23 -76 -85.5 -123.5t-149.5 -47.5q-58 0 -105.5 21t-79.5 58t-49 86t-17 102q0 52 17.5 100.5t50.5 85.5t80 58.5t102 21.5t101 -20t78 -55.5t49 -83.5t17 -101zM299 457
q-72 0 -120 -46.5t-57 -118.5h351q-7 74 -53.5 119.5t-120.5 45.5zM226 630q-21 0 -34.5 13.5t-13.5 33.5q0 21 13.5 34.5t34.5 13.5t34.5 -13.5t13.5 -34.5q0 -20 -13.5 -33.5t-34.5 -13.5zM374 630q-21 0 -34.5 13.5t-13.5 33.5q0 21 13.5 34.5t34.5 13.5q20 0 34 -13.5
t14 -34.5q0 -20 -14 -33.5t-34 -13.5z" />
    <glyph glyph-name="igrave" unicode="&#xec;" horiz-adv-x="265" 
d="M27 759h78l66 -170h-66zM22 449v60h155v-509h-71v449h-84z" />
    <glyph glyph-name="iacute" unicode="&#xed;" horiz-adv-x="265" 
d="M165 759h77l-77 -170h-66zM22 449v60h155v-509h-71v449h-84z" />
    <glyph glyph-name="icircumflex" unicode="&#xee;" horiz-adv-x="265" 
d="M22 449v60h155v-509h-71v449h-84zM-11 664l134 70l135 -70v-65l-135 68l-134 -68v65z" />
    <glyph glyph-name="idieresis" unicode="&#xef;" horiz-adv-x="265" 
d="M49 630q-21 0 -34.5 13.5t-13.5 33.5q0 21 13.5 34.5t34.5 13.5t34.5 -13.5t13.5 -34.5q0 -20 -13.5 -33.5t-34.5 -13.5zM197 630q-21 0 -34.5 13.5t-13.5 33.5q0 21 13.5 34.5t34.5 13.5q20 0 34 -13.5t14 -34.5q0 -20 -14 -33.5t-34 -13.5zM22 449v60h155v-509h-71v449
h-84z" />
    <glyph glyph-name="eth" unicode="&#xf0;" horiz-adv-x="614" 
d="M205 581l-24 41l112 56q-36 25 -95 56l40 43q60 -31 113 -70l109 55l25 -42l-95 -47q84 -77 129 -179t45 -224q0 -57 -18 -108.5t-52 -90.5t-82.5 -61t-105.5 -22t-105.5 21.5t-82 58.5t-51.5 85.5t-18 100.5t17.5 100.5t50.5 86t80.5 59t103.5 21.5q55 0 102.5 -23.5
t71.5 -56.5q-48 122 -141 204zM121 254q0 -30 8.5 -64t33.5 -68.5t63.5 -52t79.5 -17.5q31 0 63 10.5t59.5 35.5t45.5 64.5t18 91.5q0 31 -8.5 65.5t-33.5 68.5t-64 51.5t-80 17.5q-30 0 -62.5 -10.5t-59.5 -35.5t-45 -64.5t-18 -92.5z" />
    <glyph glyph-name="ntilde" unicode="&#xf1;" horiz-adv-x="598" 
d="M155 509v-78q12 23 36 43.5t56.5 33.5t75.5 13q46 0 82.5 -14.5t61 -41t37 -62.5t12.5 -78v-325h-71v311q0 70 -33.5 109t-100.5 39q-49 0 -83.5 -21t-52 -55t-17.5 -80v-303h-71v509h68zM363 622q-29 0 -70 20t-62 20q-35 0 -42 -36h-55q2 20 12 42.5t34 37t55 14.5
q29 0 69.5 -19.5t61.5 -19.5q14 0 25.5 6.5t16.5 29.5h55q-3 -32 -19 -55t-38.5 -31.5t-42.5 -8.5z" />
    <glyph glyph-name="ograve" unicode="&#xf2;" horiz-adv-x="617" 
d="M308 -12q-57 0 -106 21.5t-83 58.5t-52 85.5t-18 100.5t18 100.5t52 86t83 59t106 21.5q58 0 106.5 -21.5t83 -59t52.5 -86t18 -100.5t-18 -100.5t-52.5 -85.5t-83 -58.5t-106.5 -21.5zM121 254q0 -53 23 -101.5t68 -74.5t96 -26q52 0 97 26t68 74.5t23 101.5t-23 102
t-68 75t-97 26q-51 0 -96 -26t-68 -75t-23 -102zM210 759h78l66 -170h-66z" />
    <glyph glyph-name="oacute" unicode="&#xf3;" horiz-adv-x="617" 
d="M308 -12q-57 0 -106 21.5t-83 58.5t-52 85.5t-18 100.5t18 100.5t52 86t83 59t106 21.5q58 0 106.5 -21.5t83 -59t52.5 -86t18 -100.5t-18 -100.5t-52.5 -85.5t-83 -58.5t-106.5 -21.5zM121 254q0 -53 23 -101.5t68 -74.5t96 -26q52 0 97 26t68 74.5t23 101.5t-23 102
t-68 75t-97 26q-51 0 -96 -26t-68 -75t-23 -102zM344 759h77l-77 -170h-66z" />
    <glyph glyph-name="ocircumflex" unicode="&#xf4;" horiz-adv-x="617" 
d="M308 -12q-57 0 -106 21.5t-83 58.5t-52 85.5t-18 100.5t18 100.5t52 86t83 59t106 21.5q58 0 106.5 -21.5t83 -59t52.5 -86t18 -100.5t-18 -100.5t-52.5 -85.5t-83 -58.5t-106.5 -21.5zM121 254q0 -53 23 -101.5t68 -74.5t96 -26q52 0 97 26t68 74.5t23 101.5t-23 102
t-68 75t-97 26q-51 0 -96 -26t-68 -75t-23 -102zM184 664l134 70l135 -70v-65l-135 68l-134 -68v65z" />
    <glyph glyph-name="otilde" unicode="&#xf5;" horiz-adv-x="617" 
d="M308 -12q-57 0 -106 21.5t-83 58.5t-52 85.5t-18 100.5t18 100.5t52 86t83 59t106 21.5q58 0 106.5 -21.5t83 -59t52.5 -86t18 -100.5t-18 -100.5t-52.5 -85.5t-83 -58.5t-106.5 -21.5zM121 254q0 -53 23 -101.5t68 -74.5t96 -26q52 0 97 26t68 74.5t23 101.5t-23 102
t-68 75t-97 26q-51 0 -96 -26t-68 -75t-23 -102zM372 622q-29 0 -70 20t-62 20q-35 0 -42 -36h-55q2 20 12 42.5t34 37t55 14.5q29 0 69.5 -19.5t61.5 -19.5q14 0 25.5 6.5t16.5 29.5h55q-3 -32 -19 -55t-38.5 -31.5t-42.5 -8.5z" />
    <glyph glyph-name="odieresis" unicode="&#xf6;" horiz-adv-x="617" 
d="M308 -12q-57 0 -106 21.5t-83 58.5t-52 85.5t-18 100.5t18 100.5t52 86t83 59t106 21.5q58 0 106.5 -21.5t83 -59t52.5 -86t18 -100.5t-18 -100.5t-52.5 -85.5t-83 -58.5t-106.5 -21.5zM121 254q0 -53 23 -101.5t68 -74.5t96 -26q52 0 97 26t68 74.5t23 101.5t-23 102
t-68 75t-97 26q-51 0 -96 -26t-68 -75t-23 -102zM234 630q-21 0 -34.5 13.5t-13.5 33.5q0 21 13.5 34.5t34.5 13.5t34.5 -13.5t13.5 -34.5q0 -20 -13.5 -33.5t-34.5 -13.5zM382 630q-21 0 -34.5 13.5t-13.5 33.5q0 21 13.5 34.5t34.5 13.5q20 0 34 -13.5t14 -34.5
q0 -20 -14 -33.5t-34 -13.5z" />
    <glyph glyph-name="divide" unicode="&#xf7;" 
d="M291 37q-23 0 -37.5 14.5t-14.5 36.5q0 23 14.5 37.5t37.5 14.5q22 0 37 -14.5t15 -37.5q0 -22 -15 -36.5t-37 -14.5zM291 368q-23 0 -37.5 15t-14.5 37t14.5 37t37.5 15q22 0 37 -15t15 -37t-15 -37t-37 -15zM549 288v-68h-516v68h516z" />
    <glyph glyph-name="oslash" unicode="&#xf8;" horiz-adv-x="617" 
d="M308 -12q-86 0 -151 46l-53 -63l-35 30l54 63q-35 36 -54.5 86t-19.5 104q0 52 18 100.5t52 86t83 59t106 21.5q89 0 155 -50l63 75l35 -30l-63 -75q33 -36 51.5 -85.5t18.5 -101.5t-18 -100.5t-52.5 -85.5t-83 -58.5t-106.5 -21.5zM496 254q0 38 -11.5 73t-31.5 60
l-253 -303q22 -14 50.5 -23t57.5 -9q52 0 97 26t68 74.5t23 101.5zM121 254q0 -83 46 -137l253 304q-21 16 -51 26t-61 10q-51 0 -96 -26t-68 -75t-23 -102z" />
    <glyph glyph-name="ugrave" unicode="&#xf9;" horiz-adv-x="593" 
d="M434 208v301h71v-509h-68v74q-11 -22 -36.5 -43.5t-59.5 -32t-69 -10.5q-91 0 -140.5 54t-49.5 141v326h71v-311q0 -71 32.5 -109.5t98.5 -38.5q39 0 75 17t55.5 55t19.5 86zM181 759h78l66 -170h-66z" />
    <glyph glyph-name="uacute" unicode="&#xfa;" horiz-adv-x="593" 
d="M434 208v301h71v-509h-68v74q-11 -22 -36.5 -43.5t-59.5 -32t-69 -10.5q-91 0 -140.5 54t-49.5 141v326h71v-311q0 -71 32.5 -109.5t98.5 -38.5q39 0 75 17t55.5 55t19.5 86zM317 759h77l-77 -170h-66z" />
    <glyph glyph-name="ucircumflex" unicode="&#xfb;" horiz-adv-x="593" 
d="M434 208v301h71v-509h-68v74q-11 -22 -36.5 -43.5t-59.5 -32t-69 -10.5q-91 0 -140.5 54t-49.5 141v326h71v-311q0 -71 32.5 -109.5t98.5 -38.5q39 0 75 17t55.5 55t19.5 86zM153 664l134 70l135 -70v-65l-135 68l-134 -68v65z" />
    <glyph glyph-name="udieresis" unicode="&#xfc;" horiz-adv-x="593" 
d="M434 208v301h71v-509h-68v74q-11 -22 -36.5 -43.5t-59.5 -32t-69 -10.5q-91 0 -140.5 54t-49.5 141v326h71v-311q0 -71 32.5 -109.5t98.5 -38.5q39 0 75 17t55.5 55t19.5 86zM212 630q-21 0 -34.5 13.5t-13.5 33.5q0 21 13.5 34.5t34.5 13.5t34.5 -13.5t13.5 -34.5
q0 -20 -13.5 -33.5t-34.5 -13.5zM360 630q-21 0 -34.5 13.5t-13.5 33.5q0 21 13.5 34.5t34.5 13.5q20 0 34 -13.5t14 -34.5q0 -20 -14 -33.5t-34 -13.5z" />
    <glyph glyph-name="yacute" unicode="&#xfd;" horiz-adv-x="532" 
d="M142 -208l87 208l-213 509h77l173 -427l175 427h75l-302 -717h-72zM300 759h77l-77 -170h-66z" />
    <glyph glyph-name="thorn" unicode="&#xfe;" horiz-adv-x="637" 
d="M158 89v-297h-71v957h71v-329q27 47 75.5 74t113.5 27q56 0 101.5 -21t76.5 -58.5t46.5 -86t15.5 -101.5q0 -52 -15.5 -100.5t-46.5 -85.5t-76.5 -58.5t-101.5 -21.5q-66 0 -114 27t-75 74zM157 256q0 -42 11.5 -79.5t34 -65.5t56 -43.5t75.5 -15.5q52 0 91.5 24
t64.5 69.5t25 108.5q0 53 -21.5 102t-64.5 75.5t-95 26.5q-51 0 -89.5 -23.5t-63 -69t-24.5 -109.5z" />
    <glyph glyph-name="ydieresis" unicode="&#xff;" horiz-adv-x="532" 
d="M142 -208l87 208l-213 509h77l173 -427l175 427h75l-302 -717h-72zM193 630q-21 0 -34.5 13.5t-13.5 33.5q0 21 13.5 34.5t34.5 13.5t34.5 -13.5t13.5 -34.5q0 -20 -13.5 -33.5t-34.5 -13.5zM341 630q-21 0 -34.5 13.5t-13.5 33.5q0 21 13.5 34.5t34.5 13.5
q20 0 34 -13.5t14 -34.5q0 -20 -14 -33.5t-34 -13.5z" />
    <glyph glyph-name="Amacron" unicode="&#x100;" horiz-adv-x="673" 
d="M82 0h-78l292 710h79l293 -710h-81l-67 166h-370zM336 621h-2l-158 -387h317zM496 830v-60h-321v60h321z" />
    <glyph glyph-name="amacron" unicode="&#x101;" horiz-adv-x="577" 
d="M422 242q-105 0 -168 -4t-91 -19q-19 -11 -30 -30t-11 -44q0 -49 30 -73.5t86 -24.5q88 0 136 40t48 107v48zM230 -12q-55 0 -93.5 17.5t-61.5 52t-23 85.5q0 45 24.5 81.5t67.5 53.5q27 11 75.5 17t202.5 6v33q0 126 -144 126q-58 0 -96 -25t-48 -76h-69q8 54 35.5 89.5
t72.5 54t108 18.5q106 0 159 -50t53 -138v-333h-68v74q-26 -42 -77.5 -64t-117.5 -22zM443 697v-60h-321v60h321z" />
    <glyph glyph-name="Abreve" unicode="&#x102;" horiz-adv-x="673" 
d="M82 0h-78l292 710h79l293 -710h-81l-67 166h-370zM336 621h-2l-158 -387h317zM336 817q36 0 58 20.5t22 56.5h57q0 -22 -6.5 -45t-24.5 -44t-47.5 -31t-58.5 -10t-55.5 9t-44.5 25.5t-28 41t-10 54.5h58q0 -36 22 -56.5t58 -20.5z" />
    <glyph glyph-name="abreve" unicode="&#x103;" horiz-adv-x="577" 
d="M422 242q-105 0 -168 -4t-91 -19q-19 -11 -30 -30t-11 -44q0 -49 30 -73.5t86 -24.5q88 0 136 40t48 107v48zM230 -12q-55 0 -93.5 17.5t-61.5 52t-23 85.5q0 45 24.5 81.5t67.5 53.5q27 11 75.5 17t202.5 6v33q0 126 -144 126q-58 0 -96 -25t-48 -76h-69q8 54 35.5 89.5
t72.5 54t108 18.5q106 0 159 -50t53 -138v-333h-68v74q-26 -42 -77.5 -64t-117.5 -22zM276 648q36 0 58 20.5t22 56.5h57q0 -22 -6.5 -45t-24.5 -44t-47.5 -31t-58.5 -10t-55.5 9t-44.5 25.5t-28 41t-10 54.5h58q0 -36 22 -56.5t58 -20.5z" />
    <glyph glyph-name="Aogonek" unicode="&#x104;" horiz-adv-x="673" 
d="M669 -128l26 -41q-20 -18 -39 -26.5t-45 -8.5q-46 0 -71 30.5t-25 72.5q0 35 16.5 67.5t47.5 54.5l-59 145h-370l-68 -166h-78l292 710h79l293 -710h-24q-35 -16 -53 -42.5t-18 -55.5q0 -23 12.5 -38.5t35.5 -15.5q14 0 25 6t23 18zM336 621h-2l-158 -387h317z" />
    <glyph glyph-name="aogonek" unicode="&#x105;" horiz-adv-x="577" 
d="M508 -127l26 -41q-20 -18 -39 -26.5t-45 -8.5q-46 0 -71 30.5t-25 72.5q0 37 18 70.5t53 55.5v48q-26 -42 -77.5 -64t-117.5 -22q-55 0 -93.5 17.5t-61.5 52t-23 85.5q0 45 24.5 81.5t67.5 53.5q27 11 75.5 17t202.5 6v33q0 126 -144 126q-58 0 -96 -25t-48 -76h-69
q8 54 35.5 89.5t72.5 54t108 18.5q106 0 159 -50t53 -138v-333h-12q-16 -8 -33 -21.5t-26.5 -34t-9.5 -41.5q0 -23 12.5 -38.5t35.5 -15.5q14 0 25 6t23 18zM422 242q-105 0 -168 -4t-91 -19q-19 -11 -30 -30t-11 -44q0 -49 30 -73.5t86 -24.5q88 0 136 40t48 107v48z" />
    <glyph glyph-name="Cacute" unicode="&#x106;" horiz-adv-x="781" 
d="M52 355q0 77 25 145.5t71 118.5t111.5 78t143.5 28q129 0 219.5 -72.5t115.5 -192.5h-77q-21 90 -91 143t-167 53q-61 0 -112 -21.5t-87.5 -62t-56 -96.5t-19.5 -121t19.5 -121t56 -96.5t87.5 -62t112 -21.5q97 0 167 53t91 143h77q-25 -120 -115.5 -192.5t-219.5 -72.5
q-78 0 -143.5 28t-111.5 78t-71 118.5t-25 145.5zM431 940h77l-77 -170h-66z" />
    <glyph glyph-name="cacute" unicode="&#x107;" horiz-adv-x="577" 
d="M49 254q0 52 17.5 100.5t50.5 86t80 59t103 21.5q49 0 85.5 -13.5t65 -35t53 -58.5t34.5 -86h-72q-16 59 -59.5 94t-106.5 35q-79 0 -129 -57t-50 -146q0 -88 50 -145t129 -57q63 0 106.5 35t59.5 94h72q-8 -38 -27 -73t-49 -62t-71.5 -42.5t-90.5 -15.5q-56 0 -103 21.5
t-80 59t-50.5 86t-17.5 99.5zM324 759h77l-77 -170h-66z" />
    <glyph glyph-name="Ccircumflex" unicode="&#x108;" horiz-adv-x="781" 
d="M52 355q0 77 25 145.5t71 118.5t111.5 78t143.5 28q129 0 219.5 -72.5t115.5 -192.5h-77q-21 90 -91 143t-167 53q-61 0 -112 -21.5t-87.5 -62t-56 -96.5t-19.5 -121t19.5 -121t56 -96.5t87.5 -62t112 -21.5q97 0 167 53t91 143h77q-25 -120 -115.5 -192.5t-219.5 -72.5
q-78 0 -143.5 28t-111.5 78t-71 118.5t-25 145.5zM264 838l134 70l135 -70v-65l-135 68l-134 -68v65z" />
    <glyph glyph-name="ccircumflex" unicode="&#x109;" horiz-adv-x="577" 
d="M49 254q0 52 17.5 100.5t50.5 86t80 59t103 21.5q49 0 85.5 -13.5t65 -35t53 -58.5t34.5 -86h-72q-16 59 -59.5 94t-106.5 35q-79 0 -129 -57t-50 -146q0 -88 50 -145t129 -57q63 0 106.5 35t59.5 94h72q-8 -38 -27 -73t-49 -62t-71.5 -42.5t-90.5 -15.5q-56 0 -103 21.5
t-80 59t-50.5 86t-17.5 99.5zM167 664l134 70l135 -70v-65l-135 68l-134 -68v65z" />
    <glyph glyph-name="Cdotaccent" unicode="&#x10a;" horiz-adv-x="781" 
d="M52 355q0 77 25 145.5t71 118.5t111.5 78t143.5 28q129 0 219.5 -72.5t115.5 -192.5h-77q-21 90 -91 143t-167 53q-61 0 -112 -21.5t-87.5 -62t-56 -96.5t-19.5 -121t19.5 -121t56 -96.5t87.5 -62t112 -21.5q97 0 167 53t91 143h77q-25 -120 -115.5 -192.5t-219.5 -72.5
q-78 0 -143.5 28t-111.5 78t-71 118.5t-25 145.5zM399 775q-22 0 -36.5 14.5t-14.5 35.5q0 22 14.5 36.5t36.5 14.5t36.5 -14.5t14.5 -36.5q0 -21 -14.5 -35.5t-36.5 -14.5z" />
    <glyph glyph-name="cdotaccent" unicode="&#x10b;" horiz-adv-x="577" 
d="M49 254q0 52 17.5 100.5t50.5 86t80 59t103 21.5q49 0 85.5 -13.5t65 -35t53 -58.5t34.5 -86h-72q-16 59 -59.5 94t-106.5 35q-79 0 -129 -57t-50 -146q0 -88 50 -145t129 -57q63 0 106.5 35t59.5 94h72q-8 -38 -27 -73t-49 -62t-71.5 -42.5t-90.5 -15.5q-56 0 -103 21.5
t-80 59t-50.5 86t-17.5 99.5zM291 627q-22 0 -36.5 14.5t-14.5 35.5q0 22 14.5 36.5t36.5 14.5t36.5 -14.5t14.5 -36.5q0 -21 -14.5 -35.5t-36.5 -14.5z" />
    <glyph glyph-name="Ccaron" unicode="&#x10c;" horiz-adv-x="781" 
d="M52 355q0 77 25 145.5t71 118.5t111.5 78t143.5 28q129 0 219.5 -72.5t115.5 -192.5h-77q-21 90 -91 143t-167 53q-61 0 -112 -21.5t-87.5 -62t-56 -96.5t-19.5 -121t19.5 -121t56 -96.5t87.5 -62t112 -21.5q97 0 167 53t91 143h77q-25 -120 -115.5 -192.5t-219.5 -72.5
q-78 0 -143.5 28t-111.5 78t-71 118.5t-25 145.5zM404 766l-134 70v65l134 -67l135 67v-65z" />
    <glyph glyph-name="ccaron" unicode="&#x10d;" horiz-adv-x="577" 
d="M49 254q0 52 17.5 100.5t50.5 86t80 59t103 21.5q49 0 85.5 -13.5t65 -35t53 -58.5t34.5 -86h-72q-16 59 -59.5 94t-106.5 35q-79 0 -129 -57t-50 -146q0 -88 50 -145t129 -57q63 0 106.5 35t59.5 94h72q-8 -38 -27 -73t-49 -62t-71.5 -42.5t-90.5 -15.5q-56 0 -103 21.5
t-80 59t-50.5 86t-17.5 99.5zM301 591l-134 70v65l134 -67l135 67v-65z" />
    <glyph glyph-name="Dcaron" unicode="&#x10e;" horiz-adv-x="763" 
d="M316 0h-215v710h215q91 0 165.5 -25t125.5 -72t77.5 -113t26.5 -145t-26.5 -145t-77.5 -113t-125.5 -72t-165.5 -25zM635 355q0 65 -20.5 118t-61 90.5t-102 57t-139.5 19.5h-138v-570h138q78 0 139.5 19.5t102 57t61 90.5t20.5 118zM344 766l-134 70v65l134 -67l135 67
v-65z" />
    <glyph glyph-name="dcaron" unicode="&#x10f;" horiz-adv-x="638" 
d="M479 417v333h71v-750h-68v94q-27 -49 -76.5 -77.5t-116.5 -28.5q-56 0 -101.5 21.5t-76 58.5t-46.5 85.5t-16 100.5q0 53 16 101.5t46.5 85.5t76 58.5t101.5 21.5q66 0 115 -28.5t75 -75.5zM482 254q0 64 -24.5 109.5t-64 69.5t-90.5 24q-41 0 -71 -13.5t-53 -35.5
t-40.5 -61.5t-17.5 -92.5q0 -52 21.5 -100.5t65.5 -75t95 -26.5q31 0 62.5 10.5t57 35.5t42.5 64.5t17 91.5zM641 679q0 16 -7 33t-16 24l57 20q11 -11 20 -31.5t9 -43.5q0 -48 -22.5 -85t-49.5 -53l-39 46q19 12 33.5 36.5t14.5 53.5z" />
    <glyph glyph-name="Dcroat" unicode="&#x110;" horiz-adv-x="763" 
d="M316 0h-215v322h-82v66h82v322h215q91 0 165.5 -25t125.5 -72t77.5 -113t26.5 -145t-26.5 -145t-77.5 -113t-125.5 -72t-165.5 -25zM635 355q0 65 -20.5 118t-61 90.5t-102 57t-139.5 19.5h-138v-252h183v-66h-183v-252h138q78 0 139.5 19.5t102 57t61 90.5t20.5 118z
" />
    <glyph glyph-name="dcroat" unicode="&#x111;" horiz-adv-x="638" 
d="M479 417v171h-165v60h165v102h71v-102h77v-60h-77v-588h-68v94q-27 -49 -76.5 -77.5t-116.5 -28.5q-56 0 -101.5 21.5t-76 58.5t-46.5 85.5t-16 100.5q0 53 16 101.5t46.5 85.5t76 58.5t101.5 21.5q66 0 115 -28.5t75 -75.5zM482 254q0 64 -24.5 109.5t-64 69.5t-90.5 24
q-41 0 -71 -13.5t-53 -35.5t-40.5 -61.5t-17.5 -92.5q0 -52 21.5 -100.5t65.5 -75t95 -26.5q31 0 62.5 10.5t57 35.5t42.5 64.5t17 91.5z" />
    <glyph glyph-name="Emacron" unicode="&#x112;" horiz-adv-x="636" 
d="M578 69v-69h-477v710h477v-69h-404v-246h383v-69h-383v-257h404zM500 830v-60h-321v60h321z" />
    <glyph glyph-name="emacron" unicode="&#x113;" horiz-adv-x="593" 
d="M543 234h-423q4 -58 30 -99t64.5 -62t86.5 -21q27 0 59.5 10t60.5 36.5t40 60.5h74q-23 -76 -85.5 -123.5t-149.5 -47.5q-58 0 -105.5 21t-79.5 58t-49 86t-17 102q0 52 17.5 100.5t50.5 85.5t80 58.5t102 21.5t101 -20t78 -55.5t49 -83.5t17 -101zM299 457
q-72 0 -120 -46.5t-57 -118.5h351q-7 74 -53.5 119.5t-120.5 45.5zM461 697v-60h-321v60h321z" />
    <glyph glyph-name="Ebreve" unicode="&#x114;" horiz-adv-x="636" 
d="M578 69v-69h-477v710h477v-69h-404v-246h383v-69h-383v-257h404zM335 817q36 0 58 20.5t22 56.5h57q0 -22 -6.5 -45t-24.5 -44t-47.5 -31t-58.5 -10t-55.5 9t-44.5 25.5t-28 41t-10 54.5h58q0 -36 22 -56.5t58 -20.5z" />
    <glyph glyph-name="ebreve" unicode="&#x115;" horiz-adv-x="593" 
d="M543 234h-423q4 -58 30 -99t64.5 -62t86.5 -21q27 0 59.5 10t60.5 36.5t40 60.5h74q-23 -76 -85.5 -123.5t-149.5 -47.5q-58 0 -105.5 21t-79.5 58t-49 86t-17 102q0 52 17.5 100.5t50.5 85.5t80 58.5t102 21.5t101 -20t78 -55.5t49 -83.5t17 -101zM299 457
q-72 0 -120 -46.5t-57 -118.5h351q-7 74 -53.5 119.5t-120.5 45.5zM299 648q36 0 58 20.5t22 56.5h57q0 -22 -6.5 -45t-24.5 -44t-47.5 -31t-58.5 -10t-55.5 9t-44.5 25.5t-28 41t-10 54.5h58q0 -36 22 -56.5t58 -20.5z" />
    <glyph glyph-name="Edotaccent" unicode="&#x116;" horiz-adv-x="636" 
d="M578 69v-69h-477v710h477v-69h-404v-246h383v-69h-383v-257h404zM341 775q-22 0 -36.5 14.5t-14.5 35.5q0 22 14.5 36.5t36.5 14.5t36.5 -14.5t14.5 -36.5q0 -21 -14.5 -35.5t-36.5 -14.5z" />
    <glyph glyph-name="edotaccent" unicode="&#x117;" horiz-adv-x="593" 
d="M543 234h-423q4 -58 30 -99t64.5 -62t86.5 -21q27 0 59.5 10t60.5 36.5t40 60.5h74q-23 -76 -85.5 -123.5t-149.5 -47.5q-58 0 -105.5 21t-79.5 58t-49 86t-17 102q0 52 17.5 100.5t50.5 85.5t80 58.5t102 21.5t101 -20t78 -55.5t49 -83.5t17 -101zM299 457
q-72 0 -120 -46.5t-57 -118.5h351q-7 74 -53.5 119.5t-120.5 45.5zM299 627q-22 0 -36.5 14.5t-14.5 35.5q0 22 14.5 36.5t36.5 14.5t36.5 -14.5t14.5 -36.5q0 -21 -14.5 -35.5t-36.5 -14.5z" />
    <glyph glyph-name="Eogonek" unicode="&#x118;" horiz-adv-x="636" 
d="M543 -127l26 -41q-20 -18 -39 -26.5t-45 -8.5q-46 0 -71 30.5t-25 72.5q0 25 9.5 51.5t29.5 48.5h-327v710h477v-69h-404v-246h383v-69h-383v-257h404v-69h-62q-16 -8 -33 -21.5t-26.5 -34t-9.5 -41.5q0 -23 12.5 -38.5t35.5 -15.5q14 0 25 6t23 18z" />
    <glyph glyph-name="eogonek" unicode="&#x119;" horiz-adv-x="593" 
d="M386 -130l26 -41q-20 -18 -39 -26.5t-45 -8.5q-46 0 -71 30.5t-25 72.5q0 24 8.5 49.5t24.5 43.5q-37 4 -75.5 21t-69.5 50t-51 82.5t-20 111.5q0 52 17.5 100.5t50.5 85.5t80 58.5t102 21.5t101 -20t78 -55.5t49 -83.5t17 -101l-1 -27h-423q4 -58 30 -99t64.5 -62
t86.5 -21q27 0 59.5 10t60.5 36.5t40 60.5h74q-2 -6 -8 -22t-25.5 -47t-59.5 -59.5t-91 -37.5q-30 -16 -45.5 -41.5t-15.5 -51.5q0 -23 12.5 -38.5t35.5 -15.5q14 0 25 6t23 18zM299 457q-72 0 -120 -46.5t-57 -118.5h351q-7 74 -53.5 119.5t-120.5 45.5z" />
    <glyph glyph-name="Ecaron" unicode="&#x11a;" horiz-adv-x="636" 
d="M578 69v-69h-477v710h477v-69h-404v-246h383v-69h-383v-257h404zM339 766l-134 70v65l134 -67l135 67v-65z" />
    <glyph glyph-name="ecaron" unicode="&#x11b;" horiz-adv-x="593" 
d="M543 234h-423q4 -58 30 -99t64.5 -62t86.5 -21q27 0 59.5 10t60.5 36.5t40 60.5h74q-23 -76 -85.5 -123.5t-149.5 -47.5q-58 0 -105.5 21t-79.5 58t-49 86t-17 102q0 52 17.5 100.5t50.5 85.5t80 58.5t102 21.5t101 -20t78 -55.5t49 -83.5t17 -101zM299 457
q-72 0 -120 -46.5t-57 -118.5h351q-7 74 -53.5 119.5t-120.5 45.5zM299 591l-134 70v65l134 -67l135 67v-65z" />
    <glyph glyph-name="Gcircumflex" unicode="&#x11c;" horiz-adv-x="822" 
d="M737 379v-379h-67v135q-38 -69 -109 -109t-161 -40q-77 0 -142 27.5t-111 77.5t-70.5 118.5t-24.5 145.5t25 145.5t71 118.5t111.5 78t143.5 28q62 0 117.5 -17.5t99 -50t73 -79.5t42.5 -104h-77q-24 86 -92.5 134t-162.5 48q-61 0 -112 -21.5t-87.5 -62t-56 -96.5
t-19.5 -121t19.5 -121.5t56 -97t88 -62.5t111.5 -22q26 0 58.5 6t66.5 22t65 46t52 78.5t23 106.5h-239v68h308zM267 839l134 70l135 -70v-65l-135 68l-134 -68v65z" />
    <glyph glyph-name="gcircumflex" unicode="&#x11d;" horiz-adv-x="632" 
d="M481 416v93h68v-484q0 -51 -15 -96t-45 -78t-75 -51.5t-103 -18.5q-63 0 -115 23t-80.5 62t-36.5 77h73q15 -44 58 -71t103 -27q76 0 120.5 46t44.5 118v95q-27 -47 -75.5 -75t-113.5 -28q-55 0 -100 21t-76.5 57t-47.5 83.5t-16 98.5t16 98.5t47.5 83.5t76.5 57t100 21
q32 0 69 -9.5t70 -34.5t53 -61zM481 261q0 41 -12.5 77t-35.5 62.5t-57 41.5t-74 15q-30 0 -61.5 -10t-58 -34t-44 -62.5t-17.5 -89.5t22 -98.5t65.5 -73t93.5 -25.5q30 0 61.5 10t57.5 34.5t43 63t17 89.5zM179 664l134 70l135 -70v-65l-135 68l-134 -68v65z" />
    <glyph glyph-name="Gbreve" unicode="&#x11e;" horiz-adv-x="822" 
d="M737 379v-379h-67v135q-38 -69 -109 -109t-161 -40q-77 0 -142 27.5t-111 77.5t-70.5 118.5t-24.5 145.5t25 145.5t71 118.5t111.5 78t143.5 28q62 0 117.5 -17.5t99 -50t73 -79.5t42.5 -104h-77q-24 86 -92.5 134t-162.5 48q-61 0 -112 -21.5t-87.5 -62t-56 -96.5
t-19.5 -121t19.5 -121.5t56 -97t88 -62.5t111.5 -22q26 0 58.5 6t66.5 22t65 46t52 78.5t23 106.5h-239v68h308zM402 818q36 0 58 20.5t22 56.5h57q0 -22 -6.5 -45t-24.5 -44t-47.5 -31t-58.5 -10t-55.5 9t-44.5 25.5t-28 41t-10 54.5h58q0 -36 22 -56.5t58 -20.5z" />
    <glyph glyph-name="gbreve" unicode="&#x11f;" horiz-adv-x="632" 
d="M481 416v93h68v-484q0 -51 -15 -96t-45 -78t-75 -51.5t-103 -18.5q-63 0 -115 23t-80.5 62t-36.5 77h73q15 -44 58 -71t103 -27q76 0 120.5 46t44.5 118v95q-27 -47 -75.5 -75t-113.5 -28q-55 0 -100 21t-76.5 57t-47.5 83.5t-16 98.5t16 98.5t47.5 83.5t76.5 57t100 21
q32 0 69 -9.5t70 -34.5t53 -61zM481 261q0 41 -12.5 77t-35.5 62.5t-57 41.5t-74 15q-30 0 -61.5 -10t-58 -34t-44 -62.5t-17.5 -89.5t22 -98.5t65.5 -73t93.5 -25.5q30 0 61.5 10t57.5 34.5t43 63t17 89.5zM316 648q36 0 58 20.5t22 56.5h57q0 -22 -6.5 -45t-24.5 -44
t-47.5 -31t-58.5 -10t-55.5 9t-44.5 25.5t-28 41t-10 54.5h58q0 -36 22 -56.5t58 -20.5z" />
    <glyph glyph-name="Gdotaccent" unicode="&#x120;" horiz-adv-x="822" 
d="M737 379v-379h-67v135q-38 -69 -109 -109t-161 -40q-77 0 -142 27.5t-111 77.5t-70.5 118.5t-24.5 145.5t25 145.5t71 118.5t111.5 78t143.5 28q62 0 117.5 -17.5t99 -50t73 -79.5t42.5 -104h-77q-24 86 -92.5 134t-162.5 48q-61 0 -112 -21.5t-87.5 -62t-56 -96.5
t-19.5 -121t19.5 -121.5t56 -97t88 -62.5t111.5 -22q26 0 58.5 6t66.5 22t65 46t52 78.5t23 106.5h-239v68h308zM404 775q-22 0 -36.5 14.5t-14.5 35.5q0 22 14.5 36.5t36.5 14.5t36.5 -14.5t14.5 -36.5q0 -21 -14.5 -35.5t-36.5 -14.5z" />
    <glyph glyph-name="gdotaccent" unicode="&#x121;" horiz-adv-x="632" 
d="M481 416v93h68v-484q0 -51 -15 -96t-45 -78t-75 -51.5t-103 -18.5q-63 0 -115 23t-80.5 62t-36.5 77h73q15 -44 58 -71t103 -27q76 0 120.5 46t44.5 118v95q-27 -47 -75.5 -75t-113.5 -28q-55 0 -100 21t-76.5 57t-47.5 83.5t-16 98.5t16 98.5t47.5 83.5t76.5 57t100 21
q32 0 69 -9.5t70 -34.5t53 -61zM481 261q0 41 -12.5 77t-35.5 62.5t-57 41.5t-74 15q-30 0 -61.5 -10t-58 -34t-44 -62.5t-17.5 -89.5t22 -98.5t65.5 -73t93.5 -25.5q30 0 61.5 10t57.5 34.5t43 63t17 89.5zM314 627q-22 0 -36.5 14.5t-14.5 35.5q0 22 14.5 36.5t36.5 14.5
t36.5 -14.5t14.5 -36.5q0 -21 -14.5 -35.5t-36.5 -14.5z" />
    <glyph glyph-name="Gcommaaccent" unicode="&#x122;" horiz-adv-x="822" 
d="M737 379v-379h-67v135q-38 -69 -109 -109t-161 -40q-77 0 -142 27.5t-111 77.5t-70.5 118.5t-24.5 145.5t25 145.5t71 118.5t111.5 78t143.5 28q62 0 117.5 -17.5t99 -50t73 -79.5t42.5 -104h-77q-24 86 -92.5 134t-162.5 48q-61 0 -112 -21.5t-87.5 -62t-56 -96.5
t-19.5 -121t19.5 -121.5t56 -97t88 -62.5t111.5 -22q26 0 58.5 6t66.5 22t65 46t52 78.5t23 106.5h-239v68h308zM381 -116q0 16 -7 33t-16 24l57 20q11 -11 20 -31.5t9 -43.5q0 -48 -22.5 -85t-49.5 -53l-39 46q19 12 33.5 36.5t14.5 53.5z" />
    <glyph glyph-name="gcommaaccent" unicode="&#x123;" horiz-adv-x="632" 
d="M481 416v93h68v-484q0 -51 -15 -96t-45 -78t-75 -51.5t-103 -18.5q-63 0 -115 23t-80.5 62t-36.5 77h73q15 -44 58 -71t103 -27q76 0 120.5 46t44.5 118v95q-27 -47 -75.5 -75t-113.5 -28q-55 0 -100 21t-76.5 57t-47.5 83.5t-16 98.5t16 98.5t47.5 83.5t76.5 57t100 21
q32 0 69 -9.5t70 -34.5t53 -61zM481 261q0 41 -12.5 77t-35.5 62.5t-57 41.5t-74 15q-30 0 -61.5 -10t-58 -34t-44 -62.5t-17.5 -89.5t22 -98.5t65.5 -73t93.5 -25.5q30 0 61.5 10t57.5 34.5t43 63t17 89.5zM333 668q0 -16 7 -33t16 -24l-57 -20q-11 11 -20 31.5t-9 43.5
q0 48 22.5 85t49.5 53l39 -46q-19 -12 -33.5 -36.5t-14.5 -53.5z" />
    <glyph glyph-name="Hcircumflex" unicode="&#x124;" horiz-adv-x="764" 
d="M662 710v-710h-73v326h-415v-326h-73v710h73v-315h415v315h73zM246 830l134 70l135 -70v-65l-135 68l-134 -68v65z" />
    <glyph glyph-name="hcircumflex" unicode="&#x125;" horiz-adv-x="598" 
d="M158 750v-312q12 21 37.5 41.5t59 31t68.5 10.5q46 0 82.5 -14.5t61 -41t37 -62.5t12.5 -78v-325h-71v311q0 70 -33.5 109t-100.5 39t-110 -41.5t-43 -116.5v-301h-71v750h71zM-11 829l134 70l135 -70v-65l-135 68l-134 -68v65z" />
    <glyph glyph-name="Hbar" unicode="&#x126;" horiz-adv-x="764" 
d="M662 710v-143h60v-62h-60v-505h-73v326h-415v-326h-73v505h-60v62h60v143h73v-143h415v143h73zM174 395h415v110h-415v-110z" />
    <glyph glyph-name="hbar" unicode="&#x127;" horiz-adv-x="598" 
d="M158 750v-102h166v-60h-166v-150q12 21 37.5 41.5t59 31t68.5 10.5q46 0 82.5 -14.5t61 -41t37 -62.5t12.5 -78v-325h-71v311q0 70 -33.5 109t-100.5 39t-110 -41.5t-43 -116.5v-301h-71v588h-77v60h77v102h71z" />
    <glyph glyph-name="Itilde" unicode="&#x128;" horiz-adv-x="297" 
d="M261 0h-225v61h76v588h-76v61h225v-61h-76v-588h76v-61zM214 766q-29 0 -70 20t-62 20q-35 0 -42 -36h-55q2 20 12 42.5t34 37t55 14.5q29 0 69.5 -19.5t61.5 -19.5q14 0 25.5 6.5t16.5 29.5h55q-3 -32 -19 -55t-38.5 -31.5t-42.5 -8.5z" />
    <glyph glyph-name="itilde" unicode="&#x129;" horiz-adv-x="265" 
d="M188 622q-29 0 -70 20t-62 20q-35 0 -42 -36h-55q2 20 12 42.5t34 37t55 14.5q29 0 69.5 -19.5t61.5 -19.5q14 0 25.5 6.5t16.5 29.5h55q-3 -32 -19 -55t-38.5 -31.5t-42.5 -8.5zM22 449v60h155v-509h-71v449h-84z" />
    <glyph glyph-name="Imacron" unicode="&#x12a;" horiz-adv-x="297" 
d="M261 0h-225v61h76v588h-76v61h225v-61h-76v-588h76v-61zM309 830v-60h-321v60h321z" />
    <glyph glyph-name="imacron" unicode="&#x12b;" horiz-adv-x="265" 
d="M284 697v-60h-321v60h321zM22 449v60h155v-509h-71v449h-84z" />
    <glyph glyph-name="Ibreve" unicode="&#x12c;" horiz-adv-x="297" 
d="M261 0h-225v61h76v588h-76v61h225v-61h-76v-588h76v-61zM149 818q36 0 58 20.5t22 56.5h57q0 -22 -6.5 -45t-24.5 -44t-47.5 -31t-58.5 -10t-55.5 9t-44.5 25.5t-28 41t-10 54.5h58q0 -36 22 -56.5t58 -20.5z" />
    <glyph glyph-name="ibreve" unicode="&#x12d;" horiz-adv-x="265" 
d="M123 648q36 0 58 20.5t22 56.5h57q0 -22 -6.5 -45t-24.5 -44t-47.5 -31t-58.5 -10t-55.5 9t-44.5 25.5t-28 41t-10 54.5h58q0 -36 22 -56.5t58 -20.5zM22 449v60h155v-509h-71v449h-84z" />
    <glyph glyph-name="Iogonek" unicode="&#x12e;" horiz-adv-x="297" 
d="M215 -127l26 -41q-20 -18 -39 -26.5t-45 -8.5q-46 0 -71 30.5t-25 72.5q0 25 9.5 51.5t29.5 48.5h-64v61h76v588h-76v61h225v-61h-76v-588h76v-61h-73q-16 -8 -33 -21.5t-26.5 -34t-9.5 -41.5q0 -23 12.5 -38.5t35.5 -15.5q14 0 25 6t23 18z" />
    <glyph glyph-name="iogonek" unicode="&#x12f;" horiz-adv-x="265" 
d="M196 -127l26 -41q-20 -18 -39 -26.5t-45 -8.5q-46 0 -71 30.5t-25 72.5q0 35 16 67t48 55v427h-84v60h155v-509h-8q-16 -8 -33 -21.5t-26.5 -34t-9.5 -41.5q0 -23 12.5 -38.5t35.5 -15.5q14 0 25 6t23 18zM142 635q-22 0 -36.5 13.5t-14.5 34.5v4q0 11 4 19q6 12 19 20.5
t28 8.5q22 0 36.5 -14.5t14.5 -36.5q0 -21 -14.5 -35t-36.5 -14z" />
    <glyph glyph-name="Idotaccent" unicode="&#x130;" horiz-adv-x="297" 
d="M261 0h-225v61h76v588h-76v61h225v-61h-76v-588h76v-61zM148 775q-22 0 -36.5 14.5t-14.5 35.5q0 22 14.5 36.5t36.5 14.5t36.5 -14.5t14.5 -36.5q0 -21 -14.5 -35.5t-36.5 -14.5z" />
    <glyph glyph-name="dotlessi" unicode="&#x131;" horiz-adv-x="265" 
d="M22 449v60h155v-509h-71v449h-84z" />
    <glyph glyph-name="Jcircumflex" unicode="&#x134;" horiz-adv-x="593" 
d="M429 221v489h73v-487q0 -53 -15.5 -96.5t-45 -75t-72.5 -48t-95 -16.5q-104 0 -165.5 61.5t-61.5 164.5l2 44h74l-2 -44q0 -70 40.5 -115t112.5 -45q73 0 114 44t41 124zM332 839l134 70l135 -70v-65l-135 68l-134 -68v65z" />
    <glyph glyph-name="jcircumflex" unicode="&#x135;" horiz-adv-x="265" 
d="M-3 664l135 70l134 -70v-65l-134 68l-135 -68v65zM177 509v-556q0 -70 -35 -105t-98 -35q-21 0 -41 3v64q17 -3 35 -3q35 0 51.5 20t16.5 60v492h-84v60h155z" />
    <glyph glyph-name="Kcommaaccent" unicode="&#x136;" horiz-adv-x="703" 
d="M700 0h-93l-278 362l-155 -152v-210h-73v710h73v-409l408 409h98l-300 -296zM345 -116q0 16 -7 33t-16 24l57 20q11 -11 20 -31.5t9 -43.5q0 -48 -22.5 -85t-49.5 -53l-39 46q19 12 33.5 36.5t14.5 53.5z" />
    <glyph glyph-name="kcommaaccent" unicode="&#x137;" horiz-adv-x="553" 
d="M439 509h95l-211 -210l227 -299h-88l-189 251l-115 -112v-139h-71v750h71v-524zM287 -116q0 16 -7 33t-16 24l57 20q11 -11 20 -31.5t9 -43.5q0 -48 -22.5 -85t-49.5 -53l-39 46q19 12 33.5 36.5t14.5 53.5z" />
    <glyph glyph-name="Lacute" unicode="&#x139;" horiz-adv-x="541" 
d="M530 69v-69h-429v710h73v-641h356zM169 940h77l-77 -170h-66z" />
    <glyph glyph-name="lacute" unicode="&#x13a;" horiz-adv-x="257" 
d="M87 112v638h71v-630q0 -31 11 -43t38 -12l20 2v-65q-17 -3 -37 -3q-49 0 -76 28t-27 85zM156 980h77l-77 -170h-66z" />
    <glyph glyph-name="Lcommaaccent" unicode="&#x13b;" horiz-adv-x="541" 
d="M530 69v-69h-429v710h73v-641h356zM310 -116q0 16 -7 33t-16 24l57 20q11 -11 20 -31.5t9 -43.5q0 -48 -22.5 -85t-49.5 -53l-39 46q19 12 33.5 36.5t14.5 53.5z" />
    <glyph glyph-name="lcommaaccent" unicode="&#x13c;" horiz-adv-x="257" 
d="M87 112v638h71v-630q0 -31 11 -43t38 -12l20 2v-65q-17 -3 -37 -3q-49 0 -76 28t-27 85zM121 -116q0 16 -7 33t-16 24l57 20q11 -11 20 -31.5t9 -43.5q0 -48 -22.5 -85t-49.5 -53l-39 46q19 12 33.5 36.5t14.5 53.5z" />
    <glyph glyph-name="Lcaron" unicode="&#x13d;" horiz-adv-x="541" 
d="M530 69v-69h-429v710h73v-641h356zM330 648q0 16 -7 33t-16 24l57 20q11 -11 20 -31.5t9 -43.5q0 -48 -22.5 -85t-49.5 -53l-39 46q19 12 33.5 36.5t14.5 53.5z" />
    <glyph glyph-name="lcaron" unicode="&#x13e;" horiz-adv-x="257" 
d="M87 112v638h71v-630q0 -31 11 -43t38 -12l20 2v-65q-17 -3 -37 -3q-49 0 -76 28t-27 85zM249 679q0 16 -7 33t-16 24l57 20q11 -11 20 -31.5t9 -43.5q0 -48 -22.5 -85t-49.5 -53l-39 46q19 12 33.5 36.5t14.5 53.5z" />
    <glyph glyph-name="Lslash" unicode="&#x141;" horiz-adv-x="541" 
d="M530 69v-69h-429v279l-89 -25v63l89 25v368h73v-348l125 35v-63l-125 -35v-230h356z" />
    <glyph glyph-name="lslash" unicode="&#x142;" horiz-adv-x="257" 
d="M87 112v165l-81 -23v62l81 23v411h71v-391l81 24v-62l-81 -24v-177q0 -31 11 -43t38 -12l20 2v-65q-17 -3 -37 -3q-49 0 -76 28t-27 85z" />
    <glyph glyph-name="Nacute" unicode="&#x143;" horiz-adv-x="766" 
d="M174 593v-593h-73v710h77l414 -594v594h73v-710h-77zM416 940h77l-77 -170h-66z" />
    <glyph glyph-name="nacute" unicode="&#x144;" horiz-adv-x="598" 
d="M155 509v-78q12 23 36 43.5t56.5 33.5t75.5 13q46 0 82.5 -14.5t61 -41t37 -62.5t12.5 -78v-325h-71v311q0 70 -33.5 109t-100.5 39q-49 0 -83.5 -21t-52 -55t-17.5 -80v-303h-71v509h68zM323 759h77l-77 -170h-66z" />
    <glyph glyph-name="Ncommaaccent" unicode="&#x145;" horiz-adv-x="766" 
d="M174 593v-593h-73v710h77l414 -594v594h73v-710h-77zM369 -116q0 16 -7 33t-16 24l57 20q11 -11 20 -31.5t9 -43.5q0 -48 -22.5 -85t-49.5 -53l-39 46q19 12 33.5 36.5t14.5 53.5z" />
    <glyph glyph-name="ncommaaccent" unicode="&#x146;" horiz-adv-x="598" 
d="M155 509v-78q12 23 36 43.5t56.5 33.5t75.5 13q46 0 82.5 -14.5t61 -41t37 -62.5t12.5 -78v-325h-71v311q0 70 -33.5 109t-100.5 39q-49 0 -83.5 -21t-52 -55t-17.5 -80v-303h-71v509h68zM290 -116q0 16 -7 33t-16 24l57 20q11 -11 20 -31.5t9 -43.5q0 -48 -22.5 -85
t-49.5 -53l-39 46q19 12 33.5 36.5t14.5 53.5z" />
    <glyph glyph-name="Ncaron" unicode="&#x147;" horiz-adv-x="766" 
d="M174 593v-593h-73v710h77l414 -594v594h73v-710h-77zM385 764l-134 70v65l134 -67l135 67v-65z" />
    <glyph glyph-name="ncaron" unicode="&#x148;" horiz-adv-x="598" 
d="M155 509v-78q12 23 36 43.5t56.5 33.5t75.5 13q46 0 82.5 -14.5t61 -41t37 -62.5t12.5 -78v-325h-71v311q0 70 -33.5 109t-100.5 39q-49 0 -83.5 -21t-52 -55t-17.5 -80v-303h-71v509h68zM298 591l-134 70v65l134 -67l135 67v-65z" />
    <glyph glyph-name="Eng" unicode="&#x14a;" horiz-adv-x="766" 
d="M592 2l-418 589v-591h-73v710h77l414 -584v584h73v-682q0 -100 -46.5 -163t-140.5 -77l-19 61q69 12 99 49.5t34 103.5z" />
    <glyph glyph-name="eng" unicode="&#x14b;" horiz-adv-x="598" 
d="M445 31v280q0 70 -33.5 109t-100.5 39q-49 0 -83.5 -21t-52 -55t-17.5 -80v-303h-71v509h68v-78q12 23 36 43.5t56.5 33.5t75.5 13q46 0 82.5 -14.5t61 -41t37 -62.5t12.5 -78v-279q0 -91 -42 -152.5t-124 -80.5l-22 59q117 30 117 159z" />
    <glyph glyph-name="Omacron" unicode="&#x14c;" horiz-adv-x="828" 
d="M128 355q0 -65 21.5 -121t60 -96t91.5 -62t113 -22t113 22t91.5 62t60 96t21.5 121t-21.5 121t-60 96t-91.5 62t-113 22t-113 -22t-91.5 -62t-60 -96t-21.5 -121zM776 355q0 -76 -26 -144t-74 -118.5t-115.5 -79t-146.5 -28.5t-146.5 28.5t-115.5 79t-74 118.5t-26 144
t26 144t74 118.5t115.5 79t146.5 28.5t146.5 -28.5t115.5 -79t74 -118.5t26 -144zM574 831v-60h-321v60h321z" />
    <glyph glyph-name="omacron" unicode="&#x14d;" horiz-adv-x="617" 
d="M308 -12q-57 0 -106 21.5t-83 58.5t-52 85.5t-18 100.5t18 100.5t52 86t83 59t106 21.5q58 0 106.5 -21.5t83 -59t52.5 -86t18 -100.5t-18 -100.5t-52.5 -85.5t-83 -58.5t-106.5 -21.5zM121 254q0 -53 23 -101.5t68 -74.5t96 -26q52 0 97 26t68 74.5t23 101.5t-23 102
t-68 75t-97 26q-51 0 -96 -26t-68 -75t-23 -102zM470 697v-60h-321v60h321z" />
    <glyph glyph-name="Obreve" unicode="&#x14e;" horiz-adv-x="828" 
d="M128 355q0 -65 21.5 -121t60 -96t91.5 -62t113 -22t113 22t91.5 62t60 96t21.5 121t-21.5 121t-60 96t-91.5 62t-113 22t-113 -22t-91.5 -62t-60 -96t-21.5 -121zM776 355q0 -76 -26 -144t-74 -118.5t-115.5 -79t-146.5 -28.5t-146.5 28.5t-115.5 79t-74 118.5t-26 144
t26 144t74 118.5t115.5 79t146.5 28.5t146.5 -28.5t115.5 -79t74 -118.5t26 -144zM414 817q36 0 58 20.5t22 56.5h57q0 -22 -6.5 -45t-24.5 -44t-47.5 -31t-58.5 -10t-55.5 9t-44.5 25.5t-28 41t-10 54.5h58q0 -36 22 -56.5t58 -20.5z" />
    <glyph glyph-name="obreve" unicode="&#x14f;" horiz-adv-x="617" 
d="M308 -12q-57 0 -106 21.5t-83 58.5t-52 85.5t-18 100.5t18 100.5t52 86t83 59t106 21.5q58 0 106.5 -21.5t83 -59t52.5 -86t18 -100.5t-18 -100.5t-52.5 -85.5t-83 -58.5t-106.5 -21.5zM121 254q0 -53 23 -101.5t68 -74.5t96 -26q52 0 97 26t68 74.5t23 101.5t-23 102
t-68 75t-97 26q-51 0 -96 -26t-68 -75t-23 -102zM308 648q36 0 58 20.5t22 56.5h57q0 -22 -6.5 -45t-24.5 -44t-47.5 -31t-58.5 -10t-55.5 9t-44.5 25.5t-28 41t-10 54.5h58q0 -36 22 -56.5t58 -20.5z" />
    <glyph glyph-name="Ohungarumlaut" unicode="&#x150;" horiz-adv-x="828" 
d="M128 355q0 -65 21.5 -121t60 -96t91.5 -62t113 -22t113 22t91.5 62t60 96t21.5 121t-21.5 121t-60 96t-91.5 62t-113 22t-113 -22t-91.5 -62t-60 -96t-21.5 -121zM776 355q0 -76 -26 -144t-74 -118.5t-115.5 -79t-146.5 -28.5t-146.5 28.5t-115.5 79t-74 118.5t-26 144
t26 144t74 118.5t115.5 79t146.5 28.5t146.5 -28.5t115.5 -79t74 -118.5t26 -144zM364 940h81l-85 -170h-61zM514 940h81l-86 -170h-61z" />
    <glyph glyph-name="ohungarumlaut" unicode="&#x151;" horiz-adv-x="617" 
d="M308 -12q-57 0 -106 21.5t-83 58.5t-52 85.5t-18 100.5t18 100.5t52 86t83 59t106 21.5q58 0 106.5 -21.5t83 -59t52.5 -86t18 -100.5t-18 -100.5t-52.5 -85.5t-83 -58.5t-106.5 -21.5zM121 254q0 -53 23 -101.5t68 -74.5t96 -26q52 0 97 26t68 74.5t23 101.5t-23 102
t-68 75t-97 26q-51 0 -96 -26t-68 -75t-23 -102zM256 749h81l-85 -170h-61zM406 749h81l-86 -170h-61z" />
    <glyph glyph-name="OE" unicode="&#x152;" horiz-adv-x="1233" 
d="M1175 69v-69h-477v136q-43 -71 -116.5 -111t-168.5 -40q-77 0 -144 28t-115.5 78.5t-75 119t-26.5 144.5t26.5 144.5t75 119t115.5 78.5t144 28q95 0 168.5 -40.5t116.5 -112.5v138h477v-69h-404v-246h382v-69h-382v-257h404zM413 657q-60 0 -113 -22t-91.5 -62
t-59.5 -96.5t-21 -121.5t21 -121.5t59.5 -97t91.5 -62.5t113 -22t113 22t91.5 62.5t59.5 97t21 121.5t-21 121.5t-59.5 96.5t-91.5 62t-113 22z" />
    <glyph glyph-name="oe" unicode="&#x153;" horiz-adv-x="1038" 
d="M308 -12q-57 0 -106 21.5t-83 58.5t-52 85.5t-18 100.5t18 100.5t52 86t83 59t106 21.5q74 0 132 -36t90 -94q30 59 86.5 94.5t128.5 35.5q54 0 100 -20t78.5 -56t49.5 -83.5t17 -100.5l-1 -27h-423q5 -79 53.5 -130.5t126.5 -51.5q27 0 59.5 10t60.5 36.5t40 60.5h74
q-23 -76 -85.5 -123.5t-149.5 -47.5q-75 0 -130.5 35t-85.5 93q-31 -58 -88.5 -93t-132.5 -35zM568 292h350q-7 74 -53.5 119.5t-119.5 45.5q-72 0 -120 -46.5t-57 -118.5zM308 52q52 0 97 26t68 74.5t23 101.5t-23 102t-68 75t-97 26q-51 0 -96 -26t-68 -75t-23 -102
t23 -101.5t68 -74.5t96 -26z" />
    <glyph glyph-name="Racute" unicode="&#x154;" horiz-adv-x="672" 
d="M637 0h-88l-167 309h-208v-309h-73v710h292q72 0 122 -23.5t78 -67.5t28 -109q0 -55 -20.5 -95t-56 -65t-86.5 -34zM545 510q0 60 -38 95t-111 35h-222v-261h222q74 0 111.5 34.5t37.5 96.5zM359 940h77l-77 -170h-66z" />
    <glyph glyph-name="racute" unicode="&#x155;" horiz-adv-x="351" 
d="M335 513v-67l-25 1q-68 0 -110 -41t-42 -117v-289h-71v509h68v-79q12 22 37 43t58.5 31t67.5 10zM218 759h77l-77 -170h-66z" />
    <glyph glyph-name="Rcommaaccent" unicode="&#x156;" horiz-adv-x="672" 
d="M637 0h-88l-167 309h-208v-309h-73v710h292q72 0 122 -23.5t78 -67.5t28 -109q0 -55 -20.5 -95t-56 -65t-86.5 -34zM545 510q0 60 -38 95t-111 35h-222v-261h222q74 0 111.5 34.5t37.5 96.5zM330 -116q0 16 -7 33t-16 24l57 20q11 -11 20 -31.5t9 -43.5q0 -48 -22.5 -85
t-49.5 -53l-39 46q19 12 33.5 36.5t14.5 53.5z" />
    <glyph glyph-name="rcommaaccent" unicode="&#x157;" horiz-adv-x="351" 
d="M335 513v-67l-25 1q-68 0 -110 -41t-42 -117v-289h-71v509h68v-79q12 22 37 43t58.5 31t67.5 10zM107 -116q0 16 -7 33t-16 24l57 20q11 -11 20 -31.5t9 -43.5q0 -48 -22.5 -85t-49.5 -53l-39 46q19 12 33.5 36.5t14.5 53.5z" />
    <glyph glyph-name="Rcaron" unicode="&#x158;" horiz-adv-x="672" 
d="M637 0h-88l-167 309h-208v-309h-73v710h292q72 0 122 -23.5t78 -67.5t28 -109q0 -55 -20.5 -95t-56 -65t-86.5 -34zM545 510q0 60 -38 95t-111 35h-222v-261h222q74 0 111.5 34.5t37.5 96.5zM334 765l-134 70v65l134 -67l135 67v-65z" />
    <glyph glyph-name="rcaron" unicode="&#x159;" horiz-adv-x="351" 
d="M335 513v-67l-25 1q-68 0 -110 -41t-42 -117v-289h-71v509h68v-79q12 22 37 43t58.5 31t67.5 10zM202 591l-134 70v65l134 -67l135 67v-65z" />
    <glyph glyph-name="Sacute" unicode="&#x15a;" horiz-adv-x="633" 
d="M307 52q88 0 139 34.5t51 98.5q0 19 -6 40.5t-21.5 38.5t-44 31.5t-128 35t-132.5 39t-51 38.5t-28 49.5t-10 67.5t16 74.5t47 64.5t77 44.5t103 16.5t103 -17.5t77 -48.5t47.5 -73.5t17.5 -90.5h-71q-2 74 -48.5 119t-124.5 45q-79 0 -125 -35.5t-46 -95.5
q0 -27 11.5 -51t43 -43t123.5 -38.5t124.5 -32.5t54.5 -29.5t37.5 -40t21.5 -51t6 -52.5q0 -33 -12.5 -68.5t-48.5 -69t-91.5 -50t-113.5 -16.5q-82 0 -139 27.5t-90 78.5t-36 123h72q6 -79 58 -121t137 -42zM346 940h77l-77 -170h-66z" />
    <glyph glyph-name="sacute" unicode="&#x15b;" horiz-adv-x="504" 
d="M250 -12q-52 0 -87 12t-59.5 31t-42 51.5t-20.5 76.5h72q4 -50 39 -79.5t98 -29.5q62 0 98 24t36 62q0 19 -8.5 35.5t-32 29t-95.5 25.5t-106 27.5t-53.5 43t-19.5 74.5q0 37 22 73t67.5 56.5t99.5 20.5q37 0 72.5 -10t64.5 -35t42 -58t15 -58h-71q-5 43 -36.5 71
t-88.5 28q-27 0 -55.5 -8.5t-45.5 -29.5t-17 -47q0 -25 13 -41t38 -25.5t80.5 -19.5t85 -19.5t51 -25t34.5 -41.5t13 -64q0 -29 -12.5 -56t-38 -48.5t-64.5 -33.5t-88 -12zM284 759h77l-77 -170h-66z" />
    <glyph glyph-name="Scircumflex" unicode="&#x15c;" horiz-adv-x="633" 
d="M307 52q88 0 139 34.5t51 98.5q0 19 -6 40.5t-21.5 38.5t-44 31.5t-128 35t-132.5 39t-51 38.5t-28 49.5t-10 67.5t16 74.5t47 64.5t77 44.5t103 16.5t103 -17.5t77 -48.5t47.5 -73.5t17.5 -90.5h-71q-2 74 -48.5 119t-124.5 45q-79 0 -125 -35.5t-46 -95.5
q0 -27 11.5 -51t43 -43t123.5 -38.5t124.5 -32.5t54.5 -29.5t37.5 -40t21.5 -51t6 -52.5q0 -33 -12.5 -68.5t-48.5 -69t-91.5 -50t-113.5 -16.5q-82 0 -139 27.5t-90 78.5t-36 123h72q6 -79 58 -121t137 -42zM189 829l134 70l135 -70v-65l-135 68l-134 -68v65z" />
    <glyph glyph-name="scircumflex" unicode="&#x15d;" horiz-adv-x="504" 
d="M250 -12q-52 0 -87 12t-59.5 31t-42 51.5t-20.5 76.5h72q4 -50 39 -79.5t98 -29.5q62 0 98 24t36 62q0 19 -8.5 35.5t-32 29t-95.5 25.5t-106 27.5t-53.5 43t-19.5 74.5q0 37 22 73t67.5 56.5t99.5 20.5q37 0 72.5 -10t64.5 -35t42 -58t15 -58h-71q-5 43 -36.5 71
t-88.5 28q-27 0 -55.5 -8.5t-45.5 -29.5t-17 -47q0 -25 13 -41t38 -25.5t80.5 -19.5t85 -19.5t51 -25t34.5 -41.5t13 -64q0 -29 -12.5 -56t-38 -48.5t-64.5 -33.5t-88 -12zM128 664l134 70l135 -70v-65l-135 68l-134 -68v65z" />
    <glyph glyph-name="Scedilla" unicode="&#x15e;" horiz-adv-x="633" 
d="M243 -212l25 40q9 -8 23.5 -14t30.5 -6q24 0 39 13t15 35t-13 35t-38 13q-14 0 -26.5 -6t-18.5 -13l-31 17l32 85q-74 4 -126 32t-82 77.5t-33 118.5h72q6 -79 58 -121t137 -42q88 0 139 34.5t51 98.5q0 19 -6 40.5t-21.5 38.5t-44 31.5t-128 35t-132.5 39t-51 38.5
t-28 49.5t-10 67.5t16 74.5t47 64.5t77 44.5t103 16.5t103 -17.5t77 -48.5t47.5 -73.5t17.5 -90.5h-71q-2 74 -48.5 119t-124.5 45q-79 0 -125 -35.5t-46 -95.5q0 -27 11.5 -51t43 -43t123.5 -38.5t124.5 -32.5t54.5 -29.5t37.5 -40t21.5 -51t6 -52.5q0 -32 -11.5 -66
t-40.5 -63.5t-77.5 -50t-116.5 -23.5l-16 -45q10 5 29 5q41 0 66 -26t25 -64q0 -20 -10 -43t-36 -38t-60 -15q-17 0 -40.5 6t-39.5 21z" />
    <glyph glyph-name="scedilla" unicode="&#x15f;" horiz-adv-x="504" 
d="M188 -212l25 40q9 -8 23.5 -14t30.5 -6q24 0 39 13t15 35t-13 35t-38 13q-14 0 -26.5 -6t-18.5 -13l-31 17l32 87q-90 6 -135.5 53.5t-49.5 116.5h72q4 -50 39 -79.5t98 -29.5q62 0 98 24t36 62q0 19 -8.5 35.5t-32 29t-95.5 25.5t-106 27.5t-53.5 43t-19.5 74.5
q0 37 22 73t67.5 56.5t99.5 20.5q37 0 72.5 -10t64.5 -35t42 -58t15 -58h-71q-5 43 -36.5 71t-88.5 28q-27 0 -55.5 -8.5t-45.5 -29.5t-17 -47q0 -25 13 -41t38 -25.5t80.5 -19.5t85 -19.5t51 -25t34.5 -41.5t13 -64q0 -58 -47.5 -101t-134.5 -48l-17 -47q10 5 29 5
q41 0 66 -26t25 -64q0 -20 -10 -43t-36 -38t-60 -15q-17 0 -40.5 6t-39.5 21z" />
    <glyph glyph-name="Scaron" unicode="&#x160;" horiz-adv-x="633" 
d="M307 52q88 0 139 34.5t51 98.5q0 19 -6 40.5t-21.5 38.5t-44 31.5t-128 35t-132.5 39t-51 38.5t-28 49.5t-10 67.5t16 74.5t47 64.5t77 44.5t103 16.5t103 -17.5t77 -48.5t47.5 -73.5t17.5 -90.5h-71q-2 74 -48.5 119t-124.5 45q-79 0 -125 -35.5t-46 -95.5
q0 -27 11.5 -51t43 -43t123.5 -38.5t124.5 -32.5t54.5 -29.5t37.5 -40t21.5 -51t6 -52.5q0 -33 -12.5 -68.5t-48.5 -69t-91.5 -50t-113.5 -16.5q-82 0 -139 27.5t-90 78.5t-36 123h72q6 -79 58 -121t137 -42zM319 764l-134 70v65l134 -67l135 67v-65z" />
    <glyph glyph-name="scaron" unicode="&#x161;" horiz-adv-x="504" 
d="M250 -12q-52 0 -87 12t-59.5 31t-42 51.5t-20.5 76.5h72q4 -50 39 -79.5t98 -29.5q62 0 98 24t36 62q0 19 -8.5 35.5t-32 29t-95.5 25.5t-106 27.5t-53.5 43t-19.5 74.5q0 37 22 73t67.5 56.5t99.5 20.5q37 0 72.5 -10t64.5 -35t42 -58t15 -58h-71q-5 43 -36.5 71
t-88.5 28q-27 0 -55.5 -8.5t-45.5 -29.5t-17 -47q0 -25 13 -41t38 -25.5t80.5 -19.5t85 -19.5t51 -25t34.5 -41.5t13 -64q0 -29 -12.5 -56t-38 -48.5t-64.5 -33.5t-88 -12zM260 591l-134 70v65l134 -67l135 67v-65z" />
    <glyph glyph-name="Tcommaaccent" unicode="&#x162;" horiz-adv-x="545" 
d="M536 710v-70h-227v-640h-73v640h-227v70h527zM257 -116q0 16 -7 33t-16 24l57 20q11 -11 20 -31.5t9 -43.5q0 -48 -22.5 -85t-49.5 -53l-39 46q19 12 33.5 36.5t14.5 53.5z" />
    <glyph glyph-name="tcommaaccent" unicode="&#x163;" horiz-adv-x="323" 
d="M294 67v-64q-19 -5 -54 -5q-65 0 -98.5 35.5t-33.5 103.5v312h-97v60h97v145h71v-145h117v-60h-117v-307q0 -80 70 -80q22 0 45 5zM184 -116q0 16 -7 33t-16 24l57 20q11 -11 20 -31.5t9 -43.5q0 -48 -22.5 -85t-49.5 -53l-39 46q19 12 33.5 36.5t14.5 53.5z" />
    <glyph glyph-name="Tcaron" unicode="&#x164;" horiz-adv-x="545" 
d="M536 710v-70h-227v-640h-73v640h-227v70h527zM272 764l-134 70v65l134 -67l135 67v-65z" />
    <glyph glyph-name="tcaron" unicode="&#x165;" horiz-adv-x="323" 
d="M294 67v-64q-19 -5 -54 -5q-65 0 -98.5 35.5t-33.5 103.5v312h-97v60h97v145h71v-145h117v-60h-117v-307q0 -80 70 -80q22 0 45 5zM278 682q0 15 -7 31.5t-16 23.5l56 19q11 -11 20 -30.5t9 -42.5q0 -47 -22.5 -82.5t-48.5 -50.5l-39 44q19 11 33.5 35t14.5 53z" />
    <glyph glyph-name="Tbar" unicode="&#x166;" horiz-adv-x="545" 
d="M536 710v-70h-227v-249h141v-62h-141v-329h-73v329h-141v62h141v249h-227v70h527z" />
    <glyph glyph-name="tbar" unicode="&#x167;" horiz-adv-x="323" 
d="M293 67v-64q-19 -5 -53 -5q-132 0 -132 139v129h-74v60h74v123h-97v60h97v145h71v-145h117v-60h-117v-123h87v-60h-87v-124q0 -80 70 -80q22 0 44 5z" />
    <glyph glyph-name="Utilde" unicode="&#x168;" horiz-adv-x="734" 
d="M367 -15q-62 0 -114 19.5t-89.5 58t-58 97t-20.5 133.5v417h73v-424q0 -107 55 -170.5t154 -63.5t154 63.5t55 170.5v424h73v-417q0 -75 -20.5 -133.5t-58 -97t-90 -58t-113.5 -19.5zM431 766q-29 0 -70 20t-62 20q-35 0 -42 -36h-55q2 20 12 42.5t34 37t55 14.5
q29 0 69.5 -19.5t61.5 -19.5q14 0 25.5 6.5t16.5 29.5h55q-3 -32 -19 -55t-38.5 -31.5t-42.5 -8.5z" />
    <glyph glyph-name="utilde" unicode="&#x169;" horiz-adv-x="593" 
d="M434 208v301h71v-509h-68v74q-11 -22 -36.5 -43.5t-59.5 -32t-69 -10.5q-91 0 -140.5 54t-49.5 141v326h71v-311q0 -71 32.5 -109.5t98.5 -38.5q39 0 75 17t55.5 55t19.5 86zM361 622q-29 0 -70 20t-62 20q-35 0 -42 -36h-55q2 20 12 42.5t34 37t55 14.5q29 0 69.5 -19.5
t61.5 -19.5q14 0 25.5 6.5t16.5 29.5h55q-3 -32 -19 -55t-38.5 -31.5t-42.5 -8.5z" />
    <glyph glyph-name="Umacron" unicode="&#x16a;" horiz-adv-x="734" 
d="M367 -15q-62 0 -114 19.5t-89.5 58t-58 97t-20.5 133.5v417h73v-424q0 -107 55 -170.5t154 -63.5t154 63.5t55 170.5v424h73v-417q0 -75 -20.5 -133.5t-58 -97t-90 -58t-113.5 -19.5zM528 830v-60h-321v60h321z" />
    <glyph glyph-name="umacron" unicode="&#x16b;" horiz-adv-x="593" 
d="M434 208v301h71v-509h-68v74q-11 -22 -36.5 -43.5t-59.5 -32t-69 -10.5q-91 0 -140.5 54t-49.5 141v326h71v-311q0 -71 32.5 -109.5t98.5 -38.5q39 0 75 17t55.5 55t19.5 86zM456 697v-60h-321v60h321z" />
    <glyph glyph-name="Ubreve" unicode="&#x16c;" horiz-adv-x="734" 
d="M367 -15q-62 0 -114 19.5t-89.5 58t-58 97t-20.5 133.5v417h73v-424q0 -107 55 -170.5t154 -63.5t154 63.5t55 170.5v424h73v-417q0 -75 -20.5 -133.5t-58 -97t-90 -58t-113.5 -19.5zM367 818q36 0 58 20.5t22 56.5h57q0 -22 -6.5 -45t-24.5 -44t-47.5 -31t-58.5 -10
t-55.5 9t-44.5 25.5t-28 41t-10 54.5h58q0 -36 22 -56.5t58 -20.5z" />
    <glyph glyph-name="ubreve" unicode="&#x16d;" horiz-adv-x="593" 
d="M434 208v301h71v-509h-68v74q-11 -22 -36.5 -43.5t-59.5 -32t-69 -10.5q-91 0 -140.5 54t-49.5 141v326h71v-311q0 -71 32.5 -109.5t98.5 -38.5q39 0 75 17t55.5 55t19.5 86zM296 648q36 0 58 20.5t22 56.5h57q0 -22 -6.5 -45t-24.5 -44t-47.5 -31t-58.5 -10t-55.5 9
t-44.5 25.5t-28 41t-10 54.5h58q0 -36 22 -56.5t58 -20.5z" />
    <glyph glyph-name="Uring" unicode="&#x16e;" horiz-adv-x="734" 
d="M367 -15q-62 0 -114 19.5t-89.5 58t-58 97t-20.5 133.5v417h73v-424q0 -107 55 -170.5t154 -63.5t154 63.5t55 170.5v424h73v-417q0 -75 -20.5 -133.5t-58 -97t-90 -58t-113.5 -19.5zM313 860q0 -27 16 -45t44 -18q27 0 43.5 18t16.5 45q0 26 -16.5 44.5t-43.5 18.5
q-28 0 -44 -18.5t-16 -44.5zM261 860q0 21 10.5 47t38 44.5t63.5 18.5q23 0 49 -11t43.5 -38.5t17.5 -60.5q0 -34 -17.5 -61.5t-43.5 -38.5t-49 -11t-49.5 11t-44.5 38.5t-18 61.5z" />
    <glyph glyph-name="uring" unicode="&#x16f;" horiz-adv-x="593" 
d="M434 208v301h71v-509h-68v74q-11 -22 -36.5 -43.5t-59.5 -32t-69 -10.5q-91 0 -140.5 54t-49.5 141v326h71v-311q0 -71 32.5 -109.5t98.5 -38.5q39 0 75 17t55.5 55t19.5 86zM236 695q0 -27 16 -45t44 -18q27 0 43.5 18t16.5 45q0 26 -16.5 44.5t-43.5 18.5
q-28 0 -44 -18.5t-16 -44.5zM184 695q0 21 10.5 47t38 44.5t63.5 18.5q23 0 49 -11t43.5 -38.5t17.5 -60.5q0 -34 -17.5 -61.5t-43.5 -38.5t-49 -11t-49.5 11t-44.5 38.5t-18 61.5z" />
    <glyph glyph-name="Uhungarumlaut" unicode="&#x170;" horiz-adv-x="734" 
d="M367 -15q-62 0 -114 19.5t-89.5 58t-58 97t-20.5 133.5v417h73v-424q0 -107 55 -170.5t154 -63.5t154 63.5t55 170.5v424h73v-417q0 -75 -20.5 -133.5t-58 -97t-90 -58t-113.5 -19.5zM316 940h81l-85 -170h-61zM466 940h81l-86 -170h-61z" />
    <glyph glyph-name="uhungarumlaut" unicode="&#x171;" horiz-adv-x="593" 
d="M434 208v301h71v-509h-68v74q-11 -22 -36.5 -43.5t-59.5 -32t-69 -10.5q-91 0 -140.5 54t-49.5 141v326h71v-311q0 -71 32.5 -109.5t98.5 -38.5q39 0 75 17t55.5 55t19.5 86zM245 749h81l-85 -170h-61zM395 749h81l-86 -170h-61z" />
    <glyph glyph-name="Uogonek" unicode="&#x172;" horiz-adv-x="734" 
d="M444 -135l26 -41q-20 -18 -39 -26.5t-45 -8.5q-46 0 -71 30.5t-25 72.5q0 26 9 50.5t26 44.5q-53 6 -97.5 28.5t-76.5 61t-49 93.5t-17 123v417h73v-424q0 -107 55 -170.5t154 -63.5t154 63.5t55 170.5v424h73v-417q0 -86 -26.5 -150t-80 -105.5t-135.5 -50.5
q-29 -16 -44 -41t-15 -51q0 -23 12.5 -38.5t35.5 -15.5q14 0 25 6t23 18z" />
    <glyph glyph-name="uogonek" unicode="&#x173;" horiz-adv-x="593" 
d="M523 -127l26 -41q-20 -18 -39 -26.5t-45 -8.5q-46 0 -71 30.5t-25 72.5q0 36 17 69t51 55v50q-11 -22 -36.5 -43.5t-59.5 -32t-69 -10.5q-91 0 -140.5 54t-49.5 141v326h71v-311q0 -71 32.5 -109.5t98.5 -38.5q39 0 75 17t55.5 55t19.5 86v301h71v-509h-9
q-16 -8 -33 -21.5t-26.5 -34t-9.5 -41.5q0 -23 12.5 -38.5t35.5 -15.5q14 0 25 6t23 18z" />
    <glyph glyph-name="Wcircumflex" unicode="&#x174;" horiz-adv-x="1032" 
d="M515 613l-191 -613h-80l-228 710h82l185 -613h2l190 613h83l190 -614h2l186 614h79l-228 -711h-81l-189 614h-2zM382 830l134 70l135 -70v-65l-135 68l-134 -68v65z" />
    <glyph glyph-name="wcircumflex" unicode="&#x175;" horiz-adv-x="824" 
d="M549 0l-137 419h-1l-139 -419h-74l-176 509h76l137 -425l140 425h74l138 -425l139 425h75l-178 -509h-74zM277 664l134 70l135 -70v-65l-135 68l-134 -68v65z" />
    <glyph glyph-name="Ycircumflex" unicode="&#x176;" horiz-adv-x="615" 
d="M530 710h85l-271 -458v-252h-73v252l-271 458h82l225 -381h2zM173 829l134 70l135 -70v-65l-135 68l-134 -68v65z" />
    <glyph glyph-name="ycircumflex" unicode="&#x177;" horiz-adv-x="532" 
d="M142 -208l87 208l-213 509h77l173 -427l175 427h75l-302 -717h-72zM132 664l134 70l135 -70v-65l-135 68l-134 -68v65z" />
    <glyph glyph-name="Ydieresis" unicode="&#x178;" horiz-adv-x="615" 
d="M530 710h85l-271 -458v-252h-73v252l-271 458h82l225 -381h2zM232 762q-21 0 -34.5 13.5t-13.5 33.5q0 21 13.5 34.5t34.5 13.5t34.5 -13.5t13.5 -34.5q0 -20 -13.5 -33.5t-34.5 -13.5zM380 762q-21 0 -34.5 13.5t-13.5 33.5q0 21 13.5 34.5t34.5 13.5q20 0 34 -13.5
t14 -34.5q0 -20 -14 -33.5t-34 -13.5z" />
    <glyph glyph-name="Zacute" unicode="&#x179;" horiz-adv-x="659" 
d="M602 710v-63l-455 -578h459v-69h-554v63l456 578h-452v69h546zM353 939h77l-77 -170h-66z" />
    <glyph glyph-name="zacute" unicode="&#x17a;" horiz-adv-x="526" 
d="M472 452l-330 -389h334v-63h-426v57l330 389h-326v63h418v-57zM284 759h77l-77 -170h-66z" />
    <glyph glyph-name="Zdotaccent" unicode="&#x17b;" horiz-adv-x="659" 
d="M602 710v-63l-455 -578h459v-69h-554v63l456 578h-452v69h546zM329 775q-22 0 -36.5 14.5t-14.5 35.5q0 22 14.5 36.5t36.5 14.5t36.5 -14.5t14.5 -36.5q0 -21 -14.5 -35.5t-36.5 -14.5z" />
    <glyph glyph-name="zdotaccent" unicode="&#x17c;" horiz-adv-x="526" 
d="M472 452l-330 -389h334v-63h-426v57l330 389h-326v63h418v-57zM263 627q-22 0 -36.5 14.5t-14.5 35.5q0 22 14.5 36.5t36.5 14.5t36.5 -14.5t14.5 -36.5q0 -21 -14.5 -35.5t-36.5 -14.5z" />
    <glyph glyph-name="Zcaron" unicode="&#x17d;" horiz-adv-x="659" 
d="M602 710v-63l-455 -578h459v-69h-554v63l456 578h-452v69h546zM332 766l-134 70v65l134 -67l135 67v-65z" />
    <glyph glyph-name="zcaron" unicode="&#x17e;" horiz-adv-x="526" 
d="M472 452l-330 -389h334v-63h-426v57l330 389h-326v63h418v-57zM259 591l-134 70v65l134 -67l135 67v-65z" />
    <glyph glyph-name="florin" unicode="&#x192;" 
d="M336 366l-72 -372q-32 -164 -167 -164q-28 0 -53.5 9.5t-39.5 22.5l30 55q10 -9 27.5 -16.5t36.5 -7.5q39 0 61.5 25.5t34.5 84.5l71 363h-108l12 64h108l31 156q16 84 57.5 124t108.5 40q28 0 53.5 -9.5t39.5 -22.5l-30 -55q-10 9 -27.5 16.5t-36.5 7.5q-38 0 -61 -26
t-34 -84l-29 -147h110l-12 -64h-111z" />
    <glyph glyph-name="Aringacute" unicode="&#x1fa;" horiz-adv-x="673" 
d="M226 860q0 18 7.5 40.5t27.5 41t47 24.5l53 138h73l-64 -138q35 -10 56.5 -39.5t21.5 -66.5q0 -34 -17.5 -61.5t-43.5 -38.5t-49 -11t-49.5 11t-44.5 38.5t-18 61.5zM278 860q0 -27 16 -45t44 -18q27 0 43.5 18t16.5 45q0 26 -16.5 44.5t-43.5 18.5q-28 0 -44 -18.5
t-16 -44.5zM82 0h-78l292 710h79l293 -710h-81l-67 166h-370zM336 621h-2l-158 -387h317z" />
    <glyph glyph-name="aringacute" unicode="&#x1fb;" horiz-adv-x="577" 
d="M175 695q0 38 22 67.5t58 38.5l54 138h72l-64 -138q36 -10 58 -39t22 -67q0 -34 -17.5 -61.5t-44 -38.5t-49.5 -11t-49 11t-44 38.5t-18 61.5zM226 695q0 -27 16.5 -45t43.5 -18t43.5 18t16.5 45q0 26 -16.5 44.5t-43.5 18.5t-43.5 -18.5t-16.5 -44.5zM422 242
q-105 0 -168 -4t-91 -19q-19 -11 -30 -30t-11 -44q0 -49 30 -73.5t86 -24.5q88 0 136 40t48 107v48zM230 -12q-55 0 -93.5 17.5t-61.5 52t-23 85.5q0 45 24.5 81.5t67.5 53.5q27 11 75.5 17t202.5 6v33q0 126 -144 126q-58 0 -96 -25t-48 -76h-69q8 54 35.5 89.5t72.5 54
t108 18.5q106 0 159 -50t53 -138v-333h-68v74q-26 -42 -77.5 -64t-117.5 -22z" />
    <glyph glyph-name="AEacute" unicode="&#x1fc;" horiz-adv-x="986" 
d="M63 0h-85l429 710h522v-69h-404v-246h382v-69h-382v-257h404v-69h-477v166h-289zM446 638l-244 -404h250v404h-6zM575 940h77l-77 -170h-66z" />
    <glyph glyph-name="aeacute" unicode="&#x1fd;" horiz-adv-x="965" 
d="M52 140q0 74 53.5 113t158.5 39h159v39q0 129 -145 129q-58 0 -96 -25t-48 -76h-69q8 54 35.5 89.5t72.5 54t108 18.5q75 0 123 -28.5t69 -77.5q32 48 84 77t115 29q54 0 100 -20t78.5 -56t49.5 -83.5t17 -100.5l-1 -27h-423q5 -79 53.5 -130.5t126.5 -51.5q27 0 60 10
t60.5 36.5t40.5 60.5h74q-24 -76 -86.5 -123.5t-149.5 -47.5q-73 0 -129 34.5t-86 90.5q-12 -27 -39.5 -57t-76.5 -49t-107 -19q-88 0 -135 41t-47 111zM672 457q-72 0 -120 -46.5t-57 -118.5h351q-8 74 -54 119.5t-120 45.5zM122 140q0 -49 34.5 -71t83.5 -22q32 0 65 9
t58.5 29t42 50t16.5 67v31h-159q-72 0 -106.5 -22t-34.5 -71zM503 759h77l-77 -170h-66z" />
    <glyph glyph-name="Oslashacute" unicode="&#x1fe;" horiz-adv-x="828" 
d="M438 940h77l-77 -170h-66zM776 355q0 -76 -26 -144t-74 -118.5t-115.5 -79t-146.5 -28.5q-63 0 -120 18t-100 51l-77 -92l-39 33l77 93q-49 50 -76 119.5t-27 147.5q0 76 26 144t74 118.5t115.5 79t146.5 28.5q122 0 215 -67l75 90l39 -35l-74 -89q50 -50 78.5 -120.5
t28.5 -148.5zM699 355q0 63 -20.5 118.5t-57.5 94.5l-380 -459q73 -56 173 -56q75 0 137.5 34t96.5 88.5t42.5 101.5t8.5 78zM128 355q0 -62 20 -116.5t55 -93.5l379 458q-72 53 -168 53q-60 0 -113 -22t-91.5 -62t-60 -96t-21.5 -121z" />
    <glyph glyph-name="oslashacute" unicode="&#x1ff;" horiz-adv-x="617" 
d="M334 759h77l-77 -170h-66zM308 -12q-86 0 -151 46l-53 -63l-35 30l54 63q-35 36 -54.5 86t-19.5 104q0 52 18 100.5t52 86t83 59t106 21.5q89 0 155 -50l63 75l35 -30l-63 -75q33 -36 51.5 -85.5t18.5 -101.5t-18 -100.5t-52.5 -85.5t-83 -58.5t-106.5 -21.5zM496 254
q0 38 -11.5 73t-31.5 60l-253 -303q22 -14 50.5 -23t57.5 -9q52 0 97 26t68 74.5t23 101.5zM121 254q0 -83 46 -137l253 304q-21 16 -51 26t-61 10q-51 0 -96 -26t-68 -75t-23 -102z" />
    <glyph glyph-name="Scommaaccent" unicode="&#x218;" horiz-adv-x="633" 
d="M307 52q88 0 139 34.5t51 98.5q0 19 -6 40.5t-21.5 38.5t-44 31.5t-128 35t-132.5 39t-51 38.5t-28 49.5t-10 67.5t16 74.5t47 64.5t77 44.5t103 16.5t103 -17.5t77 -48.5t47.5 -73.5t17.5 -90.5h-71q-2 74 -48.5 119t-124.5 45q-79 0 -125 -35.5t-46 -95.5
q0 -27 11.5 -51t43 -43t123.5 -38.5t124.5 -32.5t54.5 -29.5t37.5 -40t21.5 -51t6 -52.5q0 -33 -12.5 -68.5t-48.5 -69t-91.5 -50t-113.5 -16.5q-82 0 -139 27.5t-90 78.5t-36 123h72q6 -79 58 -121t137 -42zM298 -116q0 16 -7 33t-16 24l57 20q11 -11 20 -31.5t9 -43.5
q0 -48 -22.5 -85t-49.5 -53l-39 46q19 12 33.5 36.5t14.5 53.5z" />
    <glyph glyph-name="scommaaccent" unicode="&#x219;" horiz-adv-x="504" 
d="M244 -116q0 16 -7 33t-16 24l57 20q11 -11 20 -31.5t9 -43.5q0 -48 -22.5 -85t-49.5 -53l-39 46q19 12 33.5 36.5t14.5 53.5zM250 -12q-52 0 -87 12t-59.5 31t-42 51.5t-20.5 76.5h72q4 -50 39 -79.5t98 -29.5q62 0 98 24t36 62q0 19 -8.5 35.5t-32 29t-95.5 25.5
t-106 27.5t-53.5 43t-19.5 74.5q0 37 22 73t67.5 56.5t99.5 20.5q37 0 72.5 -10t64.5 -35t42 -58t15 -58h-71q-5 43 -36.5 71t-88.5 28q-27 0 -55.5 -8.5t-45.5 -29.5t-17 -47q0 -25 13 -41t38 -25.5t80.5 -19.5t85 -19.5t51 -25t34.5 -41.5t13 -64q0 -29 -12.5 -56
t-38 -48.5t-64.5 -33.5t-88 -12z" />
    <glyph glyph-name="circumflex" unicode="&#x2c6;" horiz-adv-x="418" 
d="M75 664l134 70l135 -70v-65l-135 68l-134 -68v65z" />
    <glyph glyph-name="caron" unicode="&#x2c7;" horiz-adv-x="418" 
d="M209 591l-134 70v65l134 -67l135 67v-65z" />
    <glyph glyph-name="breve" unicode="&#x2d8;" horiz-adv-x="374" 
d="M187 648q36 0 58 20.5t22 56.5h57q0 -22 -6.5 -45t-24.5 -44t-47.5 -31t-58.5 -10t-55.5 9t-44.5 25.5t-28 41t-10 54.5h58q0 -36 22 -56.5t58 -20.5z" />
    <glyph glyph-name="dotaccent" unicode="&#x2d9;" horiz-adv-x="246" 
d="M123 627q-22 0 -36.5 14.5t-14.5 35.5q0 22 14.5 36.5t36.5 14.5t36.5 -14.5t14.5 -36.5q0 -21 -14.5 -35.5t-36.5 -14.5z" />
    <glyph glyph-name="ring" unicode="&#x2da;" horiz-adv-x="303" 
d="M93 695q0 -27 16 -45t44 -18q27 0 43.5 18t16.5 45q0 26 -16.5 44.5t-43.5 18.5q-28 0 -44 -18.5t-16 -44.5zM41 695q0 21 10.5 47t38 44.5t63.5 18.5q23 0 49 -11t43.5 -38.5t17.5 -60.5q0 -34 -17.5 -61.5t-43.5 -38.5t-49 -11t-49.5 11t-44.5 38.5t-18 61.5z" />
    <glyph glyph-name="ogonek" unicode="&#x2db;" horiz-adv-x="271" 
d="M200 -127l26 -41q-20 -18 -39 -26.5t-45 -8.5q-46 0 -71 30.5t-25 72.5q0 44 25.5 82.5t76.5 60.5l30 -41q-36 -16 -55 -43t-19 -56q0 -23 12.5 -38.5t35.5 -15.5q14 0 25 6t23 18z" />
    <glyph glyph-name="tilde" unicode="&#x2dc;" horiz-adv-x="421" 
d="M275 622q-29 0 -70 20t-62 20q-35 0 -42 -36h-55q2 20 12 42.5t34 37t55 14.5q29 0 69.5 -19.5t61.5 -19.5q14 0 25.5 6.5t16.5 29.5h55q-3 -32 -19 -55t-38.5 -31.5t-42.5 -8.5z" />
    <glyph glyph-name="hungarumlaut" unicode="&#x2dd;" horiz-adv-x="412" 
d="M123 749h81l-85 -170h-61zM273 749h81l-86 -170h-61z" />
    <glyph glyph-name="pi" unicode="&#x3c0;" horiz-adv-x="793" 
d="M30 356q0 76 27 144t76.5 118.5t118 78.5t147.5 28t147.5 -28t118 -78.5t76.5 -118.5t27 -144t-27 -144t-76.5 -118.5t-118 -78.5t-147.5 -28t-147.5 28t-118 78.5t-76.5 118.5t-27 144zM92 356q0 -67 22 -125t63 -100.5t98 -65.5t124 -23t124.5 23t98.5 65.5t63 100.5
t22 125t-22 125t-63 100t-98.5 65.5t-124.5 23.5t-124 -23.5t-98 -65.5t-63 -100t-22 -125zM266 162v377h159q37 0 65.5 -10t47.5 -28t28 -42.5t9 -50.5q0 -25 -11.5 -56t-47.5 -52.5t-91 -21.5h-97v-116h-62zM328 335h95q43 0 66.5 18.5t23.5 54.5t-23 55t-67 19h-95v-147z
" />
    <glyph glyph-name="Wgrave" unicode="&#x1e80;" horiz-adv-x="1032" 
d="M515 613l-191 -613h-80l-228 710h82l185 -613h2l190 613h83l190 -614h2l186 614h79l-228 -711h-81l-189 614h-2zM406 940h78l66 -170h-66z" />
    <glyph glyph-name="wgrave" unicode="&#x1e81;" horiz-adv-x="824" 
d="M549 0l-137 419h-1l-139 -419h-74l-176 509h76l137 -425l140 425h74l138 -425l139 425h75l-178 -509h-74zM299 759h78l66 -170h-66z" />
    <glyph glyph-name="Wacute" unicode="&#x1e82;" horiz-adv-x="1032" 
d="M515 613l-191 -613h-80l-228 710h82l185 -613h2l190 613h83l190 -614h2l186 614h79l-228 -711h-81l-189 614h-2zM550 940h77l-77 -170h-66z" />
    <glyph glyph-name="wacute" unicode="&#x1e83;" horiz-adv-x="824" 
d="M549 0l-137 419h-1l-139 -419h-74l-176 509h76l137 -425l140 425h74l138 -425l139 425h75l-178 -509h-74zM441 759h77l-77 -170h-66z" />
    <glyph glyph-name="Wdieresis" unicode="&#x1e84;" horiz-adv-x="1032" 
d="M515 613l-191 -613h-80l-228 710h82l185 -613h2l190 613h83l190 -614h2l186 614h79l-228 -711h-81l-189 614h-2zM442 767q-21 0 -34.5 13.5t-13.5 33.5q0 21 13.5 34.5t34.5 13.5t34.5 -13.5t13.5 -34.5q0 -20 -13.5 -33.5t-34.5 -13.5zM590 767q-21 0 -34.5 13.5
t-13.5 33.5q0 21 13.5 34.5t34.5 13.5q20 0 34 -13.5t14 -34.5q0 -20 -14 -33.5t-34 -13.5z" />
    <glyph glyph-name="wdieresis" unicode="&#x1e85;" horiz-adv-x="824" 
d="M549 0l-137 419h-1l-139 -419h-74l-176 509h76l137 -425l140 425h74l138 -425l139 425h75l-178 -509h-74zM337 630q-21 0 -34.5 13.5t-13.5 33.5q0 21 13.5 34.5t34.5 13.5t34.5 -13.5t13.5 -34.5q0 -20 -13.5 -33.5t-34.5 -13.5zM485 630q-21 0 -34.5 13.5t-13.5 33.5
q0 21 13.5 34.5t34.5 13.5q20 0 34 -13.5t14 -34.5q0 -20 -14 -33.5t-34 -13.5z" />
    <glyph glyph-name="Ygrave" unicode="&#x1ef2;" horiz-adv-x="615" 
d="M530 710h85l-271 -458v-252h-73v252l-271 458h82l225 -381h2zM204 940h78l66 -170h-66z" />
    <glyph glyph-name="ygrave" unicode="&#x1ef3;" horiz-adv-x="532" 
d="M142 -208l87 208l-213 509h77l173 -427l175 427h75l-302 -717h-72zM161 759h78l66 -170h-66z" />
    <glyph glyph-name="endash" unicode="&#x2013;" horiz-adv-x="500" 
d="M500 288v-67h-500v67h500z" />
    <glyph glyph-name="emdash" unicode="&#x2014;" horiz-adv-x="1000" 
d="M1000 288v-67h-1000v67h1000z" />
    <glyph glyph-name="quoteleft" unicode="&#x2018;" horiz-adv-x="215" 
d="M123 511h-80l68 199h61z" />
    <glyph glyph-name="quoteright" unicode="&#x2019;" horiz-adv-x="215" 
d="M91 710h81l-68 -199h-61z" />
    <glyph glyph-name="quotesinglbase" unicode="&#x201a;" horiz-adv-x="215" 
d="M91 94h81l-68 -198h-61z" />
    <glyph glyph-name="quotedblleft" unicode="&#x201c;" horiz-adv-x="368" 
d="M277 511h-81l68 199h61zM123 511h-80l68 199h61z" />
    <glyph glyph-name="quotedblright" unicode="&#x201d;" horiz-adv-x="368" 
d="M91 710h81l-68 -199h-61zM245 710h80l-68 -199h-61z" />
    <glyph glyph-name="quotedblbase" unicode="&#x201e;" horiz-adv-x="368" 
d="M91 95h81l-68 -199h-61zM245 95h80l-68 -199h-61z" />
    <glyph glyph-name="dagger" unicode="&#x2020;" horiz-adv-x="525" 
d="M298 -80h-71v524h-177v65h177v201h71v-201h178v-65h-178v-524z" />
    <glyph glyph-name="daggerdbl" unicode="&#x2021;" horiz-adv-x="525" 
d="M227 710h71v-201h178v-65h-178v-258h178v-65h-178v-201h-71v201h-177v65h177v258h-177v65h177v201z" />
    <glyph glyph-name="bullet" unicode="&#x2022;" horiz-adv-x="517" 
d="M111 357q0 61 43 104.5t104 43.5t104.5 -43.5t43.5 -104.5t-43.5 -104t-104.5 -43t-104 43t-43 104z" />
    <glyph glyph-name="ellipsis" unicode="&#x2026;" horiz-adv-x="646" 
d="M107 -8q-23 0 -38.5 15t-15.5 37q0 23 15 38t39 15q22 0 37.5 -15t15.5 -38q0 -22 -15.5 -37t-37.5 -15zM323 -8q-23 0 -38 15t-15 37q0 23 15 38t38 15q22 0 37.5 -15t15.5 -38q0 -22 -15.5 -37t-37.5 -15zM540 -8q-23 0 -38.5 15t-15.5 37q0 23 15 38t39 15
q22 0 37.5 -15t15.5 -38q0 -22 -15.5 -37t-37.5 -15z" />
    <glyph glyph-name="perthousand" unicode="&#x2030;" horiz-adv-x="1282" 
d="M233 0l392 710h62l-392 -710h-62zM128 490q0 -168 93 -168q44 0 68 41.5t24 126.5q0 169 -92 169q-93 0 -93 -169zM66 490q0 107 39.5 166.5t115.5 59.5q75 0 114.5 -59.5t39.5 -166.5q0 -106 -39.5 -165.5t-114.5 -59.5q-76 0 -115.5 59.5t-39.5 165.5zM607 219
q0 -168 93 -168q44 0 68 41.5t24 126.5t-24 127t-68 42q-45 0 -69 -42t-24 -127zM545 219q0 106 39.5 166t115.5 60q75 0 114.5 -60t39.5 -166t-39.5 -165.5t-114.5 -59.5q-76 0 -115.5 59.5t-39.5 165.5zM968 219q0 -168 93 -168t93 168q0 85 -24 127t-69 42t-69 -42
t-24 -127zM906 219q0 106 40 166t115 60t115 -60t40 -166t-40 -165.5t-115 -59.5t-115 59.5t-40 165.5z" />
    <glyph glyph-name="guilsinglleft" unicode="&#x2039;" horiz-adv-x="312" 
d="M63 258l110 212h75l-110 -212l110 -211h-75z" />
    <glyph glyph-name="guilsinglright" unicode="&#x203a;" horiz-adv-x="313" 
d="M139 470l109 -212l-109 -211h-76l110 211l-110 212h76z" />
    <glyph glyph-name="fraction" unicode="&#x2044;" horiz-adv-x="383" 
d="M-36 0l392 710h63l-392 -710h-63z" />
    <glyph glyph-name="uni2070" unicode="&#x2070;" horiz-adv-x="394" 
d="M104 653q0 -168 93 -168t93 168q0 169 -93 169t-93 -169zM42 653q0 107 40 166.5t115 59.5t115 -59.5t40 -166.5q0 -106 -40 -165.5t-115 -59.5t-115 59.5t-40 165.5z" />
    <glyph glyph-name="uni2074" unicode="&#x2074;" horiz-adv-x="392" 
d="M358 593v-54h-60v-102h-58v102h-205v50l201 280h62v-276h60zM240 786l-139 -193h139v193z" />
    <glyph glyph-name="uni2075" unicode="&#x2075;" horiz-adv-x="392" 
d="M53 563h62q3 -25 15.5 -44.5t32.5 -27.5t40 -8q39 0 63 26t24 70q0 30 -13 52t-34 30.5t-40 8.5q-27 0 -51 -13.5t-33 -40.5h-58l36 253h234v-57h-184l-16 -112q8 9 30 16.5t48 7.5q24 0 49 -7.5t48 -28t34.5 -51t11.5 -58.5q0 -39 -18.5 -75.5t-54.5 -56t-76 -19.5
q-65 0 -104 38t-46 97z" />
    <glyph glyph-name="uni2076" unicode="&#x2076;" horiz-adv-x="390" 
d="M208 869h85q-108 -88 -152 -164q11 8 28.5 14.5t36.5 6.5q65 0 105.5 -43.5t40.5 -105.5q0 -38 -19 -74t-55.5 -55.5t-77.5 -19.5q-43 0 -79.5 20t-54.5 57.5t-18 77.5q0 141 160 286zM289 577q0 41 -25.5 68t-63.5 27q-39 0 -64 -27t-25 -68t25 -67.5t64 -26.5
q38 0 63.5 27t25.5 67z" />
    <glyph glyph-name="uni2077" unicode="&#x2077;" horiz-adv-x="332" 
d="M315 869v-49q-66 -84 -107.5 -176t-64.5 -207h-64q47 225 158 375h-150v-58h-59v115h287z" />
    <glyph glyph-name="uni2078" unicode="&#x2078;" horiz-adv-x="389" 
d="M194 481q43 0 66 21t23 55t-24 54t-65 20t-65 -20t-24 -54t23.5 -55t65.5 -21zM194 686q37 0 58.5 19.5t21.5 50.5t-21 50t-59 19t-59 -19t-21 -50t21.5 -50.5t58.5 -19.5zM194 428q-27 0 -57.5 7.5t-52 27.5t-30.5 44t-9 49q0 33 16 61t45 44q-25 16 -37.5 41.5
t-12.5 54.5q0 24 12 53t44.5 49t81.5 20q32 0 64 -11.5t53 -42.5t21 -68q0 -28 -13.5 -54t-37.5 -42q31 -16 46.5 -43.5t15.5 -61.5q0 -25 -9 -49t-28 -42t-47.5 -27.5t-64.5 -9.5z" />
    <glyph glyph-name="uni2079" unicode="&#x2079;" horiz-adv-x="390" 
d="M182 437h-85q109 90 152 165q-11 -8 -28.5 -14.5t-36.5 -6.5q-65 0 -105.5 43.5t-40.5 105.5q0 38 19 74t55.5 55.5t77.5 19.5q43 0 79.5 -20t54.5 -57.5t18 -77.5q0 -142 -160 -287zM101 730q0 -41 25.5 -68t63.5 -27q39 0 64 27t25 68t-25 67.5t-64 26.5
q-38 0 -63.5 -27t-25.5 -67z" />
    <glyph glyph-name="uni2080" unicode="&#x2080;" horiz-adv-x="394" 
d="M104 56q0 -168 93 -168t93 168q0 85 -24 127t-69 42t-69 -42t-24 -127zM42 56q0 106 40 166t115 60t115 -60t40 -166t-40 -165.5t-115 -59.5t-115 59.5t-40 165.5z" />
    <glyph glyph-name="uni2081" unicode="&#x2081;" horiz-adv-x="275" 
d="M179 272v-432h-61v373h-91v47l106 12h46z" />
    <glyph glyph-name="uni2082" unicode="&#x2082;" horiz-adv-x="385" 
d="M341 -160h-292v47l170 151q28 26 41 49t13 54q0 37 -21.5 60.5t-58.5 23.5q-40 0 -61.5 -25t-21.5 -67l1 -15h-61l-1 16q0 66 39.5 106.5t104.5 40.5q33 0 60 -10.5t45.5 -30t27.5 -45.5t9 -52q0 -32 -15 -68t-65 -79l-114 -99h200v-57z" />
    <glyph glyph-name="uni2083" unicode="&#x2083;" horiz-adv-x="387" 
d="M139 33v52h49q41 0 62 19.5t21 50.5q0 33 -20.5 52t-60.5 19q-37 0 -57.5 -21.5t-23.5 -55.5h-60q5 57 43 95t98 38q34 0 60.5 -9t45 -25.5t27 -40.5t8.5 -49q0 -22 -8.5 -42.5t-23.5 -33.5t-29 -20q32 -11 50 -39t18 -60q0 -59 -40 -95.5t-108 -36.5q-65 0 -103 37.5
t-43 100.5h59q3 -37 26 -59.5t61 -22.5q37 0 61 20t24 57q0 69 -88 69h-48z" />
    <glyph glyph-name="uni2084" unicode="&#x2084;" horiz-adv-x="392" 
d="M358 -4v-54h-60v-102h-58v102h-205v50l201 280h62v-276h60zM240 189l-139 -193h139v193z" />
    <glyph glyph-name="uni2085" unicode="&#x2085;" horiz-adv-x="392" 
d="M53 -28h62q3 -25 15.5 -44.5t32.5 -27.5t40 -8q39 0 63 26t24 70q0 30 -13 52t-34 30.5t-40 8.5q-18 0 -36.5 -6.5t-30.5 -20.5t-17 -28h-58l36 254h234v-57h-184l-16 -112q9 9 30.5 16.5t47.5 7.5q24 0 49 -7.5t48 -28t34.5 -51t11.5 -58.5q0 -39 -18.5 -75.5t-54.5 -56
t-76 -19.5q-66 0 -104.5 38t-45.5 97z" />
    <glyph glyph-name="uni2086" unicode="&#x2086;" horiz-adv-x="390" 
d="M208 278h85q-110 -91 -152 -164q11 8 28.5 14.5t36.5 6.5q41 0 76 -20t52.5 -56t17.5 -73q0 -22 -7.5 -47t-25.5 -47.5t-48 -38.5t-71 -16q-43 0 -76.5 18t-54.5 53t-21 84q0 141 160 286zM289 -14q0 41 -25.5 67.5t-63.5 26.5q-39 0 -64 -26.5t-25 -67.5t25 -67.5
t64 -26.5q38 0 63.5 26.5t25.5 67.5z" />
    <glyph glyph-name="uni2087" unicode="&#x2087;" horiz-adv-x="332" 
d="M315 272v-49q-66 -84 -107.5 -176t-64.5 -207h-64q47 225 158 375h-150v-58h-59v115h287z" />
    <glyph glyph-name="uni2088" unicode="&#x2088;" horiz-adv-x="389" 
d="M194 -116q43 0 66 21t23 55t-24 54t-65 20t-65 -20t-24 -54t23.5 -55t65.5 -21zM194 89q37 0 58.5 19.5t21.5 50.5t-21 50t-59 19t-59 -19t-21 -50t21.5 -50.5t58.5 -19.5zM194 -169q-27 0 -57.5 7.5t-52 27.5t-30.5 44t-9 49q0 33 16 61t45 44q-25 16 -37.5 41.5
t-12.5 54.5q0 24 12 53t44.5 49t81.5 20q32 0 64 -11.5t53 -42.5t21 -68q0 -28 -13.5 -54t-37.5 -42q31 -16 46.5 -43.5t15.5 -61.5q0 -25 -9 -49t-28 -42t-47.5 -27.5t-64.5 -9.5z" />
    <glyph glyph-name="uni2089" unicode="&#x2089;" horiz-adv-x="390" 
d="M182 -160h-85q107 87 152 165q-11 -8 -28.5 -14.5t-36.5 -6.5q-32 0 -59.5 11.5t-47 32.5t-29.5 49t-10 55q0 46 22 80t55.5 52t74.5 18q43 0 79.5 -20t54.5 -57.5t18 -78.5q0 -141 -160 -286zM101 132q0 -41 25.5 -67.5t63.5 -26.5q39 0 64 26.5t25 67.5t-25 67.5
t-64 26.5q-38 0 -63.5 -26.5t-25.5 -67.5z" />
    <glyph glyph-name="Euro" unicode="&#x20ac;" 
d="M44 253v58h67l-1 44l1 46h-67v58h74q11 61 35.5 110.5t62 84t88 53t112.5 18.5q27 0 65.5 -6t67.5 -21v-71q-21 12 -58 22t-75 10q-37 0 -73.5 -9.5t-66.5 -33t-51.5 -62t-31.5 -95.5h224v-58h-231l-2 -46l1 -44h232v-58h-224q35 -201 223 -201q38 0 75 9.5t58 21.5v-71
q-20 -11 -56.5 -19t-76.5 -8q-124 0 -200.5 71t-97.5 197h-74z" />
    <glyph glyph-name="trademark" unicode="&#x2122;" horiz-adv-x="869" 
d="M598 529l141 181h55v-410h-60v316l-134 -171h-4l-135 171v-316h-60v410h55zM349 710v-57h-127v-353h-59v353h-127v57h313z" />
    <glyph glyph-name="minus" unicode="&#x2212;" 
d="M549 288v-68h-516v68h516z" />
    <glyph glyph-name="approxequal" unicode="&#x2248;" 
d="M46 315q15 31 53 55t90 24q44 0 99 -20t75.5 -23t30.5 -3q31 0 54.5 14.5t33.5 33.5l53 -38q-15 -31 -52.5 -55.5t-89.5 -24.5q-43 0 -107 23t-98 23q-31 0 -54.5 -14.5t-33.5 -32.5zM46 142q15 31 53 55t90 24q44 0 99 -20t75.5 -23t30.5 -3q31 0 54.5 14.5t33.5 32.5
l53 -37q-15 -31 -52.5 -55.5t-89.5 -24.5q-43 0 -107 23t-98 23q-31 0 -54.5 -14.5t-33.5 -32.5z" />
    <glyph glyph-name="notequal" unicode="&#x2260;" 
d="M549 187v-69h-284l-57 -118h-77l57 118h-155v69h185l66 134h-251v69h282l58 119h77l-58 -119h157v-69h-188l-66 -134h254z" />
    <glyph glyph-name="lessequal" unicode="&#x2264;" 
d="M208 0l-188 254l188 255h84l-164 -221h434v-67h-434l164 -221h-84z" />
    <glyph glyph-name="greaterequal" unicode="&#x2265;" 
d="M562 254l-188 -254h-84l164 221h-434v67h434l-164 221h84z" />
    <glyph glyph-name="hyphen.aalt" horiz-adv-x="396" 
d="M352 393v-66h-308v66h308z" />
    <glyph glyph-name="exclamdown.aalt" horiz-adv-x="247" 
d="M94 546h59l12 -546h-83zM124 718q22 0 37.5 -15t15.5 -38t-15.5 -38t-37.5 -15q-24 0 -39 15t-15 38t15 38t39 15z" />
    <glyph glyph-name="questiondown.aalt" horiz-adv-x="522" 
d="M484 196q0 -32 -10 -67t-38.5 -71t-74.5 -54.5t-95 -18.5q-64 0 -111.5 23t-76.5 67.5t-29 107.5q0 46 19.5 89t71.5 92t62.5 59.5t20 25t14 28t4.5 28.5q0 18 -4 41h70q5 -24 5 -42q0 -20 -6 -43t-24 -49t-59 -63.5t-54.5 -53t-22.5 -30t-16 -34t-7 -44.5
q0 -63 38.5 -99.5t104.5 -36.5q65 0 104.5 41t39.5 108q0 22 -3 39h74q3 -20 3 -43zM268 718q23 0 38.5 -15t15.5 -37q0 -23 -15 -38t-39 -15q-22 0 -37.5 15t-15.5 38q0 22 15.5 37t37.5 15z" />
    <glyph glyph-name="endash.aalt" horiz-adv-x="500" 
d="M500 393v-66h-500v66h500z" />
    <glyph glyph-name="emdash.aalt" horiz-adv-x="1000" 
d="M1000 393v-66h-1000v66h1000z" />
    <glyph glyph-name="periodcentered.aalt" horiz-adv-x="216" 
d="M108 307q-24 0 -39.5 15t-15.5 38q0 24 15.5 39.5t39.5 15.5q23 0 39 -16t16 -39t-16 -38t-39 -15z" />
    <glyph glyph-name="parenleft.aalt" horiz-adv-x="315" 
d="M163 355q0 -255 116 -458h-72q-55 89 -86 209.5t-31 248.5t31 248.5t86 209.5h72q-116 -204 -116 -458z" />
    <glyph glyph-name="parenright.aalt" horiz-adv-x="315" 
d="M152 355q0 252 -117 458h72q26 -42 54.5 -110t46 -161t17.5 -187q0 -60 -10 -140.5t-38.5 -166t-69.5 -151.5h-72q117 205 117 458z" />
    <glyph glyph-name="bracketleft.aalt" horiz-adv-x="301" 
d="M279 -38v-65h-204v916h204v-66h-135v-785h135z" />
    <glyph glyph-name="bracketright.aalt" horiz-adv-x="301" 
d="M22 -103v65h135v785h-135v66h204v-916h-204z" />
    <glyph glyph-name="braceleft.aalt" horiz-adv-x="314" 
d="M243 -103q-64 0 -96.5 36t-32.5 101v235q0 54 -51 54h-23v63h23q51 0 51 55v235q0 40 12.5 69.5t40.5 48.5t76 19q30 0 49 -5v-65q-21 4 -45 4q-34 0 -49 -17.5t-15 -51.5v-232q0 -68 -40 -91q40 -25 40 -92v-232q0 -34 15 -51.5t49 -17.5q24 0 45 5v-66q-19 -4 -49 -4z
" />
    <glyph glyph-name="braceright.aalt" horiz-adv-x="314" 
d="M71 -103q-30 0 -49 4v66q21 -5 44 -5q35 0 50 17.5t15 51.5v232q0 68 40 92q-40 23 -40 91v232q0 34 -15 51.5t-50 17.5q-23 0 -44 -4v65q19 5 49 5q63 0 95.5 -36.5t32.5 -100.5v-235q0 -55 51 -55h24v-63h-24q-51 0 -51 -54v-235q0 -65 -32 -101t-96 -36z" />
    <glyph glyph-name="at.aalt" horiz-adv-x="825" 
d="M502 379q0 35 -11.5 61t-32 36t-41.5 10q-41 0 -69.5 -25t-39 -62.5t-10.5 -69.5q0 -108 93 -108q25 0 50.5 16.5t43 57t17.5 84.5zM653 130h67q-48 -69 -128.5 -109.5t-173.5 -40.5q-84 0 -153 27t-116.5 76.5t-72.5 117.5t-25 148q0 77 26.5 146.5t76.5 122t121 82
t154 29.5q77 0 141.5 -23t110 -65t69.5 -100.5t24 -125.5q0 -70 -27 -129t-73.5 -88.5t-91.5 -29.5q-18 0 -36.5 6.5t-31 21.5t-17.5 33q-22 -32 -54 -46.5t-64 -14.5q-66 0 -105 43t-39 117q0 41 11.5 80t34.5 69t55.5 47t72.5 17q38 0 69 -17t46 -49l11 52h58l-44 -222
q-3 -13 -3 -27q0 -26 12.5 -40.5t34.5 -14.5q28 0 51.5 14.5t40 41t24.5 62t8 69.5q0 61 -21 111t-59 84t-92 52t-117 18q-72 0 -131.5 -25t-100.5 -69.5t-62.5 -104.5t-21.5 -127q0 -72 21.5 -131.5t61.5 -100.5t97.5 -62.5t126.5 -21.5q37 0 82 10t86 34t66 53z" />
    <glyph glyph-name="zero.zero" 
d="M291 -15q-58 0 -105 26t-78.5 74.5t-48 117.5t-16.5 152t16.5 152t48 117.5t78.5 74.5t105 26t104.5 -26t78.5 -74.5t48.5 -117.5t16.5 -152t-16.5 -152t-48.5 -117.5t-78.5 -74.5t-104.5 -26zM291 657q-81 0 -127 -77.5t-46 -224.5q0 -148 50 -225l204 502
q-37 25 -81 25zM291 53q81 0 127 77t46 225q0 73 -13.5 130.5t-37.5 93.5l-204 -501q35 -25 82 -25z" />
    <glyph glyph-name="glyph374" horiz-adv-x="208" 
d="M96 -116q0 16 -7 33t-16 24l57 20q11 -11 20 -31.5t9 -43.5q0 -48 -22.5 -85t-49.5 -53l-39 46q19 12 33.5 36.5t14.5 53.5z" />
    <glyph glyph-name="zero.oldstyle.pnum" horiz-adv-x="636" 
d="M123 264q0 -90 53.5 -150t141.5 -60t141.5 60t53.5 150q0 91 -53.5 151t-141.5 60t-141.5 -60t-53.5 -151zM49 264q0 41 11 81t31.5 73.5t55.5 63.5t81.5 44.5t89.5 14.5q28 0 63.5 -7t70 -26.5t65.5 -53t50.5 -84t19.5 -106.5t-19.5 -106.5t-55 -88.5t-86 -59.5
t-108.5 -21.5t-108.5 21.5t-86 59.5t-55 88.5t-19.5 106.5z" />
    <glyph glyph-name="one.oldstyle.pnum" horiz-adv-x="324" 
d="M209 0h-71v458h-108v50l124 21h55v-529z" />
    <glyph glyph-name="two.oldstyle.pnum" horiz-adv-x="513" 
d="M132 322h-73l-2 19q0 92 53 146t147 54q90 0 142 -49t52 -127q0 -62 -39 -113.5t-142 -120.5l-99 -66h307v-65h-423v59l168 116q63 44 95.5 73.5t45.5 58t13 57.5q0 35 -18.5 62.5t-47 38t-55.5 10.5q-26 0 -47.5 -7.5t-37.5 -21t-28 -40t-12 -66.5z" />
    <glyph glyph-name="three.oldstyle.pnum" horiz-adv-x="534" 
d="M197 182v65h59q69 0 105 33t36 79q0 38 -17 63.5t-45 38t-68 12.5q-59 0 -92.5 -34t-37.5 -83h-74q7 84 62 134.5t142 50.5q95 0 149 -49.5t54 -129.5q0 -45 -25.5 -85t-71.5 -60q54 -18 80 -57.5t26 -92.5q0 -30 -9.5 -63t-37 -65.5t-72.5 -49t-93 -16.5q-47 0 -86 15
t-67 42.5t-44.5 64t-19.5 78.5h74q2 -25 16 -55.5t46.5 -54t80.5 -23.5q29 0 62 10.5t54.5 40.5t21.5 76q0 42 -22 69t-57 36.5t-66 9.5h-63z" />
    <glyph glyph-name="four.oldstyle.pnum" horiz-adv-x="526" 
d="M506 107v-66h-92v-153h-68v153h-322v63l312 424h78v-421h92zM105 107h241v324h-2z" />
    <glyph glyph-name="five.oldstyle.pnum" horiz-adv-x="542" 
d="M76 164l52 365h331v-65h-273l-28 -196q10 10 31.5 21.5t48.5 17t50 5.5q35 0 71.5 -11t67 -37.5t50.5 -68t20 -95.5q0 -46 -16.5 -87t-46 -71.5t-70 -47.5t-86.5 -17q-45 0 -84 14t-67.5 39.5t-45.5 60t-21 75.5h73q9 -52 46 -87.5t99 -35.5q64 0 104.5 43t40.5 114
q0 66 -39.5 107.5t-105.5 41.5q-24 0 -53 -10t-51.5 -32t-30.5 -43h-67z" />
    <glyph glyph-name="six.oldstyle.pnum" horiz-adv-x="532" 
d="M286 640h98q-164 -134 -222 -260q47 41 118 41q35 0 72 -11.5t68 -38.5t51.5 -70t20.5 -98q0 -43 -16 -83t-46 -70t-71 -47t-89 -17q-37 0 -75.5 11.5t-74.5 43t-53.5 78.5t-17.5 93q0 107 60 215.5t177 212.5zM418 203q0 70 -41 112t-107 42t-106.5 -42.5t-40.5 -111.5
q0 -68 41 -110t106 -42t106.5 42t41.5 110z" />
    <glyph glyph-name="seven.oldstyle.pnum" horiz-adv-x="448" 
d="M91 460v-94h-71v163h412v-65q-80 -107 -130.5 -238.5t-81.5 -336.5h-75q24 163 74.5 309t127.5 262h-256z" />
    <glyph glyph-name="eight.oldstyle.pnum" horiz-adv-x="542" 
d="M271 50q44 0 78 15.5t49.5 45.5t15.5 64q0 41 -22 70t-56 40t-65 11q-47 0 -82 -19t-47.5 -47t-12.5 -55q0 -25 7.5 -46t21 -37.5t41.5 -29t72 -12.5zM271 359q48 0 78 19.5t40.5 46.5t10.5 50q0 50 -33.5 82.5t-95.5 32.5q-61 0 -95 -32.5t-34 -82.5t34.5 -83t94.5 -33z
M271 -14q-39 0 -77.5 9.5t-73 35t-50 64t-15.5 77.5q0 50 26.5 93t75.5 65q-39 22 -62 62.5t-23 84.5q0 45 23 87.5t70.5 66t105.5 23.5q35 0 70.5 -9.5t64 -31.5t46.5 -56.5t18 -79.5q0 -32 -12.5 -63.5t-33 -52.5t-39.5 -31q48 -22 75 -65t27 -93q0 -60 -28 -101.5
t-75.5 -63t-112.5 -21.5z" />
    <glyph glyph-name="nine.oldstyle.pnum" horiz-adv-x="532" 
d="M246 -114h-98q163 133 222 261q-45 -41 -118 -41q-35 0 -72 11.5t-71.5 42t-51.5 75.5t-17 89q0 43 16 82.5t46 70t71 47.5t89 17q49 0 85.5 -15t64.5 -39.5t49.5 -69t21.5 -103.5q0 -107 -60 -215.5t-177 -212.5zM114 324q0 -70 41 -112.5t107 -42.5t106.5 43t40.5 112
q0 67 -41 109.5t-106 42.5t-106.5 -42.5t-41.5 -109.5z" />
    <glyph glyph-name="zero.pnum" 
d="M291 -15q-58 0 -105 26t-78.5 74.5t-48 117.5t-16.5 152t16.5 152t48 117.5t78.5 74.5t105 26t104.5 -26t78.5 -74.5t48.5 -117.5t16.5 -152t-16.5 -152t-48.5 -117.5t-78.5 -74.5t-104.5 -26zM291 657q-81 0 -127 -77.5t-46 -224.5q0 -148 46 -225t127 -77t127 77
t46 225q0 147 -46 224.5t-127 77.5z" />
    <glyph glyph-name="one.pnum" horiz-adv-x="387" 
d="M247 710v-710h-73v639h-119v50l135 21h57z" />
    <glyph glyph-name="two.pnum" horiz-adv-x="547" 
d="M510 0h-471v62l284 261q46 42 71 85.5t25 94.5q0 70 -40.5 112.5t-112.5 42.5q-75 0 -112.5 -45t-37.5 -120l1 -20h-74l-2 22q0 50 15.5 93t44.5 73.5t71 47t94 16.5q54 0 97 -16t72 -45.5t43.5 -70t14.5 -87.5q0 -67 -31 -124t-97 -115l-223 -198h368v-69z" />
    <glyph glyph-name="three.pnum" horiz-adv-x="557" 
d="M203 331v65h60q50 0 86 15t57.5 43.5t21.5 68.5q0 62 -39.5 98.5t-115.5 36.5q-35 0 -68 -13.5t-54.5 -47t-25.5 -72.5h-73q2 30 14 63.5t41.5 67.5t74.5 51.5t92 17.5q39 0 79 -9.5t76.5 -36.5t54 -68.5t17.5 -84.5q0 -39 -16.5 -74t-44.5 -55.5t-56 -30.5
q64 -18 96 -63t32 -104q0 -46 -16 -85.5t-46.5 -68t-75 -44.5t-98.5 -16q-39 0 -79.5 10.5t-78 39.5t-57.5 74t-24 92h74q3 -29 14.5 -57t32.5 -49t51 -32.5t67 -11.5q73 0 117 38t44 110q0 64 -45 98t-124 34h-65z" />
    <glyph glyph-name="four.pnum" horiz-adv-x="585" 
d="M552 240v-66h-92v-174h-71v174h-356v64l349 472h78v-470h92zM389 608h-1l-272 -368h273v368z" />
    <glyph glyph-name="five.pnum" horiz-adv-x="565" 
d="M69 303l56 407h366v-69h-309l-32 -236q25 25 64 41.5t84 16.5q52 0 95 -18.5t72 -50.5t44.5 -74.5t15.5 -88.5q0 -37 -11.5 -78.5t-44 -83t-82 -63t-100.5 -21.5q-102 0 -164.5 56.5t-72.5 149.5h74q7 -41 28 -72.5t55 -49t80 -17.5q72 0 117.5 49.5t45.5 129.5
q0 74 -44 120.5t-120 46.5q-31 0 -62.5 -12t-56 -36t-33.5 -47h-65z" />
    <glyph glyph-name="six.pnum" horiz-adv-x="570" 
d="M294 -15q-54 0 -99.5 19t-77.5 53.5t-48.5 80t-16.5 96.5q0 236 268 476h97q-81 -66 -149.5 -144.5t-105.5 -159.5q23 22 59 38.5t84 16.5q51 0 94.5 -18.5t74 -51.5t47 -76.5t16.5 -90.5t-17.5 -91t-50.5 -77t-78 -52t-97 -19zM461 224q0 77 -47 125.5t-120 48.5
q-74 0 -120.5 -48.5t-46.5 -125.5t46.5 -125t120.5 -48q73 0 120 48t47 125z" />
    <glyph glyph-name="seven.pnum" horiz-adv-x="502" 
d="M480 710v-65q-93 -117 -154.5 -274.5t-90.5 -370.5h-79q28 180 87.5 350t149.5 291h-296v-94h-71v163h454z" />
    <glyph glyph-name="eight.pnum" horiz-adv-x="565" 
d="M283 -15q-43 0 -86 10.5t-77 35.5t-55 65t-21 94q0 56 31.5 105t86.5 72q-47 23 -72.5 68.5t-25.5 96.5q0 39 14.5 74t42.5 62t69.5 42t92.5 15q38 0 77 -10t74.5 -37.5t52 -67.5t16.5 -79q0 -37 -14.5 -72.5t-38.5 -58t-47 -33.5q55 -23 86.5 -72t31.5 -105
q0 -43 -15 -80.5t-45 -65.5t-75 -43.5t-103 -15.5zM283 332q-75 0 -119.5 -38t-44.5 -101q0 -64 42 -103.5t122 -39.5t122 39.5t42 103.5q0 63 -44.5 101t-119.5 38zM283 397q70 0 109.5 37t39.5 96q0 34 -16.5 65.5t-52 48t-80.5 16.5t-80.5 -16.5t-52 -47.5t-16.5 -65
q0 -59 39.5 -96.5t109.5 -37.5z" />
    <glyph glyph-name="nine.pnum" horiz-adv-x="570" 
d="M276 725q54 0 99.5 -19t77 -53.5t48.5 -80t17 -96.5q0 -237 -269 -476h-96q79 64 147.5 142.5t106.5 160.5q-60 -55 -143 -55q-38 0 -78 12.5t-78 46.5t-56.5 83t-18.5 96t17.5 91t50 77t78 52t97.5 19zM109 486q0 -77 47 -126t120 -49t120 49t47 126q0 47 -21 88.5
t-61 63t-85 21.5q-73 0 -120 -48t-47 -125z" />
    <glyph glyph-name="zero.dnom" horiz-adv-x="394" 
d="M104 216q0 -169 93 -169t93 169q0 168 -93 168t-93 -168zM42 216q0 106 40 165.5t115 59.5t115 -59.5t40 -165.5q0 -107 -40 -166.5t-115 -59.5t-115 59.5t-40 166.5z" />
    <glyph glyph-name="one.dnom" horiz-adv-x="275" 
d="M179 431v-431h-61v373h-91v46l106 12h46z" />
    <glyph glyph-name="two.dnom" horiz-adv-x="385" 
d="M341 0h-292v47l170 151q28 24 41 47.5t13 54.5q0 37 -21.5 60.5t-58.5 23.5q-40 0 -61.5 -24.5t-21.5 -66.5l1 -16h-61l-1 17q0 66 39.5 106.5t104.5 40.5q33 0 60 -10.5t45.5 -30t27.5 -45.5t9 -52q0 -32 -15 -68t-65 -79l-114 -99h200v-57z" />
    <glyph glyph-name="three.dnom" horiz-adv-x="387" 
d="M139 193v51h49q41 0 62 20t21 51q0 32 -21 51t-60 19q-27 0 -46 -12.5t-26.5 -30.5t-8.5 -33h-60q5 57 43 94.5t98 37.5q25 0 50.5 -6t48 -22.5t32.5 -43t10 -51.5q0 -30 -15.5 -56.5t-45.5 -39.5q32 -12 50 -40t18 -60q0 -58 -40 -95t-108 -37q-65 0 -103 37.5
t-43 100.5h59q3 -37 26 -59.5t61 -22.5t61.5 20.5t23.5 57.5q0 69 -88 69h-48z" />
    <glyph glyph-name="four.dnom" horiz-adv-x="392" 
d="M358 156v-55h-60v-101h-58v101h-205v50l201 280h62v-275h60zM240 349l-139 -193h139v193z" />
    <glyph glyph-name="five.dnom" horiz-adv-x="356" 
d="M53 124h62q3 -25 15.5 -44.5t32.5 -27.5t40 -8q39 0 63 26t24 70q0 30 -13 52t-34 30.5t-40 8.5q-18 0 -36.5 -6.5t-30.5 -20.5t-17 -28h-58l36 254h234v-57h-184l-16 -112q9 9 30.5 16.5t47.5 7.5q24 0 49 -7.5t48 -28t34.5 -51t11.5 -58.5q0 -39 -18.5 -75.5t-54.5 -56
t-76 -19.5q-66 0 -104.5 38t-45.5 97z" />
    <glyph glyph-name="six.dnom" horiz-adv-x="390" 
d="M208 430h85q-110 -91 -152 -164q11 8 28.5 14.5t36.5 6.5q41 0 76 -20t52.5 -56t17.5 -73q0 -22 -7.5 -47t-25.5 -47.5t-48 -38.5t-71 -16q-43 0 -76.5 18t-54.5 53t-21 84q0 141 160 286zM289 138q0 41 -25.5 67.5t-63.5 26.5q-39 0 -64 -26.5t-25 -67.5t25 -67.5
t64 -26.5q38 0 63.5 26.5t25.5 67.5z" />
    <glyph glyph-name="seven.dnom" horiz-adv-x="332" 
d="M315 431v-49q-66 -84 -107.5 -176t-64.5 -206h-64q47 224 158 374h-150v-58h-59v115h287z" />
    <glyph glyph-name="eight.dnom" horiz-adv-x="389" 
d="M194 44q43 0 66 21t23 55q0 33 -24.5 53.5t-64.5 20.5t-64.5 -20.5t-24.5 -53.5q0 -34 23.5 -55t65.5 -21zM194 248q37 0 58.5 20t21.5 51q0 30 -21 49.5t-59 19.5t-59 -19.5t-21 -49.5q0 -31 21.5 -51t58.5 -20zM194 -10q-27 0 -57.5 7.5t-52 27.5t-30.5 44t-9 49
q0 33 16 61t45 44q-50 33 -50 96q0 24 12 53t44.5 49t81.5 20q32 0 64 -11.5t53 -42.5t21 -68q0 -28 -13 -53.5t-38 -42.5q31 -16 46.5 -43.5t15.5 -61.5q0 -25 -9 -49t-28 -42t-47.5 -27.5t-64.5 -9.5z" />
    <glyph glyph-name="nine.dnom" horiz-adv-x="390" 
d="M182 0h-85q107 87 152 165q-1 0 -6.5 -4.5t-15 -8.5t-20 -6.5t-23.5 -2.5q-41 0 -76 20t-52.5 56t-17.5 73q0 22 7.5 47t25.5 47.5t48 38.5t71 16q43 0 76.5 -18t54.5 -53t21 -84q0 -143 -160 -286zM101 292q0 -41 25.5 -67.5t63.5 -26.5q39 0 64 26.5t25 67.5t-25 67.5
t-64 26.5q-38 0 -63.5 -26.5t-25.5 -67.5z" />
    <glyph glyph-name="zero.numr" horiz-adv-x="394" 
d="M104 494q0 -168 93 -168t93 168q0 85 -24 127t-69 42t-69 -42t-24 -127zM42 494q0 106 40 166t115 60t115 -60t40 -166t-40 -165.5t-115 -59.5t-115 59.5t-40 165.5z" />
    <glyph glyph-name="one.numr" horiz-adv-x="275" 
d="M179 710v-432h-61v373h-91v47l106 12h46z" />
    <glyph glyph-name="two.numr" horiz-adv-x="385" 
d="M341 278h-292v48l170 151q28 25 41 48t13 54q0 37 -21.5 60.5t-58.5 23.5q-40 0 -61.5 -24.5t-21.5 -66.5l1 -16h-61l-1 17q0 65 39.5 105.5t104.5 40.5q25 0 50 -7t48.5 -26.5t33.5 -49t10 -55.5q0 -43 -20 -77.5t-60 -69.5l-114 -99h200v-57z" />
    <glyph glyph-name="three.numr" horiz-adv-x="387" 
d="M139 471v52h49q41 0 62 19.5t21 50.5q0 33 -20.5 52t-60.5 19q-37 0 -57.5 -21.5t-23.5 -55.5h-60q5 57 43 95t98 38q34 0 60.5 -9t45 -25.5t27 -40.5t8.5 -49q0 -22 -8.5 -42.5t-23.5 -33.5t-29 -20q32 -11 50 -39t18 -60q0 -59 -40 -95.5t-108 -36.5q-65 0 -103 37.5
t-43 100.5h59q3 -37 26 -59.5t61 -22.5q37 0 61 20t24 57q0 69 -88 69h-48z" />
    <glyph glyph-name="four.numr" horiz-adv-x="392" 
d="M358 434v-54h-60v-102h-58v102h-205v50l201 280h62v-276h60zM240 627l-139 -193h139v193z" />
    <glyph glyph-name="five.numr" horiz-adv-x="392" 
d="M53 404h62q3 -25 15.5 -44.5t32.5 -27.5t40 -8q39 0 63 26t24 70q0 30 -13 52t-34 30.5t-40 8.5q-27 0 -51 -13.5t-33 -40.5h-58l36 253h234v-57h-184l-16 -112q8 9 30 16.5t48 7.5q24 0 49 -7.5t48 -28t34.5 -51t11.5 -58.5q0 -39 -18.5 -75.5t-54.5 -56t-76 -19.5
q-65 0 -104 38t-46 97z" />
    <glyph glyph-name="six.numr" horiz-adv-x="390" 
d="M208 710h85q-108 -88 -152 -164q11 8 28.5 14.5t36.5 6.5q65 0 105.5 -43.5t40.5 -105.5q0 -38 -19 -74t-55.5 -55.5t-77.5 -19.5q-43 0 -79.5 20t-54.5 57.5t-18 77.5q0 141 160 286zM289 418q0 41 -25.5 68t-63.5 27q-39 0 -64 -27t-25 -68t25 -67.5t64 -26.5
q38 0 63.5 27t25.5 67z" />
    <glyph glyph-name="seven.numr" horiz-adv-x="332" 
d="M315 710v-49q-66 -84 -107.5 -176t-64.5 -207h-64q47 225 158 375h-150v-58h-59v115h287z" />
    <glyph glyph-name="eight.numr" horiz-adv-x="389" 
d="M194 322q43 0 66 21t23 55t-24 54t-65 20t-65 -20t-24 -54t23.5 -55t65.5 -21zM194 527q37 0 58.5 19.5t21.5 50.5t-21 50t-59 19t-59 -19t-21 -50t21.5 -50.5t58.5 -19.5zM194 269q-27 0 -57.5 7.5t-52 27.5t-30.5 44t-9 49q0 33 16 61t45 44q-25 16 -37.5 41.5
t-12.5 54.5q0 24 12 53t44.5 49t81.5 20q32 0 64 -11.5t53 -42.5t21 -68q0 -28 -13.5 -54t-37.5 -42q31 -16 46.5 -43.5t15.5 -61.5q0 -25 -9 -49t-28 -42t-47.5 -27.5t-64.5 -9.5z" />
    <glyph glyph-name="nine.numr" horiz-adv-x="390" 
d="M182 278h-85q109 90 152 165q-11 -8 -28.5 -14.5t-36.5 -6.5q-65 0 -105.5 43.5t-40.5 105.5q0 38 19 74t55.5 55.5t77.5 19.5q43 0 79.5 -20t54.5 -57.5t18 -77.5q0 -142 -160 -287zM101 571q0 -41 25.5 -68t63.5 -27q39 0 64 27t25 68t-25 67.5t-64 26.5
q-38 0 -63.5 -27t-25.5 -67z" />
    <glyph glyph-name="Euro.aalt" horiz-adv-x="565" 
d="M54 216v59h71q-2 15 -2 44l2 46h-71v59h79q11 49 33 91t54.5 73t78 48.5t100.5 17.5q40 0 75 -8t53 -19v-72q-20 12 -55.5 22t-72.5 10q-80 0 -126.5 -43.5t-63.5 -119.5h217v-59h-226q-2 -15 -2 -46q0 -30 2 -44h226v-59h-217q7 -33 22 -64.5t38.5 -53.5t56 -34
t73.5 -12q37 0 72.5 9.5t55.5 21.5v-71q-18 -11 -53 -19t-75 -8q-41 0 -83.5 11.5t-82.5 43t-64.5 79t-35.5 97.5h-79z" />
    <glyph glyph-name="dollar.aalt" horiz-adv-x="588" 
d="M279 -124v112q-42 2 -82.5 14t-71.5 37.5t-50.5 63.5t-22.5 87h73q2 -27 15 -55t33.5 -44.5t45.5 -26t60 -12.5v243l-19 5q-97 22 -137.5 65.5t-40.5 112.5q0 51 25 89t68.5 59.5t103.5 24.5v108h49v-108q37 -3 72.5 -16.5t65.5 -41.5t43.5 -65.5t16.5 -68.5h-71
q-7 36 -25.5 64t-46.5 42t-55 18v-227l14 -3q91 -21 138.5 -64t47.5 -126q0 -49 -25 -86.5t-69 -60.5t-106 -27v-113h-49zM155 480q0 -45 28.5 -70.5t95.5 -41.5v218q-63 -4 -93.5 -32.5t-30.5 -73.5zM455 163q0 45 -29.5 74t-97.5 45v-228q63 6 95 35.5t32 73.5z" />
    <glyph glyph-name="cent.aalt" horiz-adv-x="581" 
d="M272 -19v95q-47 5 -86 26.5t-66.5 55t-41.5 76t-14 86.5t14 86.5t41.5 76.5t66.5 55.5t86 25.5v96h48v-96q19 -2 43 -8.5t47.5 -20t45.5 -35.5t38 -54t22 -63h-70q-13 47 -46.5 78.5t-79.5 37.5v-358q47 6 80 37t46 79h70q-6 -31 -22 -63.5t-41.5 -57.5t-59 -40.5
t-73.5 -19.5v-95h-48zM134 320q0 -73 38 -122.5t100 -57.5v360q-62 -9 -100 -58.5t-38 -121.5z" />
    <glyph glyph-name="sterling.aalt" horiz-adv-x="565" 
d="M72 252v59h76q-18 39 -30 74.5t-12 76.5q0 40 13 75.5t39.5 61.5t65 40.5t87.5 14.5q96 0 151.5 -56.5t55.5 -150.5l-2 -24h-71l2 22q0 39 -14.5 73.5t-47 52t-74.5 17.5q-34 0 -66 -12.5t-50 -45t-18 -73.5q0 -25 8.5 -56.5t39.5 -89.5h175v-59h-154q7 -24 7 -51
q0 -67 -37 -111q32 -2 87.5 -21.5t91.5 -19.5q18 0 39 6.5t39.5 23t27.5 31.5l46 -39q-10 -17 -33 -38.5t-57.5 -35t-73.5 -13.5q-11 0 -25.5 1.5t-31.5 5.5t-62 20t-78 16q-25 0 -50.5 -13t-40.5 -30l-38 46q10 13 29.5 27t42.5 22q58 44 58 117q0 28 -11 56h-104z" />
    <glyph glyph-name="florin.aalt" horiz-adv-x="449" 
d="M257 324l-65 -330q-33 -164 -167 -164q-22 0 -47 7t-40 19l30 56q7 -6 23.5 -12.5t35.5 -6.5q38 0 60.5 25.5t34.5 84.5l63 321h-107l11 64h108l21 101q17 84 58 124t108 40q29 0 53.5 -9t33.5 -17l-29 -56q-8 6 -24 12.5t-35 6.5q-39 0 -61.5 -25.5t-33.5 -84.5l-18 -92
h109l-11 -64h-111z" />
    <glyph glyph-name="yen.aalt" horiz-adv-x="512" 
d="M20 654h79l155 -276h2l154 276h82l-192 -328h124v-58h-132v-75h132v-56h-132v-137h-73v137h-132v56h132v75h-132v58h122z" />
    <glyph glyph-name="zero.oldstyle" horiz-adv-x="552" 
d="M120 264q0 -95 42.5 -153t113.5 -58t113.5 58t42.5 153t-42.5 153t-113.5 58t-113.5 -58t-42.5 -153zM46 264q0 56 15.5 107t45.5 89t73 59.5t96 21.5t96 -21.5t73 -59.5t45.5 -89t15.5 -107t-15.5 -107t-45.5 -89t-73 -59.5t-96 -21.5t-96 21.5t-73 59.5t-45.5 89
t-15.5 107z" />
    <glyph glyph-name="one.oldstyle" horiz-adv-x="552" 
d="M500 64v-64h-423v64h175v394h-159v50l175 21h57v-465h175z" />
    <glyph glyph-name="two.oldstyle" horiz-adv-x="552" 
d="M148 322h-73l-2 19q0 92 53 146t147 54q90 0 142 -49t52 -127q0 -62 -39 -113.5t-142 -120.5l-99 -66h307v-65h-423v59l168 116q63 44 95.5 73.5t45.5 58t13 57.5q0 35 -18.5 62.5t-47 38t-55.5 10.5q-26 0 -47.5 -7.5t-37.5 -21t-28 -40t-12 -66.5z" />
    <glyph glyph-name="three.oldstyle" horiz-adv-x="552" 
d="M205 182v65h60q69 0 104.5 33t35.5 79q0 38 -17 63.5t-45 38t-68 12.5q-30 0 -59 -11.5t-48.5 -41t-21.5 -64.5h-74q6 84 61.5 134.5t142.5 50.5q95 0 149 -49.5t54 -129.5q0 -46 -25.5 -85.5t-71.5 -59.5q54 -18 80 -58t26 -92t-25 -98.5t-76 -71t-112 -24.5
q-58 0 -108 25.5t-77 73.5t-31 101h73q5 -40 25.5 -70.5t50 -46.5t67.5 -16q29 0 62.5 10.5t55 40.5t21.5 76q0 56 -39 85.5t-106 29.5h-64z" />
    <glyph glyph-name="four.oldstyle" horiz-adv-x="552" 
d="M531 107v-66h-112v-153h-68v153h-322v63l312 424h78v-421h112zM110 107h241v324h-2z" />
    <glyph glyph-name="five.oldstyle" horiz-adv-x="552" 
d="M75 164l52 365h331v-65h-273l-28 -196q23 21 59 32.5t72 11.5q47 0 86 -16.5t66 -46t41.5 -68t14.5 -81.5q0 -46 -16.5 -87t-46 -71.5t-70 -47.5t-86.5 -17q-33 0 -69 9.5t-67 32t-53.5 59.5t-28.5 88h73q9 -52 46 -87.5t99 -35.5q64 0 104.5 43t40.5 114
q0 66 -39.5 107.5t-105.5 41.5q-24 0 -53 -10t-51.5 -32t-30.5 -43h-67z" />
    <glyph glyph-name="six.oldstyle" horiz-adv-x="552" 
d="M290 640h99q-164 -132 -223 -260q47 41 119 41q35 0 71.5 -11.5t67.5 -38.5t51.5 -70t20.5 -98q0 -43 -16 -83t-46 -70t-71 -47t-89 -17q-49 0 -90.5 17.5t-70.5 48.5t-44 72.5t-15 87.5q0 107 60 215.5t176 212.5zM422 203q0 70 -41 112t-107 42t-106.5 -42.5
t-40.5 -111.5q0 -68 41 -110t106 -42t106.5 42t41.5 110z" />
    <glyph glyph-name="seven.oldstyle" horiz-adv-x="552" 
d="M37 529h479v-65q-67 -80 -113 -162t-78 -179.5t-52 -233.5h-75q29 182 83.5 316t147.5 255h-321v-94h-71v163z" />
    <glyph glyph-name="eight.oldstyle" horiz-adv-x="538" 
d="M269 50q44 0 78 15.5t49.5 45.5t15.5 64q0 41 -22 70t-56 40t-65 11q-30 0 -64.5 -11t-56.5 -40t-22 -70q0 -25 7.5 -46t21 -37.5t42 -29t72.5 -12.5zM269 359q60 0 94.5 33t34.5 83t-33.5 82.5t-95.5 32.5q-61 0 -95 -32.5t-34 -82.5t34.5 -83t94.5 -33zM269 -14
q-65 0 -112.5 21.5t-75.5 63t-28 101.5q0 50 26.5 93t75.5 65q-39 22 -62 62.5t-23 84.5q0 35 13 67.5t38.5 57t63 38.5t84.5 14q35 0 70.5 -9.5t64 -31.5t46.5 -56.5t18 -79.5q0 -32 -12.5 -63.5t-33 -52.5t-39.5 -31q48 -22 75 -65t27 -93q0 -60 -28 -101.5t-75.5 -63
t-112.5 -21.5z" />
    <glyph glyph-name="nine.oldstyle" horiz-adv-x="552" 
d="M258 -114h-98q163 133 222 261q-45 -41 -118 -41q-35 0 -72 11.5t-71.5 42t-51.5 75.5t-17 89q0 43 16 82.5t46 70t71 47.5t89 17q49 0 85.5 -15t64.5 -39.5t49.5 -69t21.5 -103.5q0 -107 -60 -215.5t-177 -212.5zM126 324q0 -70 41 -112.5t107 -42.5t106.5 43t40.5 112
q0 67 -41 109.5t-106 42.5t-106.5 -42.5t-41.5 -109.5z" />
    </font>
</defs>
</svg>
